{"glyphs":{"0":{"ha":718,"x_min":7,"x_max":742,"o":"m 189 -19 q 55 34 103 -19 q 7 176 7 88 q 189 546 7 364 q 560 728 371 728 q 693 674 644 728 q 742 531 742 619 q 556 165 742 349 q 189 -19 371 -19 m 506 697 q 247 508 365 697 q 142 189 142 339 q 167 75 142 119 q 263 19 197 19 q 510 211 399 19 q 608 528 608 381 q 592 638 608 599 q 506 697 567 697 z "},"1":{"ha":569,"x_min":42,"x_max":640,"o":"m 418 578 q 249 504 340 538 q 71 449 158 471 l 64 465 q 353 565 213 499 q 626 728 494 631 l 640 717 q 493 488 567 601 q 349 257 426 383 q 207 22 285 154 l 335 28 l 326 13 q 150 3 282 13 q 42 -3 75 -3 l 418 578 z "},"2":{"ha":718,"x_min":-101,"x_max":700,"o":"m 644 239 q 567 115 586 142 q 469 19 519 50 q 326 -19 407 -19 q 182 26 274 -19 q 39 71 90 71 q -33 26 0 71 q -86 -19 -65 -19 l -101 1 q 71 131 -101 53 q 390 288 328 247 q 564 535 564 400 q 523 649 564 600 q 418 699 482 699 q 321 657 361 699 q 281 558 281 615 q 300 485 281 513 q 364 457 319 457 q 422 479 393 457 q 376 402 407 429 q 294 375 344 375 q 211 410 242 375 q 181 499 181 444 q 279 668 181 603 q 476 726 367 726 q 631 679 568 726 q 700 539 700 626 q 578 335 700 426 q 315 200 490 269 q 67 101 72 104 q 128 118 93 113 q 194 124 164 124 q 346 89 231 124 q 439 72 401 72 q 557 133 501 72 q 635 250 593 174 l 644 239 z "},"3":{"ha":718,"x_min":-24,"x_max":747,"o":"m 278 376 q 547 440 458 376 q 621 583 621 493 q 589 665 621 633 q 507 697 557 697 q 429 664 460 697 q 399 583 399 631 q 417 535 399 556 q 464 515 436 515 q 519 539 492 515 q 473 469 504 494 q 396 443 442 443 q 324 470 349 443 q 300 546 300 497 q 388 683 300 632 q 553 726 461 726 q 683 696 631 726 q 747 586 747 658 q 639 433 747 486 q 442 378 582 406 q 561 343 519 371 q 617 238 617 307 q 489 38 617 106 q 242 -18 386 -18 q 65 21 136 -18 q -24 165 -24 69 q 15 264 -24 224 q 114 304 54 304 q 179 288 147 304 q 235 246 203 275 l 226 232 q 201 238 214 235 q 185 240 188 240 q 119 208 143 240 q 96 132 96 176 q 142 38 96 72 q 250 3 188 3 q 415 74 347 3 q 483 242 483 144 q 444 331 483 303 q 344 360 406 360 q 272 351 308 360 l 278 376 z "},"4":{"ha":718,"x_min":-19,"x_max":790,"o":"m 197 -3 l 364 247 l -19 247 l 668 832 l 749 832 l 50 279 l 381 276 l 635 689 l 790 708 q 694 567 742 640 q 603 422 672 533 q 511 276 557 349 l 669 276 l 657 247 l 494 247 q 351 6 425 138 l 197 -3 z "},"5":{"ha":718,"x_min":-4,"x_max":789,"o":"m 253 404 q 422 442 328 442 q 558 399 503 442 q 621 272 621 350 q 500 54 621 136 q 250 -18 393 -18 q 79 22 147 -18 q -4 167 -4 71 q 38 269 -4 231 q 144 307 81 307 q 213 288 178 307 q 268 244 238 274 l 263 232 q 201 246 231 246 q 136 213 158 246 q 114 133 114 181 q 159 38 114 74 q 265 3 204 3 q 431 92 368 3 q 488 281 488 172 q 455 376 488 339 q 363 413 422 413 q 279 395 324 413 q 201 353 235 378 l 186 365 l 496 728 l 538 701 q 596 678 564 685 q 664 671 628 671 q 723 681 694 671 q 781 713 751 692 l 789 699 q 685 617 735 646 q 557 579 619 579 q 435 615 488 579 l 253 404 z "},"6":{"ha":718,"x_min":74,"x_max":1081,"o":"m 268 435 q 360 521 313 492 q 482 556 417 556 q 599 509 554 556 q 644 389 644 463 q 522 110 644 240 q 250 -19 399 -19 q 118 33 163 -19 q 74 178 74 86 q 335 692 74 446 q 867 938 596 938 q 1006 911 950 938 q 1081 800 1081 875 q 1053 728 1081 756 q 981 690 1026 701 q 984 731 982 711 q 986 778 986 751 q 937 877 986 839 q 825 915 888 915 q 608 828 726 915 q 408 632 510 754 q 268 432 328 535 l 268 435 m 435 528 q 250 376 329 528 q 182 128 182 246 q 202 39 182 74 q 274 4 222 4 q 454 157 375 4 q 524 404 524 292 q 504 488 524 454 q 435 528 481 528 z "},"7":{"ha":718,"x_min":-4,"x_max":807,"o":"m 326 767 l 269 661 q 346 710 306 693 q 431 728 386 728 q 518 711 469 728 q 664 672 633 672 q 730 686 700 672 q 793 728 760 700 l 807 719 q 482 284 636 496 q 174 -157 328 72 l -4 -169 l 735 657 q 630 600 667 613 q 554 588 593 588 q 433 616 511 588 q 315 644 354 644 q 222 582 251 644 q 174 519 193 519 l 151 540 q 183 589 154 563 q 230 627 208 608 q 285 717 251 646 q 311 772 297 744 l 326 767 z "},"8":{"ha":718,"x_min":13,"x_max":810,"o":"m 539 418 q 664 485 617 426 q 711 624 711 543 q 679 760 711 706 q 564 826 640 826 q 465 775 501 826 q 428 658 428 724 q 436 593 428 625 q 490 465 446 565 q 556 240 556 318 q 468 43 556 111 q 256 -19 389 -19 q 81 43 149 -19 q 13 213 13 106 q 114 413 13 343 q 336 486 190 465 q 310 618 310 553 q 397 786 310 719 q 583 847 478 847 q 743 789 676 847 q 810 639 810 731 q 725 467 810 536 q 542 403 646 403 l 539 418 m 340 471 q 119 221 119 444 q 158 78 119 142 q 279 3 204 3 q 400 74 357 3 q 438 217 438 135 q 403 346 438 265 q 340 471 390 375 z "},"9":{"ha":718,"x_min":-465,"x_max":668,"o":"m 311 189 q 496 332 415 189 q 567 571 567 457 q 553 660 567 628 q 485 706 533 706 q 289 563 368 706 q 222 313 222 442 q 240 229 222 261 q 311 189 264 189 m 494 292 q 392 191 451 229 q 263 153 333 153 q 148 199 190 153 q 106 321 106 246 q 228 591 106 453 q 481 729 351 729 q 619 673 571 729 q 668 526 668 617 q 381 -29 668 242 q -192 -300 93 -300 q -371 -268 -303 -300 q -465 -125 -465 -224 q -444 -65 -465 -89 q -385 -33 -422 -40 q -321 -200 -369 -136 q -165 -278 -261 -278 q 99 -178 -40 -278 q 331 50 215 -93 q 494 294 421 163 l 494 292 z "}," ":{"ha":357,"x_min":0,"x_max":0,"o":""},"!":{"ha":494,"x_min":79,"x_max":594,"o":"m 214 160 q 364 444 306 301 q 414 582 394 531 q 483 706 451 678 q 506 722 494 715 q 531 728 517 728 q 576 710 558 728 q 594 663 594 692 q 493 492 594 606 q 411 403 451 447 q 228 154 311 288 l 214 160 m 235 60 q 213 4 235 26 q 158 -18 190 -18 q 103 4 126 -18 q 79 60 79 26 q 103 115 79 93 q 161 138 126 138 q 213 115 192 138 q 235 60 235 92 z "},"\"":{"ha":444,"x_min":210,"x_max":483,"o":"m 438 542 l 425 547 q 403 701 413 565 q 394 894 394 836 q 403 949 394 925 q 438 972 411 972 q 476 942 465 972 q 483 886 483 922 q 472 736 483 836 q 461 586 461 636 q 456 553 460 565 q 438 542 451 542 m 268 549 l 253 542 l 242 547 q 219 696 229 567 q 210 894 210 825 q 218 949 210 925 q 253 972 226 972 q 292 942 281 972 q 299 886 299 922 q 287 700 299 843 q 268 549 275 557 z "},"#":{"ha":718,"x_min":81,"x_max":664,"o":"m 558 219 l 453 219 l 358 -3 l 294 -3 l 388 219 l 250 219 l 156 -3 l 92 -3 l 185 219 l 81 219 l 96 279 l 207 279 l 276 440 l 171 440 l 188 499 l 300 499 l 393 721 l 457 721 l 364 499 l 503 499 l 596 721 l 660 721 l 568 499 l 664 499 l 647 440 l 544 440 l 475 279 l 572 279 l 558 219 m 342 440 l 272 279 l 410 279 l 479 440 l 342 440 z "},"$":{"ha":718,"x_min":43,"x_max":783,"o":"m 392 381 q 333 464 354 426 q 307 561 307 514 q 389 715 307 656 q 564 769 464 769 q 629 761 597 769 l 683 850 l 710 838 l 660 754 q 744 698 706 739 q 783 611 783 657 q 740 522 783 547 q 638 503 707 503 q 666 567 654 533 q 678 633 678 601 q 670 685 678 663 q 642 726 663 708 l 481 468 q 546 375 538 390 q 578 265 578 319 q 489 86 578 153 q 292 25 408 25 q 255 27 275 25 q 213 35 235 29 l 156 -58 l 131 -44 l 185 42 q 85 111 121 68 q 43 225 43 160 q 72 319 43 279 q 154 358 101 358 q 208 342 186 358 q 229 294 229 325 q 210 248 229 264 q 164 232 192 232 q 122 240 143 232 q 114 219 115 229 q 113 189 113 208 q 138 119 113 151 q 199 68 163 86 l 392 381 m 225 57 q 289 49 257 49 q 414 99 365 49 q 463 226 463 149 q 450 293 463 263 q 410 357 438 324 l 225 57 m 615 739 q 560 749 590 749 q 458 703 496 749 q 419 594 419 658 q 458 493 419 536 l 615 739 z "},"%":{"ha":1065,"x_min":81,"x_max":1038,"o":"m 892 407 q 995 375 953 407 q 1038 283 1038 343 q 941 72 1038 163 q 721 -19 844 -19 q 619 19 656 -19 q 583 124 583 58 q 680 322 583 236 q 892 407 776 407 m 669 60 q 721 3 669 3 q 881 126 803 3 q 951 326 951 239 q 899 385 951 385 q 740 261 818 385 q 669 60 669 147 m 167 428 q 218 371 167 371 q 376 494 299 371 q 447 694 447 608 q 396 753 447 753 q 238 629 315 753 q 167 428 167 515 m 532 665 l 533 653 q 437 441 533 532 q 219 350 340 350 q 118 389 156 350 q 81 493 81 428 q 177 692 81 607 q 389 776 274 776 q 526 708 469 776 q 619 639 582 639 q 734 688 682 639 q 839 789 786 738 q 858 783 847 789 q 868 763 868 776 q 711 550 868 743 q 411 190 600 414 q 225 -29 318 81 l 211 -19 l 738 664 q 683 630 714 643 q 622 617 653 617 q 532 665 567 617 z "},"&":{"ha":893,"x_min":18,"x_max":1104,"o":"m 294 32 q 418 69 358 32 q 310 216 343 128 q 278 411 278 304 q 176 335 217 390 q 135 218 135 281 q 178 88 135 144 q 294 32 222 32 m 536 714 q 426 618 472 714 q 388 464 388 536 q 518 533 467 485 q 581 665 581 592 q 536 714 581 714 m 1104 201 q 933 34 1036 92 q 701 -24 829 -24 q 558 -5 625 -24 q 433 57 490 14 q 323 2 375 22 q 215 -18 271 -18 q 76 29 135 -18 q 18 156 18 76 q 103 331 18 254 q 278 429 169 390 q 372 640 293 547 q 575 743 461 743 q 652 723 621 743 q 683 660 683 703 q 525 496 683 563 q 390 446 517 492 q 420 280 390 361 q 507 139 450 199 q 669 324 608 258 q 865 446 783 446 q 922 427 899 446 q 946 375 946 408 q 927 327 946 346 q 879 308 908 308 q 835 323 850 308 q 821 363 821 338 q 832 406 821 383 l 822 408 q 667 289 778 408 q 521 126 593 207 q 639 44 572 74 q 776 14 706 14 q 956 69 874 14 q 1088 207 1025 117 l 1104 201 z "},"'":{"ha":296,"x_min":214,"x_max":303,"o":"m 272 549 l 257 542 l 244 546 q 222 698 231 578 q 214 894 214 818 q 222 949 214 925 q 257 972 231 972 q 296 942 285 972 q 303 886 303 922 q 291 700 303 843 q 272 549 279 557 z "},"(":{"ha":519,"x_min":93,"x_max":967,"o":"m 967 958 q 357 376 592 776 q 129 -437 129 -12 l 110 -437 q 97 -287 100 -347 q 93 -149 93 -228 q 356 538 93 224 q 963 972 592 819 l 967 958 z "},")":{"ha":519,"x_min":-447,"x_max":425,"o":"m -447 -424 q 160 158 -75 -240 q 390 972 390 550 l 410 971 q 425 679 425 818 q 161 -4 425 311 q -443 -439 -76 -287 l -447 -424 z "},"*":{"ha":444,"x_min":215,"x_max":635,"o":"m 400 828 q 361 904 369 886 q 340 983 340 951 q 353 1011 340 1000 q 381 1022 365 1022 q 424 983 413 1022 q 435 892 435 944 q 434 862 435 874 q 433 843 433 850 q 483 917 453 879 q 549 968 525 968 q 594 922 594 968 q 538 860 594 894 q 454 818 508 842 l 482 818 q 579 811 547 818 q 635 764 635 799 q 622 732 635 744 q 590 719 610 719 q 514 746 561 719 q 443 792 475 767 l 446 790 q 475 740 464 760 q 511 646 511 676 q 499 613 511 628 q 469 599 488 599 q 426 633 438 599 q 415 718 415 667 q 415 753 415 736 q 417 783 415 769 q 368 701 393 733 q 296 650 329 650 q 267 661 279 650 q 254 690 254 672 q 308 753 254 718 q 389 796 335 769 l 369 796 q 274 803 304 796 q 215 851 215 815 q 228 881 215 868 q 258 894 242 894 q 332 871 286 894 q 400 828 369 851 z "},"+":{"ha":803,"x_min":165,"x_max":643,"o":"m 365 475 l 443 475 l 443 275 l 643 275 l 643 197 l 443 197 l 443 -3 l 365 -3 l 365 197 l 165 197 l 165 275 l 365 275 l 365 475 z "},",":{"ha":371,"x_min":-125,"x_max":197,"o":"m -125 -172 q 29 -129 -40 -172 q 122 -4 106 -82 q 107 -9 118 -7 q 85 -11 96 -11 q 44 7 60 -11 q 29 50 29 25 q 51 103 29 83 q 104 124 72 124 q 170 101 143 124 q 197 39 197 78 q 83 -131 197 -62 q -125 -190 -17 -190 l -125 -172 z "},"-":{"ha":494,"x_min":21,"x_max":404,"o":"m 343 190 l 21 190 l 82 282 l 404 282 l 343 190 z "},".":{"ha":371,"x_min":28,"x_max":185,"o":"m 107 144 q 162 122 139 144 q 185 67 185 99 q 161 11 185 33 q 103 -11 138 -11 q 50 14 72 -11 q 28 69 28 39 q 51 122 28 100 q 107 144 75 144 z "},"/":{"ha":371,"x_min":-21,"x_max":500,"o":"m -21 -24 l 426 972 l 500 972 l 54 -24 l -21 -24 z "},":":{"ha":371,"x_min":28,"x_max":376,"o":"m 303 475 q 355 452 333 475 q 376 399 376 429 q 354 343 376 367 q 299 319 332 319 q 244 344 267 319 q 222 401 222 369 q 247 453 222 432 q 303 475 271 475 m 107 144 q 162 122 139 144 q 185 67 185 99 q 161 11 185 33 q 103 -11 138 -11 q 50 14 72 -11 q 28 69 28 39 q 51 122 28 100 q 107 144 75 144 z "},";":{"ha":371,"x_min":-125,"x_max":376,"o":"m -125 -172 q 29 -129 -40 -172 q 122 -4 106 -82 q 107 -9 118 -7 q 85 -11 96 -11 q 44 7 60 -11 q 29 50 29 25 q 51 103 29 83 q 104 124 72 124 q 170 101 143 124 q 197 39 197 78 q 83 -131 197 -62 q -125 -190 -17 -190 l -125 -172 m 303 476 q 355 453 333 476 q 376 400 376 431 q 354 344 376 368 q 299 321 332 321 q 244 346 267 321 q 222 403 222 371 q 247 455 222 433 q 303 476 271 476 z "},"<":{"ha":803,"x_min":125,"x_max":603,"o":"m 603 -24 l 125 199 l 125 274 l 603 496 l 603 410 l 207 236 l 603 63 l 603 -24 z "},"=":{"ha":803,"x_min":165,"x_max":643,"o":"m 643 281 l 165 281 l 165 358 l 643 358 l 643 281 m 643 114 l 165 114 l 165 192 l 643 192 l 643 114 z "},">":{"ha":803,"x_min":192,"x_max":669,"o":"m 192 63 l 588 236 l 192 410 l 192 496 l 669 274 l 669 199 l 192 -24 l 192 63 z "},"?":{"ha":643,"x_min":108,"x_max":701,"o":"m 225 165 q 358 279 261 218 q 506 382 475 353 q 575 540 575 449 q 540 656 575 613 q 435 699 506 699 q 332 653 375 699 q 289 547 289 607 q 311 480 289 510 q 369 450 333 450 q 396 455 385 450 q 424 471 407 460 q 310 374 406 374 q 225 408 256 374 q 194 497 194 443 q 290 664 194 594 q 479 728 378 728 q 631 686 568 728 q 701 553 701 639 q 611 369 701 439 q 415 271 572 339 q 236 156 285 214 l 225 165 m 264 60 q 242 4 264 26 q 188 -18 219 -18 q 132 4 156 -18 q 108 60 108 26 q 132 115 108 93 q 190 138 156 138 q 242 115 221 138 q 264 60 264 92 z "},"@":{"ha":1071,"x_min":63,"x_max":1064,"o":"m 654 664 q 513 565 568 664 q 465 388 465 481 q 479 307 465 335 q 546 268 499 268 q 674 388 619 268 q 719 572 719 488 q 707 635 719 613 q 654 664 690 664 m 756 711 l 863 711 q 803 504 824 582 q 763 303 763 360 q 780 267 763 279 q 822 256 797 256 q 958 363 906 256 q 1003 546 1003 453 q 876 812 1003 703 q 589 921 749 921 q 293 779 408 921 q 186 461 186 647 q 306 156 186 275 q 614 38 426 38 q 889 107 757 38 l 907 58 q 747 -1 804 14 q 576 -24 667 -24 q 217 107 364 -24 q 63 454 63 243 q 213 824 63 678 q 589 971 364 971 q 918 857 782 971 q 1064 546 1064 735 q 994 317 1064 419 q 796 201 917 201 q 711 228 749 201 q 664 299 674 254 q 590 227 632 253 q 497 201 549 201 q 390 263 429 201 q 357 388 357 315 q 433 619 357 518 q 644 731 517 731 q 704 713 679 731 q 743 663 729 694 l 756 711 z "},"A":{"ha":1165,"x_min":-156,"x_max":1394,"o":"m 1394 979 q 1178 717 1264 831 q 972 396 1049 547 q 879 81 879 213 q 888 37 879 54 q 921 19 897 19 q 1189 214 1013 19 q 1313 363 1257 289 l 1329 353 q 1208 203 1267 268 q 1049 53 1122 107 q 879 -15 954 -15 q 790 19 819 -15 q 761 115 761 54 q 786 271 761 189 q 849 415 807 339 l 667 415 q 499 229 561 292 q 293 65 390 121 q 56 -4 172 -4 q -87 32 -31 -4 q -156 156 -156 75 q -131 229 -156 196 q -67 263 -106 263 q -20 245 -40 263 q 0 201 0 228 q -22 149 0 168 q -78 129 -44 129 q -33 46 -78 76 q 69 15 13 15 q 451 231 226 15 q 892 663 675 446 q 1382 989 1164 919 l 1394 979 m 1233 906 q 938 697 1081 824 q 686 435 821 594 l 860 433 q 1028 683 929 560 q 1233 906 1121 800 z "},"B":{"ha":1314,"x_min":36,"x_max":1399,"o":"m 651 656 q 659 599 656 629 q 663 554 663 568 q 589 332 663 419 q 378 239 511 239 q 220 303 281 239 q 160 469 160 368 q 406 838 160 685 q 851 972 622 972 q 1174 910 1019 972 q 1281 949 1249 939 q 1393 972 1340 968 l 1399 958 q 1300 939 1351 958 q 1211 889 1249 919 q 1292 813 1261 861 q 1322 707 1322 764 q 1267 574 1322 628 q 1040 474 1196 506 q 1209 411 1171 451 q 1247 300 1247 371 q 1132 64 1247 157 q 876 -24 1024 -24 q 765 4 811 -24 q 708 99 708 39 q 734 160 708 133 q 794 188 760 188 q 833 180 814 188 q 869 158 853 172 q 817 64 817 129 q 886 -3 817 -3 q 1051 97 983 -3 q 1113 290 1113 188 q 1063 419 1113 381 q 922 458 1014 458 l 925 475 q 1111 538 1033 475 q 1196 711 1196 606 q 1183 783 1196 749 q 1143 840 1171 817 q 896 507 1025 750 q 671 146 749 229 q 269 -24 513 -24 q 114 18 181 -24 q 36 151 36 67 q 58 222 36 196 q 124 249 81 249 q 173 230 153 249 q 193 181 193 211 q 180 140 193 158 q 144 115 167 121 l 144 90 q 189 15 144 39 q 281 -3 224 -3 q 565 179 429 -3 q 801 556 683 367 q 1101 872 953 792 q 978 931 1050 913 q 835 950 907 950 q 454 814 625 950 q 272 464 272 668 q 306 333 272 388 q 419 268 346 268 q 590 365 532 268 q 639 568 639 446 q 638 599 639 585 q 632 653 638 614 l 651 656 z "},"C":{"ha":893,"x_min":96,"x_max":1108,"o":"m 729 778 q 715 714 715 750 q 740 649 715 672 q 807 625 765 625 q 958 699 892 625 q 1024 858 1024 774 q 988 928 1024 906 q 903 950 953 950 q 451 699 672 950 q 238 221 238 456 q 278 68 238 126 q 415 -1 325 -1 q 627 94 535 -1 q 719 308 719 189 q 697 397 719 364 q 617 436 671 436 q 507 382 564 436 q 425 282 471 349 l 407 292 q 515 418 461 375 q 671 474 586 474 q 786 431 740 474 q 832 318 832 388 q 681 61 832 160 q 381 -25 549 -25 q 171 53 246 -25 q 96 265 96 131 q 375 751 96 521 q 904 972 643 972 q 1046 936 993 972 q 1108 810 1108 894 q 1022 651 1108 714 q 844 594 943 594 q 740 622 782 594 q 693 714 693 654 q 699 751 693 735 q 711 783 704 768 l 729 778 z "},"D":{"ha":1264,"x_min":42,"x_max":1354,"o":"m 1354 961 q 1218 924 1285 956 q 1099 846 1161 897 q 1197 704 1164 783 q 1231 533 1231 625 q 1019 119 1231 269 q 556 -15 831 -15 q 425 -1 510 -15 q 306 14 340 14 q 206 4 279 14 q 146 -1 164 -1 q 85 4 110 -1 q 42 38 42 14 q 60 60 42 53 q 94 67 78 67 q 174 57 128 67 q 307 35 279 35 q 535 215 403 35 q 774 581 654 397 q 1026 861 921 800 q 902 928 975 904 q 756 951 829 951 q 385 817 539 951 q 225 463 225 676 q 260 329 225 381 q 379 268 301 268 q 576 407 506 268 q 633 657 633 518 l 656 657 q 575 367 656 489 q 321 226 482 226 q 169 294 226 226 q 111 457 111 361 q 317 828 111 672 q 729 971 506 971 q 903 949 825 971 q 1060 878 981 928 q 1196 942 1124 918 q 1354 978 1268 965 l 1354 961 m 1068 818 q 857 510 967 711 q 676 226 743 301 q 347 28 553 89 q 442 10 390 15 q 553 6 493 6 q 957 204 786 6 q 1121 632 1121 394 q 1110 735 1121 689 q 1068 818 1099 782 z "},"E":{"ha":917,"x_min":68,"x_max":1013,"o":"m 667 656 l 700 647 l 732 644 q 753 643 746 643 q 869 690 828 643 q 911 818 911 738 q 877 915 911 879 q 783 950 843 950 q 618 810 657 950 q 539 588 564 614 q 324 454 538 586 q 211 222 211 385 q 290 60 211 121 q 467 4 363 4 q 649 65 576 4 q 726 239 726 131 q 697 325 726 293 q 614 357 668 357 q 526 331 571 357 q 454 271 490 308 l 440 281 q 547 358 489 329 q 669 388 606 388 q 794 346 743 388 q 844 231 844 304 q 674 29 844 100 q 389 -25 543 -25 q 172 25 257 -25 q 68 210 68 86 q 186 411 68 336 q 400 536 293 474 q 452 686 426 558 q 531 875 478 814 q 793 972 614 972 q 940 940 883 972 q 1013 817 1013 900 q 931 668 1013 721 q 760 622 860 622 q 665 639 711 622 l 667 656 z "},"F":{"ha":1065,"x_min":-24,"x_max":1499,"o":"m 656 435 l 656 457 l 724 456 q 907 703 804 611 q 1179 844 1022 807 q 1004 849 1121 844 q 829 853 888 853 q 582 836 700 853 q 304 758 406 811 q 171 578 171 689 q 244 465 171 506 q 385 432 306 432 q 619 507 538 432 q 700 735 700 582 l 722 735 l 724 694 q 622 462 724 558 q 381 365 519 365 q 222 415 289 365 q 149 558 149 471 q 322 811 149 714 q 693 924 458 888 q 1029 950 864 950 q 1291 942 1129 950 q 1482 918 1453 933 q 1492 894 1486 908 q 1499 879 1499 881 q 1465 838 1499 850 q 1376 825 1431 825 q 1300 828 1339 825 q 1232 835 1261 832 q 1008 697 1115 835 q 867 456 960 635 q 992 474 951 456 q 1049 531 1032 493 q 1139 534 1082 531 q 1206 538 1196 538 q 1029 390 1096 457 q 897 203 940 300 l 882 203 q 996 446 921 331 q 857 435 922 435 q 706 213 768 288 q 514 49 615 104 q 253 -15 397 -15 q 74 25 150 -15 q -24 168 -24 76 q -1 238 -24 208 q 63 267 22 267 q 113 248 93 267 q 133 199 133 229 q 120 158 133 175 q 83 139 107 142 q 138 36 83 72 q 254 6 183 6 q 456 78 363 6 q 601 246 528 133 q 714 435 608 256 l 656 435 z "},"G":{"ha":843,"x_min":8,"x_max":1143,"o":"m 658 353 q 532 267 599 299 q 393 236 465 236 q 255 290 306 236 q 204 432 204 343 q 311 693 204 572 q 540 869 393 785 q 529 929 535 899 q 638 1072 529 1038 l 638 1056 q 576 1015 600 1047 q 551 943 551 982 q 560 878 551 903 q 742 947 649 922 q 925 972 835 972 q 1065 951 1013 972 q 1143 846 1143 921 q 1043 718 1143 761 q 869 686 968 686 q 705 717 779 686 q 575 813 631 747 q 418 642 481 743 q 347 421 347 528 q 372 318 347 356 q 465 274 403 274 q 676 414 586 274 q 844 554 767 554 q 863 548 849 554 q 890 538 878 542 q 860 460 890 506 q 808 388 833 424 q 668 183 714 240 q 497 35 588 85 q 251 -24 390 -24 q 89 14 154 -24 q 8 147 8 60 q 31 228 8 193 q 97 263 53 263 q 147 243 128 263 q 167 192 167 224 q 153 156 167 171 q 119 136 140 142 l 114 99 q 163 14 115 38 q 265 -3 196 -3 q 500 122 390 -3 q 658 353 532 158 m 919 949 q 747 911 844 949 q 592 824 650 874 q 821 715 678 715 q 969 749 903 715 q 1054 864 1054 790 q 1010 935 1054 915 q 919 949 978 949 z "},"H":{"ha":1264,"x_min":-90,"x_max":1781,"o":"m 969 489 q 1239 808 1068 681 q 1625 950 1428 950 q 1722 932 1681 950 q 1781 858 1781 907 q 1764 821 1781 833 q 1722 808 1747 808 q 1638 883 1697 808 q 1575 919 1608 919 q 1297 772 1438 919 q 1089 453 1174 643 q 1004 132 1004 264 q 1017 67 1004 92 q 1071 32 1035 32 q 1256 168 1132 32 q 1414 364 1308 226 l 1431 351 q 1243 118 1258 133 q 997 -25 1107 -25 q 899 22 929 -25 q 869 140 869 68 q 896 308 869 219 q 958 467 917 381 l 764 467 q 525 132 654 249 q 151 -17 361 -17 q -4 21 65 -17 q -90 146 -90 67 q -68 223 -90 189 q -4 257 -46 257 q 43 238 24 257 q 63 190 63 218 q 51 145 63 163 q 13 128 40 128 q 46 36 13 68 q 139 4 79 4 q 457 194 322 4 q 703 593 579 393 q 1135 933 881 840 l 1101 933 q 790 910 944 933 q 447 807 572 876 q 285 574 285 717 q 317 485 285 522 q 399 447 349 447 q 533 505 483 447 q 582 644 582 563 q 569 722 582 685 l 589 726 q 610 643 610 689 q 526 471 610 536 q 339 410 449 410 q 217 457 265 410 q 168 578 168 504 q 400 847 168 749 q 882 953 578 924 q 1297 971 1067 971 q 1321 957 1322 971 q 1304 938 1321 943 q 1256 933 1288 933 q 1218 935 1240 933 q 1193 936 1196 936 q 946 761 1081 936 q 775 489 882 678 l 969 489 z "},"I":{"ha":817,"x_min":-75,"x_max":1374,"o":"m 586 703 q 608 619 608 663 q 528 453 608 517 q 349 394 454 394 q 215 444 268 394 q 161 572 161 493 q 401 858 161 758 q 903 960 586 935 q 1329 972 1064 972 l 1374 949 q 1340 931 1358 936 q 1303 925 1321 925 q 1255 928 1286 925 q 1215 932 1224 932 q 982 750 1122 932 q 735 382 933 688 q 515 99 588 156 q 362 13 443 43 q 194 -17 281 -17 q 19 18 90 -17 q -75 157 -75 64 q -51 226 -75 196 q 11 257 -28 257 q 62 238 42 257 q 82 189 82 219 q 26 124 82 132 q 68 32 26 63 q 168 6 104 6 q 482 199 342 6 q 740 597 611 397 q 1175 933 925 844 l 1161 933 q 824 917 963 933 q 453 817 586 888 q 279 561 279 724 q 313 467 279 503 q 404 432 347 432 q 533 489 478 432 q 589 619 589 546 q 583 660 589 640 q 568 699 578 679 l 586 703 z "},"J":{"ha":817,"x_min":-283,"x_max":1371,"o":"m 581 88 q 797 192 706 124 q 967 364 875 250 l 981 350 q 803 168 876 222 q 569 63 711 101 q 410 -161 485 -76 q 204 -332 311 -274 q -62 -400 81 -400 q -210 -364 -150 -400 q -283 -236 -283 -319 q -139 -58 -283 -122 q 164 15 -37 -12 q 425 53 419 51 q 619 403 522 228 q 839 717 736 610 q 1176 933 981 865 l 1157 935 q 826 917 969 935 q 460 817 593 888 q 288 569 288 726 q 318 468 288 504 q 414 432 349 432 q 543 485 496 432 q 590 617 590 539 q 576 694 590 658 l 596 700 q 614 617 614 663 q 538 457 614 519 q 363 394 463 394 q 226 444 283 394 q 169 572 169 494 q 411 847 169 747 q 913 954 596 924 q 1340 972 1103 972 l 1371 950 q 1348 931 1368 936 q 1301 925 1328 925 q 1260 926 1278 925 q 1228 929 1243 928 q 979 751 1118 929 q 750 386 883 628 q 581 88 604 121 m -25 -378 q 238 -232 113 -378 q 413 32 282 -181 q 192 -4 301 14 q -51 -76 31 -32 q -167 -243 -167 -139 q -127 -341 -167 -304 q -25 -378 -87 -378 z "},"K":{"ha":1214,"x_min":-79,"x_max":1783,"o":"m 597 722 q 615 674 610 694 q 621 629 621 653 q 536 471 621 535 q 358 411 457 411 q 230 459 281 411 q 179 585 179 507 q 414 849 179 751 q 903 953 596 924 q 1318 971 1093 971 q 1335 965 1322 971 q 1358 954 1347 958 l 1317 929 q 1251 933 1293 929 q 1200 936 1210 936 q 913 690 1064 936 q 622 232 651 268 q 164 -15 419 -15 q 1 21 65 -15 q -79 157 -79 67 q -57 226 -79 197 q 4 256 -35 256 q 54 236 33 256 q 75 186 75 217 q 22 129 75 136 q 57 35 22 65 q 157 6 92 6 q 465 200 326 6 q 724 603 594 401 q 1156 939 907 851 l 1115 939 q 803 917 949 939 q 460 813 588 883 q 299 576 299 722 q 329 483 299 519 q 414 447 360 447 q 544 506 489 447 q 600 639 600 564 q 595 674 600 658 q 579 715 590 690 l 597 722 m 1378 350 q 1183 117 1243 176 q 929 -25 1042 -25 q 851 9 881 -25 q 821 93 821 43 q 901 288 821 142 q 939 404 939 356 q 907 469 939 456 q 828 478 889 478 l 811 489 q 849 504 813 504 q 876 502 861 504 q 910 499 892 500 q 1124 617 1004 499 q 1346 839 1235 728 q 1642 958 1490 958 q 1736 936 1697 958 q 1783 857 1783 908 q 1744 776 1783 800 q 1646 753 1706 753 q 1668 815 1660 786 q 1676 872 1676 844 q 1617 936 1676 936 q 1467 819 1567 936 q 1253 603 1333 664 q 911 485 1096 485 q 994 415 967 456 q 1021 313 1021 375 q 996 208 1021 269 q 940 46 940 74 q 947 17 940 28 q 971 6 953 6 q 1185 150 1047 6 q 1364 364 1257 226 l 1378 350 z "},"L":{"ha":768,"x_min":-221,"x_max":1236,"o":"m 922 338 q 767 199 869 292 q 558 4 636 81 q 432 -136 449 -103 q 390 -217 411 -176 q 308 -258 360 -258 l 275 -242 q 299 -199 279 -228 q 313 -143 313 -178 q 243 -18 313 -58 q 94 14 188 14 q 3 -1 54 14 q -151 -37 -119 -37 q -199 -32 -176 -37 q -221 -8 -221 -26 q -154 28 -221 18 q 0 39 -87 39 q 38 38 21 39 q 67 38 54 38 q 250 146 154 38 q 406 378 321 225 q 514 586 460 482 q 342 678 385 629 q 300 794 300 726 q 344 908 300 867 q 461 950 389 950 q 536 933 504 950 l 529 918 q 460 928 490 928 q 360 892 397 928 q 322 793 322 856 q 389 665 322 717 q 526 607 443 622 q 750 863 608 763 q 1071 971 903 971 q 1181 947 1138 971 q 1236 854 1236 917 q 1003 629 1236 708 q 644 569 828 569 q 518 346 567 418 q 358 161 444 235 q 135 35 261 78 q 315 15 256 35 q 431 -108 418 -18 q 660 127 538 10 q 910 351 782 244 l 922 338 m 1050 950 q 818 819 938 950 q 654 590 757 753 q 958 651 828 590 q 1129 886 1129 732 q 1108 935 1129 919 q 1050 950 1086 950 z "},"M":{"ha":1339,"x_min":-187,"x_max":1797,"o":"m 610 71 q 947 410 743 158 q 1285 790 1186 703 q 1701 971 1490 971 l 1728 971 q 1769 966 1751 971 q 1797 944 1788 961 q 1731 924 1769 924 q 1690 928 1715 924 q 1643 939 1665 933 q 1404 676 1515 882 q 1207 301 1306 489 q 893 19 1072 90 q 1243 99 1115 19 q 1485 360 1353 167 l 1500 350 q 1264 90 1396 176 q 926 -3 1121 -3 q 874 -4 911 -3 q 832 -6 836 -6 q 759 -1 790 -6 q 713 17 728 4 l 743 38 q 798 30 761 38 q 846 22 835 22 q 1021 218 899 22 q 1274 618 1257 594 q 1592 938 1444 858 q 1199 681 1389 881 q 881 301 1039 490 q 499 -14 685 75 l 483 -1 q 683 311 599 114 q 833 635 799 581 q 1149 928 946 813 q 738 601 956 853 q 390 189 564 394 q 14 -15 193 -15 q -121 24 -62 -15 q -187 142 -187 68 q -165 215 -187 186 q -99 243 -143 243 q -55 226 -74 243 q -36 185 -36 208 q -53 136 -36 156 q -97 117 -69 117 q -60 39 -97 64 q 33 14 -22 14 q 396 233 206 14 q 769 671 586 453 q 1265 982 1011 925 l 1276 967 q 1018 735 1135 917 q 829 381 997 701 q 610 71 714 161 z "},"N":{"ha":1065,"x_min":-204,"x_max":1582,"o":"m 1411 693 q 1473 727 1449 700 q 1497 793 1497 754 q 1467 854 1497 833 q 1394 875 1438 875 q 1128 690 1269 875 q 904 303 1018 547 q 764 -32 850 186 l 742 -29 q 745 42 742 -3 q 749 97 749 88 q 726 304 749 190 q 679 536 703 418 q 656 740 656 654 q 501 429 578 585 q 283 124 393 231 q -18 -15 140 -15 q -148 33 -92 -15 q -204 156 -204 82 q -181 223 -204 194 q -119 251 -158 251 q -71 235 -92 251 q -50 192 -50 218 q -64 149 -50 167 q -103 126 -78 131 q 7 14 -103 14 q 372 261 197 14 q 618 722 471 400 q 771 972 732 972 l 788 958 q 767 847 767 899 q 789 610 767 746 q 840 213 840 296 q 978 500 922 397 q 1189 807 1082 693 q 1450 950 1322 950 q 1544 919 1506 950 q 1582 835 1582 889 q 1529 726 1582 771 q 1411 681 1476 681 l 1411 693 z "},"O":{"ha":992,"x_min":99,"x_max":1156,"o":"m 1156 351 q 1042 278 1101 304 q 918 251 983 251 q 811 269 861 251 q 606 68 711 142 q 336 -25 472 -25 q 159 40 219 -25 q 99 222 99 104 q 288 669 99 453 q 706 911 478 885 q 853 972 769 972 q 978 901 935 972 q 1014 754 1014 842 q 956 508 1014 643 q 826 286 906 394 q 877 275 849 278 q 933 272 906 272 q 1044 299 985 272 q 1143 365 1104 326 l 1156 351 m 688 886 q 364 622 499 846 q 242 211 242 418 q 265 75 242 125 q 375 6 299 6 q 597 101 482 6 q 756 293 694 182 q 624 425 672 340 q 575 607 575 510 q 604 758 575 685 q 688 886 633 831 m 804 744 q 811 797 811 772 q 785 865 811 843 q 711 888 758 888 q 651 777 669 842 q 633 639 633 713 q 660 457 633 535 q 767 314 693 357 q 862 535 825 413 q 899 767 899 657 q 881 875 899 833 q 796 935 854 935 q 732 910 757 935 q 806 878 779 910 q 832 797 832 846 q 829 766 832 781 q 825 743 826 751 l 804 744 z "},"P":{"ha":1092,"x_min":-74,"x_max":1342,"o":"m 1339 994 q 1189 946 1261 982 q 1299 860 1257 918 q 1342 729 1342 801 q 1239 544 1342 619 q 1031 476 1146 476 q 951 496 985 476 q 910 563 910 519 q 933 612 910 592 q 986 632 956 632 q 1049 613 1017 632 q 1011 585 1025 600 q 993 540 993 564 q 1035 497 993 497 q 1169 603 1108 497 q 1224 776 1224 696 q 1208 863 1224 825 q 1157 925 1193 901 q 897 615 1028 833 q 679 261 706 296 q 350 31 538 81 q 560 6 453 6 q 939 97 763 6 q 1232 354 1115 189 l 1246 346 q 992 76 1128 164 q 636 -24 838 -24 q 317 18 474 -24 q 203 -8 264 0 q 83 -17 143 -17 q -8 -6 35 -17 q -74 44 -74 11 q -49 75 -74 69 q 10 81 -24 81 q 115 67 53 81 q 292 36 251 36 q 521 229 385 36 q 782 625 651 426 q 1111 943 954 865 q 1039 958 1076 954 q 949 961 1001 961 q 510 819 721 961 q 275 444 275 663 q 297 346 275 385 q 382 296 326 296 q 547 407 490 296 q 594 615 594 499 l 615 615 l 619 546 q 531 344 619 432 q 328 257 442 257 q 207 312 251 257 q 163 444 163 367 q 307 724 163 592 q 629 913 432 838 q 951 982 811 982 q 1049 976 1000 982 q 1146 958 1099 971 q 1236 989 1190 976 q 1338 1011 1282 1001 l 1339 994 z "},"Q":{"ha":967,"x_min":-111,"x_max":1126,"o":"m 67 14 q 249 49 165 14 q 126 98 167 85 q 58 111 86 111 q -3 97 14 111 q -21 60 -21 83 q 11 21 -21 32 q 67 14 32 14 m 804 574 q 688 466 756 506 q 539 426 619 426 q 394 480 454 426 q 335 618 335 533 q 482 872 335 764 q 769 972 618 972 q 975 908 896 972 q 1054 718 1054 843 q 931 451 1054 588 q 654 232 829 339 q 378 92 521 150 q 644 56 510 56 q 836 100 750 56 q 983 214 910 138 q 1114 364 1000 231 l 1126 351 q 968 165 1028 228 q 782 19 874 68 q 546 -40 669 -40 q 403 -14 482 -40 q 268 40 358 1 q 152 1 214 15 q 32 -14 90 -14 q -54 -6 -24 -14 q -111 49 -111 10 q -21 117 -111 94 q 108 132 40 132 q 231 121 165 132 q 353 94 274 114 q 596 236 479 153 q 819 444 738 338 q 919 699 919 575 q 874 867 919 801 q 722 942 821 942 q 515 854 599 942 q 432 642 432 767 q 470 514 432 564 q 586 464 508 464 q 697 497 644 464 q 789 582 749 529 l 804 574 z "},"R":{"ha":1214,"x_min":-75,"x_max":1378,"o":"m 593 722 l 597 643 q 504 406 597 510 q 278 301 411 301 q 120 357 185 301 q 56 504 56 413 q 308 863 56 713 q 753 993 529 993 q 944 983 861 993 q 1107 944 1028 974 q 1192 971 1163 964 q 1281 982 1238 982 l 1281 967 q 1143 926 1203 956 q 1228 846 1194 894 q 1261 742 1261 797 q 1150 551 1261 624 q 928 489 1053 489 q 997 431 971 467 q 1022 349 1022 394 q 968 160 1022 303 q 942 44 942 90 l 969 6 q 1240 203 1071 6 q 1363 360 1303 275 l 1378 347 q 1261 192 1313 254 q 1107 43 1181 96 q 931 -24 1014 -24 q 851 5 882 -24 q 819 82 819 33 q 873 257 819 146 q 926 411 926 368 q 899 472 926 454 q 831 489 881 483 l 833 504 q 1044 567 961 504 q 1138 764 1138 636 q 1086 890 1138 843 q 808 539 951 792 q 567 160 638 238 q 161 -17 404 -17 q 4 25 72 -17 q -75 158 -75 74 q -54 225 -75 194 q 1 256 -33 256 q 52 239 31 256 q 74 193 74 222 q 60 149 74 167 q 21 131 47 131 q 59 37 21 68 q 161 6 97 6 q 467 206 321 6 q 718 608 592 407 q 1049 922 879 853 q 924 962 989 951 q 779 972 858 972 q 372 844 558 972 q 163 490 163 701 q 203 374 163 418 q 317 331 244 331 q 519 465 451 331 q 572 721 572 571 l 593 722 z "},"S":{"ha":743,"x_min":-82,"x_max":1106,"o":"m 32 374 q 83 356 60 374 q 106 311 106 339 q 80 255 106 278 q 21 232 54 232 q 10 158 10 194 q 88 33 10 76 q 240 -1 151 -1 q 515 250 454 -1 q 593 719 554 485 q 906 972 665 972 q 1039 942 986 972 q 1106 828 1106 903 q 1054 735 1106 765 q 946 710 1013 710 q 974 776 963 742 q 986 842 986 810 q 960 918 986 886 q 889 950 933 950 q 704 699 739 950 q 628 229 644 272 q 233 -24 531 -24 q 18 40 107 -24 q -82 236 -82 113 q -53 333 -82 292 q 32 374 -24 374 z "},"T":{"ha":1065,"x_min":54,"x_max":1576,"o":"m 796 735 q 801 658 801 700 q 685 444 801 533 q 447 363 576 363 q 293 414 354 363 q 226 561 226 469 q 401 807 226 710 q 774 922 540 883 q 1107 951 951 951 l 1163 951 q 1418 942 1324 951 q 1576 883 1576 925 q 1533 840 1576 853 q 1426 828 1490 828 q 1369 829 1400 828 q 1304 833 1338 831 q 1038 614 1171 833 q 782 206 811 240 q 336 -15 596 -15 q 154 24 232 -15 q 54 167 54 74 q 80 234 54 206 q 143 263 106 263 q 194 247 175 263 q 214 199 214 231 q 163 135 214 146 q 221 32 169 64 q 340 6 264 6 q 638 188 501 6 q 874 556 756 371 q 1226 842 1032 776 q 1136 851 1190 849 q 1032 854 1082 854 q 746 842 871 854 q 410 767 532 821 q 249 572 249 696 q 322 461 249 503 q 458 426 383 426 q 686 493 601 426 q 776 696 776 564 l 776 718 q 775 732 775 728 l 796 735 z "},"U":{"ha":1115,"x_min":119,"x_max":1325,"o":"m 756 260 q 568 79 661 147 q 329 -14 440 -14 q 233 86 233 -14 q 340 338 233 167 q 542 643 440 490 q 650 889 650 815 q 624 936 650 919 q 565 953 597 953 q 308 843 431 953 q 186 600 186 733 q 208 535 186 564 q 265 506 229 506 q 342 526 304 506 q 440 617 389 553 l 456 606 q 364 517 411 549 q 244 476 306 476 q 155 510 190 476 q 119 600 119 544 q 296 876 119 758 q 624 983 456 983 q 727 949 686 983 q 768 851 768 914 q 660 613 768 781 q 460 315 560 464 q 350 78 350 146 q 354 59 350 69 q 363 39 358 49 q 388 31 375 35 q 403 28 400 28 q 706 235 525 28 q 997 644 839 389 q 1169 936 1083 790 l 1325 942 q 1182 731 1253 836 q 938 344 1032 506 q 807 60 807 121 q 815 27 807 40 q 842 14 824 14 q 1068 153 921 14 q 1261 361 1158 238 l 1278 349 q 1072 124 1135 182 q 817 -15 922 -15 q 726 10 758 -15 q 694 92 694 35 q 713 179 694 135 q 756 260 726 215 z "},"V":{"ha":1015,"x_min":164,"x_max":1303,"o":"m 468 43 q 765 242 656 160 q 1040 500 939 372 q 1188 818 1167 658 q 1147 883 1147 835 q 1171 931 1147 911 q 1222 950 1194 950 q 1281 919 1260 950 q 1303 849 1303 888 q 1117 496 1303 688 q 718 182 976 351 q 350 -43 629 124 l 335 -32 q 468 285 407 78 q 574 617 549 558 q 775 893 649 796 q 572 835 575 836 q 351 733 428 788 q 247 568 247 660 q 268 495 247 522 q 333 468 289 468 q 432 528 399 468 q 460 647 460 576 l 483 646 q 443 501 483 557 q 310 439 397 439 q 205 474 246 439 q 164 572 164 510 q 311 763 164 681 q 619 876 415 821 q 886 950 876 947 l 896 936 q 729 700 804 882 q 608 347 722 683 q 468 43 536 133 z "},"W":{"ha":1339,"x_min":131,"x_max":1629,"o":"m 726 896 q 414 788 483 821 q 214 558 214 692 q 239 490 214 519 q 301 461 264 461 q 404 522 374 461 q 428 650 428 569 l 450 650 q 413 499 450 554 q 276 433 368 433 q 174 469 217 433 q 131 565 131 506 q 278 760 131 675 q 586 878 381 819 q 858 958 835 949 l 865 943 q 693 729 769 897 q 576 403 658 653 q 456 121 508 196 q 658 307 575 225 q 844 511 764 411 q 1017 771 949 675 q 1238 950 1143 950 l 1261 928 q 1156 808 1204 865 q 1082 696 1099 743 q 1015 476 1056 626 q 950 260 975 326 q 842 56 907 144 q 1126 246 990 140 q 1394 510 1297 379 q 1514 815 1514 671 q 1485 840 1497 824 q 1474 874 1474 856 q 1494 927 1474 904 q 1546 950 1514 950 q 1608 920 1588 950 q 1629 847 1629 890 q 1454 503 1629 701 q 1078 175 1306 333 q 721 -25 871 31 l 706 -15 q 860 347 792 108 q 926 576 918 553 q 751 376 879 513 q 488 115 611 226 q 294 -17 340 -17 l 272 4 q 424 261 367 76 q 521 597 472 429 q 726 896 593 793 z "},"X":{"ha":1165,"x_min":-32,"x_max":1560,"o":"m 646 263 q 426 64 556 143 q 149 -25 283 -25 q 32 -3 78 -25 q -32 90 -32 28 q -10 145 -32 122 q 44 168 11 168 q 92 151 74 168 q 111 106 111 133 q 104 84 111 100 q 92 56 97 68 q 122 17 100 29 q 174 6 143 6 q 471 140 321 6 q 698 444 607 263 q 789 768 789 625 q 754 890 789 844 q 640 943 714 943 q 417 821 511 943 q 328 574 328 707 q 360 457 328 504 q 463 401 397 401 q 567 440 518 401 q 678 599 626 489 l 693 594 q 585 435 651 494 q 407 364 506 364 q 288 419 332 364 q 244 553 244 474 q 382 842 244 711 q 679 972 519 972 q 863 893 810 972 q 906 690 906 829 q 1138 889 1013 817 q 1429 972 1282 972 q 1521 945 1482 972 q 1560 867 1560 918 q 1540 815 1560 832 q 1483 797 1519 797 q 1465 805 1481 797 q 1438 819 1449 813 l 1443 856 q 1419 915 1443 896 q 1353 933 1394 933 q 1067 801 1208 933 q 853 504 938 682 q 769 186 769 326 q 796 74 769 117 q 893 21 828 21 q 1129 146 1000 21 q 1313 361 1186 201 l 1325 349 q 1194 182 1261 254 q 1026 36 1107 85 q 826 -25 926 -25 q 681 40 726 -25 q 642 193 642 96 q 646 263 642 226 z "},"Y":{"ha":1042,"x_min":-128,"x_max":1336,"o":"m 781 265 q 585 78 690 153 q 335 -17 451 -17 q 267 8 293 -17 q 240 76 240 33 q 349 329 240 158 q 551 631 450 479 q 661 874 661 800 q 645 930 661 910 q 593 950 629 950 q 335 842 457 950 q 214 600 214 735 q 231 532 214 561 q 286 503 249 503 q 394 550 340 503 q 447 601 414 567 l 463 593 q 374 510 421 542 q 260 472 317 472 q 166 502 201 472 q 131 590 131 532 q 303 865 131 747 q 624 972 460 972 q 729 950 690 972 q 779 860 779 921 q 671 600 779 772 q 468 301 569 450 q 358 72 358 136 q 410 21 358 21 q 703 207 535 21 q 985 596 832 350 q 1181 931 986 597 l 1336 938 l 715 -43 q 471 -304 613 -204 q 135 -418 308 -418 q -42 -379 26 -418 q -128 -229 -128 -331 q -82 -121 -128 -168 q 26 -74 -36 -74 q 103 -84 65 -74 q 182 -115 142 -94 l 179 -131 q 138 -117 160 -124 q 99 -111 115 -111 q 19 -152 49 -111 q -11 -246 -11 -193 q 31 -355 -11 -312 q 140 -397 74 -397 q 401 -268 265 -397 q 622 10 503 -172 q 781 265 701 138 z "},"Z":{"ha":942,"x_min":21,"x_max":1181,"o":"m 1004 833 q 897 785 939 799 q 781 765 840 765 q 601 816 715 765 q 428 867 488 867 q 315 817 363 867 q 267 701 267 768 q 305 613 267 647 q 397 579 343 579 q 494 611 449 579 q 567 686 532 638 l 581 678 q 497 590 546 622 q 388 557 449 557 q 284 597 322 557 q 246 703 246 636 q 330 878 246 804 q 517 951 414 951 q 782 882 582 951 q 942 849 878 849 q 1080 910 1021 849 q 1151 972 1139 972 l 1181 944 q 1160 911 1178 926 q 1097 876 1153 906 q 822 664 1013 825 q 467 357 699 560 q 172 101 236 154 q 268 142 242 132 q 369 161 322 161 q 501 132 428 161 q 718 65 669 65 q 883 126 804 65 q 1088 357 913 149 l 1097 349 q 968 190 1029 257 q 800 40 878 92 q 614 -25 701 -25 q 424 37 540 -25 q 257 99 307 99 q 118 38 179 99 q 43 -24 57 -24 l 21 -7 q 268 215 21 4 q 735 610 501 415 q 1004 833 914 760 z "},"[":{"ha":519,"x_min":-290,"x_max":958,"o":"m 100 -376 l 72 -418 l -290 -418 l 606 958 l 958 958 l 931 915 l 690 915 l -140 -376 l 100 -376 z "},"\\":{"ha":296,"x_min":24,"x_max":453,"o":"m 453 344 q 268 124 378 229 q 32 -40 144 6 l 24 -25 q 254 140 126 17 q 442 360 365 247 l 453 344 z "},"]":{"ha":519,"x_min":-443,"x_max":806,"o":"m 415 915 l 443 958 l 806 958 l -90 -418 l -443 -418 l -415 -376 l -175 -376 l 656 915 l 415 915 z "},"^":{"ha":803,"x_min":117,"x_max":692,"o":"m 117 233 l 367 728 l 442 728 l 692 233 l 606 233 l 404 633 l 201 233 l 117 233 z "},"_":{"ha":668,"x_min":-4,"x_max":672,"o":"m -4 -171 l -4 -99 l 672 -99 l 672 -171 l -4 -171 z "},"`":{"ha":344,"x_min":103,"x_max":314,"o":"m 147 794 q 173 775 161 794 q 197 711 185 756 q 261 614 208 667 q 314 563 288 588 q 303 550 314 550 q 181 626 258 550 q 103 749 103 703 q 147 794 103 794 z "},"a":{"ha":694,"x_min":-7,"x_max":854,"o":"m 526 467 l 671 475 q 493 197 553 296 q 429 46 429 92 q 460 14 429 14 q 665 156 526 14 q 840 360 758 250 l 854 351 q 736 200 783 256 q 579 46 650 100 q 411 -25 486 -25 q 342 -2 369 -25 q 315 60 315 21 q 318 81 315 67 q 223 6 276 36 q 115 -24 169 -24 q 24 19 54 -24 q -7 125 -7 61 q 119 375 -7 254 q 375 496 246 496 q 494 417 461 496 l 526 467 m 192 26 q 361 176 267 26 q 451 401 451 319 q 438 456 451 438 q 388 475 424 475 q 213 339 303 475 q 128 119 128 211 q 144 46 128 65 q 192 26 161 26 z "},"b":{"ha":643,"x_min":-26,"x_max":801,"o":"m 613 938 q 451 703 532 819 q 207 331 285 460 q 82 61 82 124 q 96 17 82 35 q 136 -1 110 -1 q 326 138 224 -1 q 425 361 425 271 q 417 395 425 374 q 410 425 410 417 q 427 474 410 453 q 472 496 444 496 q 536 458 517 496 q 551 379 551 429 q 549 347 551 364 q 546 321 547 329 q 646 278 589 278 q 724 299 688 278 q 789 357 761 319 l 801 346 q 733 281 775 306 q 644 256 692 256 q 590 267 615 256 q 539 299 564 278 q 385 67 501 160 q 126 -25 269 -25 q 16 15 58 -25 q -26 122 -26 54 q 88 372 -26 179 q 310 719 169 511 q 454 931 382 825 l 613 938 z "},"c":{"ha":543,"x_min":0,"x_max":707,"o":"m 707 347 q 561 179 619 239 q 382 36 468 85 q 169 -24 276 -24 q 44 22 88 -24 q 0 149 0 67 q 139 392 0 281 q 404 497 271 497 q 492 478 453 497 q 542 408 542 453 q 508 328 542 361 q 426 296 474 296 l 392 299 q 413 365 401 329 q 425 428 425 401 q 415 461 425 447 q 388 475 406 475 q 211 356 294 475 q 133 146 133 244 q 165 60 133 94 q 249 26 196 26 q 418 83 331 26 q 567 215 483 126 q 690 354 628 285 l 707 347 z "},"d":{"ha":694,"x_min":-4,"x_max":969,"o":"m 321 85 q 226 13 279 40 q 115 -15 172 -15 q 26 24 56 -15 q -4 124 -4 63 q 119 378 -4 260 q 379 497 242 497 q 500 414 469 497 l 813 929 l 969 936 q 792 663 944 894 q 550 285 615 393 q 429 36 429 82 q 437 16 429 26 q 454 6 444 6 q 661 147 529 6 q 835 357 718 208 l 854 347 q 739 199 785 253 q 585 47 657 101 q 417 -24 492 -24 q 346 -1 374 -24 q 318 63 318 22 q 321 85 318 68 m 451 401 q 383 474 451 474 q 210 335 296 474 q 131 114 131 208 q 146 58 131 81 q 194 35 161 35 q 368 178 278 35 q 451 401 451 311 z "},"e":{"ha":543,"x_min":-6,"x_max":707,"o":"m 707 351 q 560 178 628 249 q 381 35 465 82 q 163 -24 275 -24 q 40 21 86 -24 q -6 142 -6 65 q 131 384 -6 271 q 397 497 267 497 q 485 477 447 497 q 522 410 522 457 q 365 264 522 326 q 135 200 275 228 l 128 153 q 160 61 128 96 q 249 26 192 26 q 418 86 328 26 q 574 221 496 138 q 693 365 617 267 l 707 351 m 374 475 q 231 378 310 475 q 139 219 164 296 q 307 297 224 238 q 407 443 407 369 q 374 475 407 475 z "},"f":{"ha":371,"x_min":-835,"x_max":867,"o":"m 306 446 q 96 68 200 257 q -179 -271 -42 -158 q -575 -418 -358 -418 q -746 -381 -676 -418 q -835 -240 -835 -333 q -767 -117 -835 -162 q -625 -78 -708 -78 l -574 -83 l -574 -100 q -676 -142 -635 -100 q -717 -247 -717 -185 q -673 -359 -717 -321 q -554 -397 -629 -397 q -257 -231 -410 -397 q -12 122 -146 -110 q 169 446 78 283 l 42 446 l 57 475 l 189 475 q 318 676 258 597 q 496 858 406 793 q 717 938 606 938 q 820 909 774 938 q 867 825 867 881 q 832 751 867 776 q 747 725 797 725 l 719 728 q 741 783 732 753 q 750 839 750 814 q 736 892 750 868 q 693 915 722 915 q 551 826 632 915 q 417 638 490 758 q 324 475 397 607 l 671 475 l 653 446 l 306 446 z "},"g":{"ha":694,"x_min":-465,"x_max":854,"o":"m 338 108 q 236 21 286 51 q 110 -17 174 -17 q 26 21 57 -17 q -4 114 -4 58 q 117 372 -4 247 q 371 497 238 497 q 453 478 421 497 q 499 414 485 460 l 526 467 l 671 475 q 574 308 622 392 q 480 143 526 225 q 381 -24 433 61 q 640 129 515 17 q 840 360 736 215 l 854 354 q 644 110 753 206 q 367 -49 514 -6 q 125 -315 268 -219 q -215 -419 -29 -419 q -383 -385 -319 -419 q -465 -244 -465 -340 q -409 -132 -465 -175 q -281 -89 -353 -89 q -237 -92 -256 -89 q -206 -96 -218 -94 l -206 -111 q -310 -148 -272 -111 q -349 -250 -349 -185 q -306 -356 -349 -312 q -200 -399 -262 -399 q 22 -307 -89 -399 q 201 -103 108 -236 q 338 108 206 -97 m 199 35 q 367 178 276 35 q 450 396 450 311 q 439 452 450 429 q 397 475 428 475 q 214 344 304 475 q 129 124 129 222 q 144 58 129 81 q 199 35 158 35 z "},"h":{"ha":643,"x_min":-118,"x_max":799,"o":"m 158 239 q 303 404 269 372 q 492 497 401 497 q 586 406 586 497 q 492 220 586 353 q 399 44 399 88 q 406 24 399 35 q 424 14 414 14 q 617 157 479 14 q 788 357 724 268 l 799 344 q 615 122 678 186 q 382 -17 479 -17 q 312 9 338 -17 q 286 79 286 35 q 380 266 286 150 q 474 422 474 382 q 443 458 474 458 q 292 364 385 458 q 135 168 221 292 q 28 1 65 68 l -118 -3 l 449 931 l 601 938 l 158 239 z "},"i":{"ha":344,"x_min":-25,"x_max":510,"o":"m 329 475 q 190 263 194 268 q 88 50 88 96 q 92 23 88 31 q 108 15 97 15 q 313 158 172 15 q 493 361 381 226 l 510 350 q 393 208 463 283 q 228 56 308 115 q 71 -17 132 -17 q 2 8 29 -17 q -25 72 -25 32 q 60 272 -25 129 q 185 468 63 276 l 329 475 m 469 708 q 447 657 469 679 q 394 635 425 635 q 342 652 364 635 q 321 700 321 669 q 346 753 321 731 q 403 775 371 775 q 449 756 428 775 q 469 708 469 736 z "},"j":{"ha":344,"x_min":-815,"x_max":500,"o":"m -554 -107 q -657 -143 -615 -107 q -699 -239 -699 -179 q -656 -353 -699 -310 q -542 -397 -614 -397 q -253 -224 -408 -397 q -1 144 -137 -94 q 172 472 10 164 l 317 481 q 222 312 269 396 q 126 144 175 228 q 29 -21 78 61 q 285 131 163 21 q 483 357 383 218 l 500 346 q 290 111 388 193 q 15 -49 176 15 q -226 -311 -94 -219 q -564 -418 -381 -418 q -731 -381 -662 -418 q -815 -243 -815 -333 q -754 -124 -815 -167 q -621 -86 -701 -86 q -590 -87 -601 -86 q -554 -93 -579 -89 l -554 -107 m 460 707 q 438 656 460 678 q 385 633 415 633 q 333 651 354 633 q 313 699 313 669 q 337 751 313 729 q 392 772 361 772 q 440 753 419 772 q 460 707 460 735 z "},"k":{"ha":643,"x_min":-117,"x_max":799,"o":"m 154 238 q 307 403 276 376 q 504 496 411 496 q 567 473 542 496 q 593 414 593 450 q 514 301 593 342 q 371 254 485 286 q 408 221 393 242 q 422 176 422 200 q 409 103 422 150 q 396 35 396 56 l 415 14 q 559 99 467 14 q 782 351 651 185 l 799 342 q 606 114 656 164 q 357 -25 467 -25 q 293 -3 317 -25 q 269 61 269 19 q 304 178 269 104 q 338 244 329 226 l 253 224 l 226 247 q 240 267 226 261 q 274 274 253 274 q 313 271 293 274 q 350 267 333 268 q 428 308 390 267 q 467 390 467 349 q 457 427 467 411 q 428 443 447 443 q 263 332 365 443 q 21 1 160 221 l -117 -3 l 451 936 l 606 944 q 458 708 532 826 q 308 472 396 608 q 154 238 226 343 z "},"l":{"ha":344,"x_min":-29,"x_max":615,"o":"m 615 940 q 465 711 540 825 q 215 315 289 439 q 85 49 85 94 q 111 14 85 14 q 314 154 179 14 q 488 358 397 242 l 504 353 q 389 203 442 264 q 233 53 307 108 q 65 -15 142 -15 q -4 4 21 -15 q -29 68 -29 24 q 94 343 -29 124 q 328 728 181 497 q 460 932 410 858 l 615 940 z "},"m":{"ha":967,"x_min":-129,"x_max":1125,"o":"m 160 258 q 296 413 267 386 q 476 496 388 496 q 542 474 514 496 q 569 414 569 451 q 535 307 569 368 q 499 251 522 286 l 499 253 q 633 407 578 356 q 810 496 731 496 q 878 470 849 496 q 908 406 908 444 q 813 217 908 339 q 718 46 718 94 q 729 21 718 33 q 743 13 736 14 q 992 208 818 13 q 1108 351 1058 283 l 1125 343 q 939 125 1007 193 q 708 -15 800 -15 q 635 11 664 -15 q 606 81 606 38 q 701 269 606 147 q 796 422 796 390 q 761 458 796 458 q 618 364 707 458 q 464 167 547 289 q 360 3 401 76 l 211 -3 q 353 208 282 103 q 457 419 457 372 q 447 448 457 436 q 421 460 436 460 q 256 343 360 460 q 13 3 157 233 l -129 -3 q -31 156 -100 43 q 68 315 60 301 q 163 478 99 367 l 326 486 l 160 258 z "},"n":{"ha":643,"x_min":-119,"x_max":806,"o":"m 151 235 q 299 401 258 364 q 489 496 400 496 q 555 472 528 496 q 582 408 582 447 q 490 219 582 343 q 397 47 397 94 q 429 14 397 14 q 546 86 468 14 q 688 236 607 142 q 788 357 699 250 l 806 349 q 692 207 749 278 q 543 56 608 108 q 388 -15 456 -15 q 313 9 342 -15 q 285 79 285 33 q 343 222 285 140 q 469 428 469 400 q 459 449 469 440 q 435 458 449 458 q 206 269 357 458 q 24 1 83 117 l -119 -3 l 169 475 l 329 481 l 151 232 l 151 235 z "},"o":{"ha":643,"x_min":1,"x_max":803,"o":"m 803 347 q 719 272 758 294 q 656 254 688 254 q 561 303 600 254 q 415 70 525 165 q 167 -25 304 -25 q 47 19 92 -25 q 1 136 1 63 q 131 389 1 276 q 399 496 254 496 q 557 385 515 496 q 654 275 599 275 q 717 293 685 275 q 792 363 749 311 l 803 347 m 449 408 q 436 459 449 442 q 392 476 424 476 q 206 315 300 476 q 119 67 119 168 q 132 17 119 35 q 176 0 144 0 q 363 161 268 0 q 449 408 449 308 z "},"p":{"ha":643,"x_min":-387,"x_max":808,"o":"m 486 153 q 658 232 571 167 q 796 367 732 286 l 808 354 q 660 211 740 268 q 469 129 569 149 q 339 28 392 60 q 183 -24 254 -24 q 135 -14 151 -24 q 111 29 111 0 q 213 110 111 81 q 360 135 263 124 q 424 248 400 189 q 447 369 447 307 q 438 419 447 400 q 394 446 424 446 q 183 251 325 446 q -64 -137 89 122 q -239 -432 -226 -414 l -387 -437 q -146 -47 -267 -242 q 94 343 3 193 q 332 736 171 468 l 485 743 l 179 279 q 303 421 265 388 q 471 496 386 496 q 550 463 519 496 q 581 381 581 429 q 556 260 581 318 q 486 153 532 201 m 203 7 q 282 46 238 7 q 344 114 306 67 q 240 93 269 101 q 167 33 167 71 q 177 13 167 19 q 203 7 188 7 z "},"q":{"ha":694,"x_min":-7,"x_max":853,"o":"m 186 35 q 364 181 271 35 q 450 408 450 317 q 438 458 450 440 q 394 475 425 475 q 214 346 306 475 q 128 129 128 224 q 140 63 128 90 q 186 35 151 35 m 326 101 q 231 19 279 49 q 110 -15 172 -15 q 22 24 51 -15 q -7 122 -7 63 q 115 375 -7 254 q 369 496 238 496 q 499 400 475 496 l 533 469 l 681 478 l 381 -21 q 639 132 514 19 q 840 360 733 217 l 853 349 q 643 110 736 192 q 367 -47 518 0 l 146 -432 l -7 -437 q 101 -257 47 -347 q 213 -76 140 -192 q 326 101 269 15 z "},"r":{"ha":519,"x_min":-117,"x_max":674,"o":"m 372 418 q 176 231 267 346 q 26 1 115 151 l -117 -3 l 167 475 l 326 481 l 164 253 q 333 421 261 369 q 553 496 439 496 q 496 400 500 410 q 482 333 482 368 q 536 278 482 278 q 608 306 571 278 q 665 360 631 322 l 674 349 q 583 270 636 300 q 471 240 529 240 q 385 272 418 240 q 353 354 353 303 q 372 418 353 388 z "},"s":{"ha":494,"x_min":-85,"x_max":651,"o":"m 638 357 l 651 346 q 507 165 556 218 q 335 29 422 75 q 110 -24 233 -24 q -24 7 26 -24 q -85 122 -85 44 q -58 209 -85 171 q 14 247 -32 247 q 63 231 43 247 q 82 188 82 215 q 65 143 82 158 q 24 128 49 128 q -4 132 11 128 q -18 81 -18 107 q 11 19 -18 42 q 82 -3 40 -3 q 171 28 132 -3 q 210 110 210 60 q 156 229 210 154 q 103 343 103 304 q 171 460 103 418 q 308 496 229 496 q 411 469 365 496 q 457 389 457 442 q 431 324 457 350 q 364 297 404 297 q 322 304 346 297 q 342 357 333 328 q 350 410 350 386 q 334 456 350 438 q 292 475 318 475 q 237 453 257 475 q 217 394 217 432 q 288 244 217 356 q 322 149 322 190 q 304 74 322 108 q 251 18 286 39 q 403 97 329 40 q 529 221 463 144 q 638 357 551 247 z "},"t":{"ha":371,"x_min":-29,"x_max":525,"o":"m 61 446 l 72 475 l 175 475 l 276 644 l 428 650 l 317 475 l 486 475 l 471 446 l 299 446 q 174 247 236 346 q 83 50 83 97 q 117 14 83 14 q 332 151 197 14 q 513 361 393 214 l 525 350 q 329 124 396 189 q 82 -15 186 -15 q 2 6 33 -15 q -29 75 -29 26 q 76 315 -29 144 q 160 446 118 381 l 61 446 z "},"u":{"ha":643,"x_min":-49,"x_max":807,"o":"m 299 144 q 185 35 231 68 q 39 -17 114 -17 q -24 9 0 -17 q -49 74 -49 35 q 69 333 -49 136 q 157 475 139 444 l 306 479 q 165 268 186 301 q 65 56 65 107 q 94 22 65 22 q 243 114 157 22 q 388 304 308 183 q 489 469 401 325 l 635 479 q 492 260 546 347 q 389 42 389 94 q 411 14 389 14 q 614 160 472 14 q 793 367 707 256 l 807 354 q 556 74 656 157 q 376 -15 450 -15 q 310 11 335 -15 q 285 78 285 38 q 299 144 285 115 z "},"v":{"ha":643,"x_min":-10,"x_max":804,"o":"m 328 481 q 225 338 276 408 q 93 63 93 146 q 150 6 93 6 q 344 146 249 6 q 433 381 433 276 q 428 406 433 388 q 422 432 422 424 q 440 478 422 460 q 488 496 458 496 q 544 456 526 496 q 558 374 558 425 q 556 340 558 357 q 553 315 554 322 q 654 278 599 278 q 731 303 693 278 q 789 360 760 322 l 804 350 q 740 282 782 308 q 651 256 699 256 q 598 265 624 256 q 547 292 572 275 q 399 74 517 164 q 147 -15 282 -15 q 36 15 76 -15 q -10 119 -10 50 q 88 350 -10 207 q 175 475 131 413 l 328 481 z "},"w":{"ha":942,"x_min":-36,"x_max":1101,"o":"m 307 151 q 206 36 256 76 q 65 -17 139 -17 q -9 17 18 -17 q -36 99 -36 50 q 38 294 -36 174 q 161 475 46 308 l 311 479 q 169 283 176 294 q 76 72 76 142 q 85 35 76 49 q 118 21 94 21 q 258 115 178 21 q 392 310 317 183 q 490 475 440 392 l 640 479 q 500 275 519 307 q 406 61 406 126 q 451 6 406 6 q 650 140 547 6 q 747 367 747 268 q 726 426 726 397 q 744 476 726 456 q 790 497 761 497 q 850 463 831 497 q 865 388 865 435 q 863 347 865 369 q 857 311 860 325 q 900 286 876 296 q 949 276 924 276 q 1028 303 989 276 q 1088 363 1058 324 l 1101 353 q 1038 285 1074 310 q 949 254 994 254 q 899 263 924 254 q 853 286 875 271 q 699 73 819 161 q 446 -15 578 -15 q 342 19 382 -15 q 301 111 301 54 q 303 133 301 121 q 307 151 306 144 z "},"x":{"ha":793,"x_min":-111,"x_max":949,"o":"m 949 347 q 811 183 868 243 q 638 39 722 90 q 436 -25 533 -25 q 342 5 379 -25 q 297 90 304 35 q 174 13 239 42 q 40 -15 108 -15 q -64 10 -25 -15 q -111 101 -111 40 q -89 165 -111 139 q -29 192 -67 192 q 16 173 -4 192 q 36 131 36 154 q 19 85 36 104 q -24 67 1 67 q -4 24 -24 42 q 43 6 15 6 q 257 140 150 6 q 358 379 358 268 q 343 433 358 413 q 294 454 328 454 q 211 417 253 454 q 150 343 185 393 l 135 353 q 222 450 181 418 q 343 496 279 496 q 431 465 394 496 q 479 385 468 435 q 582 460 533 435 q 704 492 643 492 q 792 472 757 492 q 836 399 836 447 q 804 336 836 360 q 732 313 772 313 l 701 317 q 713 365 708 342 q 718 411 718 389 q 709 453 718 436 q 675 469 700 469 q 501 343 586 469 q 424 131 424 226 q 451 58 424 83 q 526 33 479 33 q 678 93 592 33 q 825 225 746 140 q 936 357 881 285 l 949 347 z "},"y":{"ha":643,"x_min":-506,"x_max":804,"o":"m 319 171 q 199 47 251 89 q 40 -17 117 -17 q -44 72 -44 -17 q 71 333 -44 147 q 161 475 115 404 l 308 481 q 169 268 175 278 q 68 56 68 104 l 100 22 q 246 115 158 22 q 392 308 314 188 q 489 475 456 407 l 628 481 q 535 315 582 397 q 442 150 489 232 q 346 -14 385 51 q 517 74 431 10 q 665 213 585 124 q 789 364 726 279 l 804 351 q 599 117 711 215 q 331 -36 467 1 q 90 -307 233 -207 q -251 -419 -69 -419 q -422 -382 -356 -419 q -506 -239 -506 -335 q -431 -117 -506 -156 q -281 -86 -372 -86 q -260 -87 -269 -86 q -243 -92 -251 -89 l -243 -108 l -278 -107 q -359 -150 -329 -107 q -389 -249 -389 -193 q -346 -354 -389 -311 q -239 -397 -303 -397 q -1 -294 -118 -397 q 183 -65 89 -214 q 319 171 192 -53 z "},"z":{"ha":643,"x_min":-33,"x_max":799,"o":"m 493 365 q 446 360 472 360 q 367 372 414 360 q 236 400 263 400 q 185 381 208 400 q 149 338 168 367 l 133 347 q 244 467 196 436 q 342 497 292 497 q 458 469 382 497 q 575 442 535 442 q 628 473 604 442 q 667 504 653 504 l 688 483 q 567 388 686 474 q 333 225 471 318 q 178 121 196 132 l 179 124 l 219 126 q 325 93 257 126 q 431 60 393 60 q 671 222 525 60 q 783 357 679 231 l 799 346 q 672 193 726 253 q 508 43 583 94 q 329 -24 413 -24 q 189 28 294 -24 q 101 53 138 53 q 54 35 78 53 q -17 -17 -8 -15 l -31 -10 l -33 1 q 88 88 -33 4 q 333 257 208 172 q 493 365 471 351 z "},"{":{"ha":519,"x_min":-190,"x_max":838,"o":"m -49 -418 q -137 -407 -106 -418 q -190 -342 -190 -389 q -114 -161 -190 -282 q 28 47 -43 -57 q 106 208 106 164 q 86 253 106 233 q 61 269 76 263 q 319 500 206 317 q 510 806 508 804 q 838 958 639 958 l 822 933 q 593 757 699 913 q 417 467 504 611 q 174 268 304 301 q 206 247 193 261 q 218 215 218 233 q 140 39 218 160 q -4 -174 68 -67 q -82 -346 -82 -293 q -69 -378 -82 -367 q -33 -396 -56 -390 l -49 -418 z "},"|":{"ha":296,"x_min":125,"x_max":203,"o":"m 125 972 l 203 972 l 203 -3 l 125 -3 l 125 972 z "},"}":{"ha":519,"x_min":-322,"x_max":706,"o":"m 564 958 q 653 947 622 958 q 706 882 706 928 q 629 701 706 822 q 488 492 558 596 q 410 331 410 375 q 429 286 410 304 q 456 269 439 276 q 200 44 311 226 q 11 -264 13 -262 q -322 -419 -118 -419 l -306 -396 q -69 -211 -174 -365 q 100 74 15 -68 q 342 271 207 232 q 297 325 297 283 q 375 501 297 381 q 519 713 447 607 q 597 885 597 831 q 584 917 597 906 q 549 935 571 929 l 564 958 z "},"~":{"ha":803,"x_min":78,"x_max":704,"o":"m 704 268 q 633 181 676 214 q 533 149 590 149 q 421 176 483 149 q 247 240 279 240 q 176 207 208 240 q 129 142 164 194 l 78 206 q 146 289 106 258 q 249 324 192 324 q 401 278 303 324 q 535 232 500 232 q 604 265 572 232 q 651 331 618 279 l 704 268 z "},"":{"ha":735,"x_min":17,"x_max":726,"o":"m 607 700 l 507 518 l 726 518 l 726 439 l 463 440 l 361 258 l 726 258 l 726 181 l 318 181 l 197 -37 l 126 3 l 225 181 l 17 181 l 17 258 l 269 258 l 369 440 l 17 440 l 17 518 l 414 518 l 538 740 l 607 700 z "},"":{"ha":954,"x_min":31,"x_max":925,"o":"m 732 544 q 865 494 804 544 q 925 375 925 444 q 869 226 925 286 q 724 165 813 165 q 589 211 658 165 q 476 307 550 238 q 335 193 397 225 q 231 165 282 165 q 87 226 143 165 q 31 374 31 286 q 93 495 31 446 q 231 544 156 544 q 364 496 293 544 q 478 401 392 476 q 593 497 565 478 q 732 544 664 544 m 222 469 q 140 433 175 469 q 104 347 104 396 q 141 266 104 299 q 228 233 178 233 q 340 274 282 233 q 431 354 372 296 q 310 444 360 418 q 222 469 261 469 m 731 233 q 817 268 781 233 q 853 351 853 303 q 817 434 853 399 q 736 469 782 469 q 650 447 692 469 q 528 353 631 438 q 618 272 603 283 q 731 233 672 233 z "},"":{"ha":296,"x_min":-131,"x_max":182,"o":"m -131 -164 q 21 -114 -36 -149 q 113 13 96 -68 l 85 8 q 44 24 60 8 q 29 67 29 40 q 47 119 29 100 q 96 138 64 138 q 158 111 135 138 q 182 46 182 85 q 71 -118 182 -54 q -131 -183 -11 -165 l -131 -164 z "},"":{"ha":718,"x_min":-174,"x_max":864,"o":"m 131 435 l 142 464 l 347 465 q 424 658 379 568 q 553 858 486 786 q 728 950 639 950 q 822 924 781 950 q 864 846 864 897 q 824 768 864 794 q 733 746 789 746 q 748 787 742 765 q 754 842 754 808 q 743 892 754 871 q 701 921 728 921 q 560 724 642 921 q 468 464 525 640 l 675 464 l 664 435 l 460 435 q 364 138 401 240 q 199 -201 283 -79 q -35 -362 86 -362 q -126 -336 -85 -362 q -174 -258 -174 -306 q -131 -174 -174 -199 q -32 -154 -96 -154 q -49 -201 -43 -176 q -56 -254 -56 -226 q -44 -308 -56 -283 q -4 -333 -32 -333 q 126 -161 47 -333 q 256 183 182 -39 q 335 435 294 308 l 131 435 z "},"":{"ha":519,"x_min":-131,"x_max":411,"o":"m 99 -164 q 251 -115 197 -149 q 342 14 324 -71 q 315 8 325 8 q 258 67 258 8 q 276 118 258 99 q 326 138 294 138 q 388 111 364 138 q 411 46 411 85 q 300 -118 411 -54 q 99 -183 218 -165 l 99 -164 m -131 -165 q 21 -115 -36 -150 q 113 11 96 -69 l 85 7 q 44 23 60 7 q 29 65 29 39 q 47 117 29 99 q 96 136 64 136 q 158 110 135 136 q 182 44 182 83 q 71 -119 182 -56 q -131 -185 -11 -167 l -131 -165 z "},"":{"ha":1339,"x_min":25,"x_max":1076,"o":"m 107 144 q 160 122 139 144 q 181 68 181 100 q 158 13 181 36 q 103 -11 136 -11 q 48 13 71 -11 q 25 71 25 38 q 49 123 25 101 q 107 144 74 144 m 556 146 q 608 124 588 146 q 629 69 629 101 q 607 14 629 38 q 551 -10 585 -10 q 497 15 519 -10 q 474 72 474 39 q 498 124 474 103 q 556 146 522 146 m 1004 147 q 1056 125 1035 147 q 1076 71 1076 103 q 1054 15 1076 39 q 1000 -8 1032 -8 q 945 16 968 -8 q 922 74 922 40 q 947 126 922 104 q 1004 147 971 147 z "},"":{"ha":668,"x_min":40,"x_max":861,"o":"m 229 682 l 475 681 q 569 867 522 774 q 714 1017 657 1017 q 731 1013 721 1017 q 756 1001 740 1008 q 767 982 761 994 q 772 967 774 969 q 681 782 772 921 q 613 682 646 732 l 861 682 l 829 631 l 579 632 l 118 -92 l 40 -92 l 444 632 l 200 632 l 229 682 z "},"":{"ha":668,"x_min":40,"x_max":861,"o":"m 861 682 l 829 631 l 579 632 l 464 451 l 711 451 l 683 400 l 431 400 l 118 -92 l 40 -92 l 315 400 l 49 400 l 81 451 l 343 451 l 444 632 l 200 632 l 229 682 l 475 681 q 569 867 522 774 q 714 1017 657 1017 q 731 1013 721 1017 q 756 1001 740 1008 q 767 982 761 994 q 772 967 774 969 q 681 782 772 921 q 613 682 646 732 l 861 682 z "},"":{"ha":344,"x_min":111,"x_max":464,"o":"m 353 794 q 401 676 367 740 q 440 608 428 631 l 464 569 q 450 556 464 556 q 385 614 438 556 q 322 688 353 650 q 194 594 250 629 q 118 560 139 560 l 111 572 q 169 631 129 599 q 233 683 225 675 q 271 724 249 697 q 325 794 293 750 l 353 794 z "},"":{"ha":1514,"x_min":65,"x_max":1494,"o":"m 150 397 q 203 340 150 340 q 360 465 281 340 q 432 664 432 581 q 379 722 432 722 q 221 599 299 722 q 150 397 150 486 m 515 639 l 518 619 q 422 409 518 500 q 203 318 325 318 q 101 356 138 318 q 65 460 65 393 q 163 658 65 572 q 374 744 260 744 q 513 676 454 744 q 601 607 572 607 q 703 656 653 607 q 806 758 753 706 q 825 749 813 758 q 838 732 838 739 q 692 528 838 713 q 403 174 590 400 q 203 -65 275 19 l 185 -54 l 690 618 q 645 594 668 604 q 601 585 622 585 q 556 599 576 585 q 515 639 536 614 m 1494 283 q 1398 72 1494 163 q 1179 -19 1301 -19 q 1078 19 1114 -19 q 1042 124 1042 58 q 1138 322 1042 238 q 1350 407 1235 407 q 1452 374 1410 407 q 1494 283 1494 342 m 1128 58 q 1179 1 1128 1 q 1336 126 1257 1 q 1408 325 1408 242 q 1357 383 1408 383 q 1199 260 1276 383 q 1128 58 1128 147 m 1000 283 q 903 72 1000 164 q 683 -19 806 -19 q 582 19 618 -19 q 546 125 546 58 q 643 322 546 238 q 856 407 740 407 q 958 374 915 407 q 1000 283 1000 342 m 632 58 q 685 0 632 0 q 843 124 765 0 q 914 325 914 238 q 863 383 914 383 q 704 260 782 383 q 632 58 632 144 z "},"":{"ha":743,"x_min":-82,"x_max":1128,"o":"m 32 374 q 83 356 60 374 q 106 311 106 339 q 80 255 106 278 q 21 232 54 232 q 10 158 10 194 q 88 33 10 76 q 240 -1 151 -1 q 515 250 454 -1 q 593 719 554 485 q 906 972 665 972 q 1039 942 986 972 q 1106 828 1106 903 q 1054 735 1106 765 q 946 710 1013 710 q 974 776 963 742 q 986 842 986 810 q 960 918 986 886 q 889 950 933 950 q 704 699 739 950 q 628 229 644 272 q 233 -24 531 -24 q 18 40 107 -24 q -82 236 -82 113 q -53 333 -82 292 q 32 374 -24 374 m 886 1000 q 853 1097 878 1047 q 799 1188 839 1125 l 775 1225 q 790 1238 775 1240 q 875 1160 808 1238 q 918 1107 896 1133 q 1015 1181 1014 1181 q 1119 1235 1085 1229 l 1128 1222 q 1091 1185 1115 1204 q 1044 1149 1067 1165 q 976 1081 1008 1118 q 914 1000 944 1044 l 886 1000 z "},"":{"ha":419,"x_min":85,"x_max":417,"o":"m 85 232 l 404 463 l 417 449 l 207 229 l 289 21 l 274 10 l 85 232 z "},"":{"ha":1339,"x_min":83,"x_max":1447,"o":"m 758 735 q 740 833 758 803 q 650 875 715 875 q 346 633 488 875 q 218 239 218 415 q 263 58 218 111 q 368 14 300 14 q 453 32 411 14 q 536 81 496 50 q 490 208 490 143 q 593 406 490 338 q 785 507 689 456 q 889 713 889 578 q 831 899 889 825 q 656 979 767 979 q 479 933 564 979 q 335 818 404 893 l 322 826 q 485 958 397 913 q 688 1010 581 1010 q 846 965 778 1010 q 944 838 914 921 q 1229 971 1056 971 q 1375 940 1319 971 q 1447 818 1447 901 q 1365 671 1447 724 q 1194 625 1294 625 q 1148 629 1174 625 q 1100 640 1122 633 l 1101 658 l 1135 650 l 1167 647 q 1188 646 1181 646 q 1303 693 1260 646 q 1346 819 1346 740 q 1313 915 1346 881 q 1217 950 1279 950 q 1090 894 1138 950 q 1036 779 1056 856 q 1000 653 1008 672 q 849 372 933 497 q 644 131 764 247 q 872 6 722 6 q 1060 61 979 6 q 1150 228 1150 124 q 1117 318 1150 279 q 1033 357 1083 357 q 925 314 985 357 q 868 269 914 306 l 858 278 q 964 357 914 331 q 1092 388 1022 388 q 1212 345 1165 388 q 1258 229 1258 303 q 1090 32 1258 103 q 811 -24 958 -24 q 667 -3 731 -24 q 547 67 604 18 q 428 5 490 26 q 299 -17 367 -17 q 135 61 192 -17 q 83 243 83 131 q 263 664 83 443 q 646 896 451 896 q 754 853 725 896 q 779 735 779 817 l 758 735 m 636 154 q 770 325 715 235 q 861 526 825 415 q 697 415 747 467 q 624 238 624 340 q 626 192 624 208 q 636 154 628 175 z "},"":{"ha":735,"x_min":11,"x_max":710,"o":"m 710 497 q 628 416 679 444 q 514 388 576 388 q 358 425 461 388 q 200 463 256 463 q 128 438 163 463 q 76 381 100 418 l 13 419 q 102 498 51 468 q 211 528 153 528 q 325 507 260 528 q 514 460 471 460 q 656 532 604 460 l 710 497 m 708 294 q 626 214 678 242 q 511 186 574 186 q 394 208 460 186 q 200 260 242 260 q 128 236 161 260 q 75 178 100 217 l 11 217 q 101 296 49 265 q 210 326 153 326 q 397 279 253 326 q 513 257 465 257 q 654 329 603 257 l 708 294 z "},"":{"ha":818,"x_min":3,"x_max":818,"o":"m 818 -3 l 3 -3 l 436 931 l 818 -3 m 100 68 l 644 68 l 388 688 l 100 68 z "},"":{"ha":660,"x_min":19,"x_max":626,"o":"m 282 -3 l 19 506 l 282 1003 l 365 1003 l 626 506 l 365 -3 l 282 -3 m 324 921 l 107 506 l 324 78 l 540 506 l 324 921 z "},"":{"ha":974,"x_min":0,"x_max":0,"o":""},"":{"ha":296,"x_min":165,"x_max":476,"o":"m 476 800 q 325 750 381 783 q 235 622 251 704 q 261 628 251 628 q 318 569 318 628 q 300 518 318 538 q 250 499 282 499 q 188 524 211 499 q 165 590 165 550 q 275 754 165 692 q 476 819 351 797 l 476 800 z "},"":{"ha":296,"x_min":146,"x_max":457,"o":"m 146 521 q 299 571 238 533 q 389 697 375 618 l 361 693 q 321 708 336 693 q 306 750 306 724 q 323 802 306 783 q 372 821 340 821 q 433 794 410 821 q 457 731 457 768 q 347 567 457 631 q 146 501 267 519 l 146 521 z "},"":{"ha":519,"x_min":178,"x_max":714,"o":"m 490 800 q 338 751 390 783 q 247 622 264 707 q 275 628 264 628 q 315 611 299 628 q 332 569 332 594 q 313 519 332 539 q 264 499 294 499 q 201 525 225 499 q 178 592 178 551 q 288 756 178 692 q 490 819 372 804 l 490 800 m 714 800 q 561 751 614 783 q 472 622 489 707 q 499 628 489 628 q 539 611 522 628 q 556 569 556 594 q 537 519 556 539 q 488 499 518 499 q 425 525 447 499 q 403 592 403 551 q 513 756 403 692 q 714 819 597 804 l 714 800 z "},"":{"ha":519,"x_min":146,"x_max":682,"o":"m 371 521 q 522 571 461 533 q 613 697 599 618 l 586 693 q 544 708 560 693 q 529 750 529 724 q 547 801 529 782 q 597 821 565 821 q 658 794 635 821 q 682 731 682 768 q 572 567 682 631 q 371 501 492 519 l 371 521 m 146 521 q 299 571 238 533 q 389 697 375 618 l 361 693 q 321 708 336 693 q 306 750 306 724 q 323 802 306 783 q 372 821 340 821 q 433 794 410 821 q 457 731 457 768 q 347 567 457 631 q 146 501 267 519 l 146 521 z "},"":{"ha":668,"x_min":151,"x_max":629,"o":"m 390 711 q 558 640 486 711 q 629 472 629 568 q 559 303 629 374 q 390 233 489 233 q 221 303 290 233 q 151 472 151 372 q 222 641 151 571 q 390 711 292 711 z "},"":{"ha":668,"x_min":-79,"x_max":657,"o":"m 657 278 l 599 194 l -79 194 l -21 278 l 657 278 z "},"":{"ha":1339,"x_min":-79,"x_max":1328,"o":"m 1328 278 l 1269 194 l -79 194 l -21 278 l 1328 278 z "},"":{"ha":344,"x_min":115,"x_max":525,"o":"m 115 607 q 151 699 119 657 q 229 742 182 742 q 304 725 261 742 q 417 689 399 689 q 467 703 451 689 q 499 754 483 718 l 525 754 q 488 664 517 703 q 406 619 453 619 q 288 654 376 619 q 214 671 244 671 q 169 654 186 671 q 139 607 151 638 l 115 607 z "},"":{"ha":1326,"x_min":74,"x_max":1317,"o":"m 354 500 q 367 453 354 461 q 421 440 372 449 l 421 406 l 196 406 l 196 439 q 250 449 222 443 q 263 499 263 456 l 263 913 l 196 913 q 138 891 157 913 q 108 826 119 869 l 74 826 l 74 950 l 543 950 l 543 826 l 508 826 q 481 888 499 867 q 419 913 458 913 l 354 913 l 354 500 m 729 807 l 726 524 q 740 464 726 482 q 796 440 754 446 l 796 406 l 615 406 l 617 440 q 670 460 654 440 q 686 519 686 481 l 685 856 q 653 898 685 881 q 594 915 621 915 l 594 950 l 753 950 l 963 531 l 1181 950 l 1317 950 l 1317 915 q 1242 842 1242 915 l 1242 486 q 1269 444 1242 450 q 1307 440 1294 442 l 1307 406 l 1083 406 l 1083 439 q 1142 455 1135 449 q 1150 513 1150 461 l 1150 811 l 943 401 l 928 401 l 729 807 z "},"":{"ha":494,"x_min":-85,"x_max":651,"o":"m 638 357 l 651 346 q 507 165 556 218 q 335 29 422 75 q 110 -24 233 -24 q -24 7 26 -24 q -85 122 -85 44 q -58 209 -85 171 q 14 247 -32 247 q 63 231 43 247 q 82 188 82 215 q 65 143 82 158 q 24 128 49 128 q -4 132 11 128 q -18 81 -18 107 q 11 19 -18 42 q 82 -3 40 -3 q 171 28 132 -3 q 210 110 210 60 q 156 229 210 154 q 103 343 103 304 q 171 460 103 418 q 308 496 229 496 q 411 469 365 496 q 457 389 457 442 q 431 324 457 350 q 364 297 404 297 q 322 304 346 297 q 342 357 333 328 q 350 410 350 386 q 334 456 350 438 q 292 475 318 475 q 237 453 257 475 q 217 394 217 432 q 288 244 217 356 q 322 149 322 190 q 304 74 322 108 q 251 18 286 39 q 403 97 329 40 q 529 221 463 144 q 638 357 551 247 m 339 556 q 304 654 331 603 q 250 746 290 682 l 228 781 q 242 794 228 794 q 310 735 267 782 q 369 663 340 701 q 499 754 454 726 q 572 790 551 788 l 579 776 q 561 757 572 767 q 539 739 557 753 q 367 556 433 654 l 339 556 z "},"":{"ha":419,"x_min":31,"x_max":363,"o":"m 249 240 l 167 451 l 183 463 l 363 240 l 46 10 l 31 25 l 249 240 z "},"":{"ha":917,"x_min":-10,"x_max":1076,"o":"m 379 475 q 193 314 288 475 q 107 65 107 167 q 119 15 107 32 q 164 -3 132 -3 q 350 158 256 -3 q 436 407 436 306 q 424 458 436 440 q 379 475 411 475 m 1076 351 q 931 178 999 249 q 751 35 839 83 q 533 -25 644 -25 q 446 -5 485 -25 q 385 58 407 15 q 273 -3 332 19 q 154 -25 214 -25 q 35 19 81 -25 q -10 138 -10 63 q 117 387 -10 278 q 388 496 244 496 q 483 478 446 496 q 539 413 521 461 q 649 472 594 451 q 772 497 713 497 q 853 479 822 497 q 892 410 892 456 q 799 293 892 343 q 504 201 707 243 q 499 153 501 176 q 531 61 499 96 q 618 26 563 26 q 788 86 696 26 q 943 221 864 136 q 1064 365 993 274 l 1076 351 m 746 475 q 601 379 679 475 q 510 219 536 299 q 679 297 596 238 q 779 443 779 368 q 746 475 779 475 z "},"":{"ha":1042,"x_min":-128,"x_max":1336,"o":"m 781 265 q 585 78 690 153 q 335 -17 451 -17 q 267 8 293 -17 q 240 76 240 33 q 349 329 240 158 q 551 631 450 479 q 661 874 661 800 q 645 930 661 910 q 593 950 629 950 q 335 842 457 950 q 214 600 214 735 q 231 532 214 561 q 286 503 249 503 q 394 550 340 503 q 447 601 414 567 l 463 593 q 374 510 421 542 q 260 472 317 472 q 166 502 201 472 q 131 590 131 532 q 303 865 131 747 q 624 972 460 972 q 729 950 690 972 q 779 860 779 921 q 671 600 779 772 q 468 301 569 450 q 358 72 358 136 q 410 21 358 21 q 703 207 535 21 q 985 596 832 350 q 1181 931 986 597 l 1336 938 l 715 -43 q 471 -304 613 -204 q 135 -418 308 -418 q -42 -379 26 -418 q -128 -229 -128 -331 q -82 -121 -128 -168 q 26 -74 -36 -74 q 103 -84 65 -74 q 182 -115 142 -94 l 179 -131 q 138 -117 160 -124 q 99 -111 115 -111 q 19 -152 49 -111 q -11 -246 -11 -193 q 31 -355 -11 -312 q 140 -397 74 -397 q 401 -268 265 -397 q 622 10 503 -172 q 781 265 701 138 m 1189 1125 q 1169 1081 1189 1100 q 1124 1061 1150 1061 q 1080 1083 1097 1061 q 1063 1132 1063 1104 q 1082 1176 1063 1157 q 1126 1196 1101 1196 q 1172 1176 1154 1196 q 1189 1125 1189 1156 m 947 1125 q 927 1080 947 1099 q 881 1061 907 1061 q 837 1082 853 1061 q 821 1132 821 1103 q 840 1178 821 1160 q 888 1196 860 1196 q 931 1175 915 1196 q 947 1125 947 1154 z "},"":{"ha":374,"x_min":0,"x_max":0,"o":""},"":{"ha":494,"x_min":-68,"x_max":447,"o":"m 313 318 q 243 194 274 250 q 179 67 207 128 q 65 -201 122 -67 q 36 -235 49 -225 q -6 -250 17 -250 q -49 -230 -31 -250 q -68 -185 -68 -210 q -62 -150 -68 -167 q -43 -112 -56 -133 q 65 29 -1 -49 q 186 168 125 99 q 299 324 258 254 l 313 318 m 292 418 q 314 474 292 450 q 369 497 336 497 q 424 474 400 497 q 447 418 447 450 q 425 364 447 386 q 369 342 403 342 q 314 364 336 342 q 292 418 292 386 z "},"":{"ha":718,"x_min":74,"x_max":621,"o":"m 454 508 q 288 393 365 508 q 215 192 215 286 q 221 148 215 168 q 240 110 226 128 l 454 508 m 506 536 q 585 511 550 536 q 621 442 621 486 q 568 354 621 382 q 463 332 526 332 q 490 397 488 389 q 504 465 504 435 q 486 504 504 490 l 264 88 q 332 69 294 69 q 447 97 389 69 q 547 164 494 119 l 557 150 q 224 14 421 14 l 136 -153 l 107 -139 l 192 17 q 106 77 139 29 q 74 183 74 125 q 207 426 74 314 q 472 538 340 538 l 544 674 l 571 663 l 506 536 z "},"":{"ha":1115,"x_min":-76,"x_max":1340,"o":"m 1240 890 q 1222 958 1240 931 q 1165 986 1204 986 q 932 799 1050 986 q 847 636 889 731 l 901 633 q 1126 696 1029 633 q 1240 890 1240 769 m 219 396 l 229 425 l 615 425 l 715 642 q 554 726 619 668 q 479 885 479 794 q 533 1006 479 958 q 661 1053 588 1053 q 746 1024 710 1053 q 782 949 782 996 q 779 922 782 933 q 767 888 776 911 l 750 892 q 756 917 751 899 q 760 946 760 936 q 734 1001 760 978 q 675 1024 708 1024 q 590 974 617 1024 q 563 861 563 924 q 608 734 563 789 q 724 657 653 679 q 908 894 790 796 q 1182 1006 1043 1006 q 1288 981 1244 1006 q 1340 892 1340 950 q 1154 668 1340 742 q 839 614 1018 614 q 747 425 793 519 l 1031 425 l 1018 396 l 732 396 q 626 242 692 314 q 479 115 560 171 q 621 73 554 88 q 760 58 688 58 q 959 120 882 58 q 1060 301 1036 182 l 1075 301 q 931 60 1049 143 q 654 -18 821 -18 q 558 -4 604 -18 q 390 65 513 10 q 256 13 322 31 q 118 -4 190 -4 q -6 21 49 -4 q -76 115 -76 54 q -22 194 -76 167 q 78 217 21 217 q 253 194 167 217 q 435 132 340 172 q 533 254 489 182 q 604 396 571 314 l 219 396 m 158 17 q 259 32 211 17 q 360 79 307 47 q 203 147 256 128 q 38 186 100 186 q -13 172 10 186 q -36 131 -36 158 q 38 46 -36 81 q 158 17 100 17 z "},"":{"ha":718,"x_min":113,"x_max":649,"o":"m 649 588 l 593 531 q 633 451 619 497 q 647 363 647 406 q 634 272 647 314 q 593 194 621 231 l 649 138 l 607 93 l 544 153 q 381 94 474 94 q 217 151 286 94 l 156 93 l 113 138 l 168 196 q 114 363 114 264 q 127 451 114 411 q 169 531 140 492 l 113 588 l 156 632 l 217 572 q 382 632 290 632 q 546 572 475 632 l 607 632 l 649 588 m 192 363 q 247 226 192 282 q 382 169 301 169 q 515 226 460 169 q 571 363 571 283 q 515 498 571 440 q 381 556 458 556 q 247 499 303 556 q 192 363 192 442 z "},"":{"ha":718,"x_min":26,"x_max":1164,"o":"m 510 575 q 643 739 601 692 q 808 886 731 836 q 1007 950 908 950 q 1108 932 1069 950 q 1164 850 1164 906 q 1140 799 1164 819 q 1083 779 1115 779 q 1035 788 1057 779 q 985 814 1014 796 q 1033 825 1014 814 q 1053 864 1053 836 q 1033 903 1053 889 q 986 918 1013 918 q 733 769 876 918 q 535 529 717 753 l 767 529 l 753 499 l 515 499 l 471 426 l 710 426 l 697 397 l 451 396 q 331 199 378 279 q 218 -3 275 106 l 56 -3 q 314 397 185 197 l 90 397 l 103 426 l 332 426 l 374 499 l 146 499 l 160 529 l 390 528 q 429 627 418 569 q 440 749 440 685 q 397 874 440 828 q 274 921 353 921 q 169 883 211 921 q 126 782 126 844 q 147 709 126 739 q 210 679 168 679 q 267 703 243 679 q 136 597 242 597 q 58 632 90 597 q 26 713 26 667 q 125 883 26 811 q 319 950 217 950 q 474 888 418 950 q 531 726 531 826 q 510 575 531 656 z "},"":{"ha":296,"x_min":125,"x_max":203,"o":"m 125 351 l 203 351 l 203 -3 l 125 -3 l 125 351 m 125 972 l 203 972 l 203 617 l 125 617 l 125 972 z "},"":{"ha":668,"x_min":-100,"x_max":869,"o":"m 435 190 q 440 165 436 182 q 443 131 443 147 q 347 -43 443 17 q 146 -94 265 -94 q -15 -51 57 -94 q -100 85 -100 0 q -60 189 -100 143 q 39 235 -19 235 q 122 213 81 235 q 44 162 75 197 q 13 78 13 126 q 56 -32 13 10 q 168 -74 99 -74 q 280 -22 235 -74 q 325 97 325 31 q 238 300 325 174 q 151 506 151 426 q 229 661 151 601 q 400 715 300 715 q 393 758 394 750 q 393 788 393 779 q 464 948 393 893 q 643 1003 535 1003 q 792 964 726 1003 q 869 840 869 918 q 835 763 869 792 q 750 735 801 735 l 715 739 q 749 798 736 767 q 763 860 763 829 q 728 947 763 911 q 643 982 694 982 q 539 931 576 982 q 501 811 501 881 q 590 617 501 744 q 679 415 679 489 q 603 260 679 322 q 435 190 533 203 m 424 222 q 524 280 486 236 q 561 388 561 324 q 501 540 561 449 q 410 686 418 669 q 307 644 349 686 q 265 540 265 603 q 326 375 265 469 q 424 222 418 233 z "},"":{"ha":344,"x_min":126,"x_max":497,"o":"m 497 682 q 476 638 497 657 q 431 618 456 618 q 387 639 403 618 q 371 689 371 660 q 390 735 371 717 q 438 753 410 753 q 481 732 465 753 q 497 682 497 711 m 254 682 q 235 638 254 657 q 189 618 215 618 q 144 640 163 618 q 126 689 126 663 q 146 733 126 714 q 192 753 165 753 q 237 733 219 753 q 254 682 254 713 z "},"":{"ha":1071,"x_min":89,"x_max":1064,"o":"m 822 353 q 810 290 815 315 q 789 233 799 243 q 708 208 771 218 q 607 197 644 197 q 388 269 468 197 q 303 483 303 346 q 407 694 303 617 q 639 764 500 764 q 731 751 682 764 q 799 704 799 733 l 799 603 l 772 603 q 724 697 772 665 q 611 728 676 728 q 456 658 510 728 q 407 490 407 596 q 454 308 407 374 q 622 232 510 232 q 728 263 685 232 q 796 353 771 294 l 822 353 m 576 961 q 920 817 776 961 q 1064 472 1064 674 q 921 129 1064 272 q 578 -14 778 -14 q 233 129 378 -14 q 89 474 89 272 q 233 817 89 674 q 576 961 376 961 m 576 51 q 867 176 749 51 q 986 472 986 300 q 868 772 986 647 q 578 897 750 897 q 288 772 407 897 q 168 474 168 647 q 285 176 168 300 q 576 51 403 51 z "},"":{"ha":415,"x_min":100,"x_max":544,"o":"m 447 726 l 544 731 q 453 603 499 667 q 386 471 386 504 q 406 454 386 457 q 432 463 419 454 q 458 488 444 472 l 471 475 q 425 441 451 454 q 372 428 399 428 q 314 475 314 428 q 317 496 314 479 q 256 450 275 461 q 181 428 218 428 q 120 453 140 428 q 100 518 100 478 q 184 672 100 599 q 350 744 268 744 q 428 697 404 744 l 447 726 m 358 728 q 249 651 304 728 q 193 517 193 574 q 201 480 193 493 q 232 467 210 467 q 340 551 283 467 q 397 689 397 635 q 358 728 397 728 z "},"":{"ha":593,"x_min":60,"x_max":610,"o":"m 60 232 l 376 463 l 389 449 l 179 229 l 261 21 l 244 10 l 60 232 m 467 10 l 279 232 l 597 463 l 610 449 l 399 229 l 482 21 l 467 10 z "},"":{"ha":803,"x_min":165,"x_max":643,"o":"m 565 281 l 165 281 l 165 358 l 643 358 l 643 93 l 565 93 l 565 281 z "},"":{"ha":803,"x_min":165,"x_max":643,"o":"m 165 197 l 165 275 l 643 275 l 643 197 l 165 197 z "},"":{"ha":1071,"x_min":90,"x_max":1065,"o":"m 346 747 l 596 749 q 714 718 667 749 q 769 615 769 682 q 737 522 769 563 q 653 463 704 481 q 742 336 697 399 q 849 229 803 256 l 849 213 l 761 213 q 636 353 724 213 q 578 449 607 400 l 507 449 l 507 293 q 510 267 507 275 q 525 256 513 258 l 575 246 l 575 213 l 346 213 l 347 246 q 406 260 399 254 q 414 315 414 267 l 414 642 q 396 704 414 697 q 346 713 393 706 l 346 747 m 507 483 l 572 482 q 650 517 625 482 q 675 610 675 553 q 568 713 675 713 l 507 713 l 507 483 m 578 960 q 922 816 778 960 q 1065 471 1065 672 q 922 128 1065 271 q 579 -15 779 -15 q 235 128 379 -15 q 90 472 90 271 q 234 816 90 672 q 578 960 378 960 m 578 50 q 869 174 750 50 q 988 471 988 299 q 869 771 988 646 q 579 896 751 896 q 289 771 408 896 q 169 472 169 646 q 287 174 169 299 q 578 50 404 50 z "},"":{"ha":344,"x_min":125,"x_max":488,"o":"m 488 640 l 125 640 l 125 707 l 488 707 l 488 640 z "},"":{"ha":535,"x_min":154,"x_max":544,"o":"m 218 551 q 256 455 218 496 q 351 414 294 414 q 444 456 406 414 q 483 551 483 497 q 444 647 483 606 q 350 689 406 689 q 257 647 296 689 q 218 551 218 606 m 349 744 q 488 689 431 744 q 544 550 544 633 q 487 413 544 471 q 349 356 429 356 q 210 411 265 356 q 154 550 154 467 q 212 687 154 629 q 349 744 269 744 z "},"":{"ha":803,"x_min":165,"x_max":643,"o":"m 365 475 l 443 475 l 443 335 l 643 335 l 643 257 l 443 257 l 443 115 l 365 115 l 365 257 l 165 257 l 165 335 l 365 335 l 365 475 m 165 75 l 643 75 l 643 -3 l 165 -3 l 165 75 z "},"":{"ha":429,"x_min":-14,"x_max":521,"o":"m 138 364 l 178 368 q 239 363 210 368 q 342 342 290 351 q 415 374 381 342 q 467 440 442 397 l 481 435 q 396 328 438 364 q 274 278 339 278 q 179 303 240 278 q 85 328 118 328 q 47 313 65 328 q 1 278 6 278 q -14 293 -14 278 q 97 367 -14 322 q 306 460 257 431 q 418 610 418 528 q 396 676 418 647 q 338 706 374 706 q 276 685 300 706 q 253 626 253 664 q 263 583 253 601 q 294 564 272 564 q 313 566 307 564 q 335 579 319 568 q 253 514 314 514 q 195 533 218 514 q 172 586 172 551 q 243 692 172 650 q 372 728 304 728 q 474 699 428 728 q 521 617 521 671 q 429 483 521 543 q 138 364 379 451 z "},"":{"ha":429,"x_min":43,"x_max":554,"o":"m 243 518 q 405 551 356 518 q 454 639 454 583 q 440 689 454 671 q 397 707 426 707 q 350 688 369 707 q 331 640 331 668 q 341 612 331 624 q 368 600 351 600 l 400 614 q 322 554 382 554 q 273 572 293 554 q 253 618 253 589 q 315 704 253 675 q 428 728 365 728 q 514 706 474 728 q 554 642 554 685 q 453 538 554 568 q 358 517 418 526 q 433 496 410 510 q 469 432 469 475 q 383 311 469 353 q 226 278 315 278 q 108 299 154 278 q 43 390 43 328 q 71 451 43 426 q 138 476 99 476 q 178 467 160 476 q 217 438 196 457 l 211 428 l 182 433 q 147 415 161 433 q 133 376 133 397 q 163 318 133 338 q 236 299 193 299 q 330 337 294 299 q 365 433 365 375 q 344 486 365 471 q 288 501 322 501 q 264 500 276 501 q 240 497 251 499 l 243 518 z "},"":{"ha":344,"x_min":239,"x_max":450,"o":"m 250 550 q 239 564 239 551 q 310 644 278 607 q 356 713 349 689 q 369 763 363 738 q 406 794 383 794 q 438 782 425 794 q 450 749 450 769 q 372 626 450 703 q 250 550 294 550 z "},"":{"ha":643,"x_min":-360,"x_max":808,"o":"m 299 144 q 186 38 233 72 q 44 -15 114 -15 q 17 -14 26 -15 l -225 -432 l -360 -437 l 157 475 l 306 482 q 164 271 181 299 q 64 57 64 111 q 74 34 64 47 q 94 22 85 21 q 243 114 157 22 q 388 304 308 183 q 489 469 401 325 l 635 482 q 492 261 546 349 q 389 40 389 96 l 411 13 q 615 158 475 13 q 793 367 704 251 l 808 354 q 615 129 692 206 q 376 -15 471 -15 q 308 13 332 -15 q 285 82 285 40 q 299 144 285 113 z "},"":{"ha":1006,"x_min":133,"x_max":813,"o":"m 813 1064 l 813 983 l 761 983 l 761 -251 l 674 -251 l 674 983 l 457 983 l 457 -251 l 369 -251 l 369 481 q 196 575 258 499 q 133 764 133 651 q 229 989 133 908 q 465 1064 318 1064 l 813 1064 z "},"":{"ha":371,"x_min":88,"x_max":244,"o":"m 169 314 q 222 290 200 314 q 244 236 244 267 q 220 181 244 204 q 163 158 196 158 q 110 183 132 158 q 88 239 88 208 q 112 292 88 271 q 169 314 136 314 z "},"":{"ha":371,"x_min":88,"x_max":244,"o":"m 169 314 q 222 290 200 314 q 244 236 244 267 q 220 181 244 204 q 163 158 196 158 q 110 183 132 158 q 88 239 88 208 q 112 292 88 271 q 169 314 136 314 z "},"":{"ha":344,"x_min":-183,"x_max":131,"o":"m 40 -4 q 14 -43 19 -36 q -10 -86 -1 -65 q 15 -83 1 -83 q 35 -83 28 -83 q 104 -104 78 -83 q 131 -167 131 -125 q 76 -249 131 -222 q -26 -268 36 -268 q -119 -251 -56 -268 q -183 -214 -183 -235 q -168 -199 -183 -199 q -108 -215 -156 -199 q -35 -231 -60 -231 q 29 -219 6 -231 q 63 -168 63 -204 q 7 -121 63 -121 q -22 -124 -3 -121 q -51 -126 -42 -126 q -64 -114 -64 -126 q -46 -76 -64 -107 q 0 -4 -28 -44 l 40 -4 z "},"":{"ha":429,"x_min":132,"x_max":543,"o":"m 372 629 q 265 589 328 608 q 156 558 203 569 l 151 571 q 339 628 250 589 q 518 728 428 667 l 543 721 l 261 304 l 328 307 l 324 293 l 132 285 l 372 629 z "},"":{"ha":385,"x_min":119,"x_max":486,"o":"m 379 743 q 456 717 426 743 q 486 644 486 692 q 399 492 486 558 q 228 429 317 429 q 150 454 181 429 q 119 525 119 479 q 205 677 119 611 q 379 743 290 743 m 228 444 q 353 536 292 444 q 410 689 410 621 q 402 716 410 704 q 379 728 394 728 q 257 639 317 728 q 197 483 197 550 q 203 454 197 464 q 228 444 210 444 z "},"":{"ha":593,"x_min":4,"x_max":557,"o":"m 333 240 l 17 10 l 4 24 l 215 243 l 132 451 l 149 463 l 333 240 m 557 240 l 240 10 l 228 24 l 438 243 l 356 451 l 371 463 l 557 240 m 336 240 l 18 10 l 6 24 l 217 243 l 133 451 l 150 463 l 336 240 z "},"":{"ha":1078,"x_min":172,"x_max":1024,"o":"m 718 144 l 464 144 l 915 500 l 976 500 l 538 176 l 739 175 l 900 414 l 1024 425 q 957 333 999 392 q 846 175 944 317 l 926 175 l 918 144 l 829 146 q 781 74 806 111 q 738 3 757 38 l 614 -3 l 718 144 m 413 629 q 196 558 307 588 l 192 571 q 380 631 289 592 q 558 728 471 671 l 583 721 q 409 466 465 549 q 301 304 353 383 l 368 307 l 364 293 l 172 285 l 413 629 m 200 -19 l 807 743 l 875 743 l 271 -19 l 200 -19 z "},"":{"ha":1078,"x_min":140,"x_max":960,"o":"m 576 74 l 617 76 q 709 65 651 76 q 781 51 767 53 q 856 82 822 50 q 906 150 875 100 l 919 143 q 836 36 875 71 q 713 -14 781 -14 q 618 11 679 -14 q 522 36 557 36 q 485 21 503 36 q 440 -14 444 -14 q 425 3 425 -14 q 536 78 425 33 q 744 169 700 143 q 857 319 857 236 q 836 387 857 360 q 776 414 815 414 q 715 392 739 414 q 690 335 690 371 q 701 290 690 307 q 739 274 711 274 q 756 277 747 274 q 774 288 764 281 q 692 222 753 222 q 634 242 657 222 q 611 296 611 263 q 679 400 611 358 q 806 436 739 436 q 908 413 868 436 q 960 325 960 383 q 810 160 960 233 q 576 74 772 142 m 381 628 q 164 557 275 585 l 160 569 q 348 630 257 590 q 525 726 439 669 l 550 719 q 410 517 479 617 q 269 303 342 417 l 336 306 l 332 292 l 140 283 l 381 628 m 176 -21 l 783 742 l 853 742 l 249 -21 l 176 -21 z "},"":{"ha":1078,"x_min":83,"x_max":1078,"o":"m 772 144 l 517 144 l 969 500 l 1031 500 l 592 176 l 793 175 l 954 414 l 1078 425 q 1011 333 1053 392 q 900 175 999 317 l 981 175 l 972 144 l 882 144 l 790 3 l 667 -3 l 772 144 m 253 -19 l 860 743 l 929 743 l 325 -19 l 253 -19 m 283 518 q 419 539 368 518 q 494 640 494 569 q 481 689 494 671 q 438 707 467 707 q 390 687 410 707 q 369 639 369 667 q 407 600 369 600 q 421 605 410 600 q 442 614 432 610 q 410 572 431 589 q 363 554 389 554 q 313 572 333 554 q 293 618 293 589 q 356 704 293 675 q 469 728 406 728 q 551 710 518 728 q 594 640 594 686 q 524 547 594 576 q 397 518 492 535 q 472 497 447 511 q 510 432 510 475 q 421 310 510 351 q 260 278 351 278 q 146 300 193 278 q 83 390 83 329 q 111 451 83 426 q 178 476 139 476 q 218 467 200 476 q 257 438 240 458 l 251 426 q 233 431 240 429 q 222 433 226 433 q 188 415 201 433 q 174 376 174 397 q 203 318 174 338 q 276 299 233 299 q 370 337 335 299 q 406 433 406 375 q 384 486 406 471 q 328 501 363 501 q 304 500 317 501 q 281 497 292 499 l 283 518 z "},"":{"ha":643,"x_min":-42,"x_max":551,"o":"m 436 313 q 301 197 399 258 q 154 96 182 124 q 85 -62 85 29 q 119 -178 85 -136 q 226 -219 154 -219 q 329 -174 286 -219 q 372 -69 372 -128 q 350 -2 372 -32 q 292 28 328 28 q 265 24 276 28 q 236 7 254 19 q 350 104 260 104 q 434 69 403 104 q 465 -21 465 33 q 369 -186 465 -117 q 181 -250 281 -250 q 29 -208 90 -250 q -42 -74 -42 -160 q 49 108 -42 40 q 244 207 92 140 q 424 322 375 263 l 436 313 m 396 422 q 419 474 396 453 q 474 496 442 496 q 529 474 507 496 q 551 418 551 451 q 529 363 551 385 q 474 340 507 340 q 418 364 440 340 q 396 422 396 388 z "},"":{"ha":1165,"x_min":-156,"x_max":1394,"o":"m 1394 979 q 1178 717 1264 831 q 972 396 1049 547 q 879 81 879 213 q 888 37 879 54 q 921 19 897 19 q 1189 214 1013 19 q 1313 363 1257 289 l 1329 353 q 1208 203 1267 268 q 1049 53 1122 107 q 879 -15 954 -15 q 790 19 819 -15 q 761 115 761 54 q 786 271 761 189 q 849 415 807 339 l 667 415 q 499 229 561 292 q 293 65 390 121 q 56 -4 172 -4 q -87 32 -31 -4 q -156 156 -156 75 q -131 229 -156 196 q -67 263 -106 263 q -20 245 -40 263 q 0 201 0 228 q -22 149 0 168 q -78 129 -44 129 q -33 46 -78 76 q 69 15 13 15 q 451 231 226 15 q 892 663 675 446 q 1382 989 1164 919 l 1394 979 m 1233 906 q 938 697 1081 824 q 686 435 821 594 l 860 433 q 1028 683 929 560 q 1233 906 1121 800 m 1196 1238 q 1222 1218 1210 1238 q 1245 1154 1233 1199 q 1310 1057 1257 1110 q 1363 1006 1336 1031 q 1351 993 1363 993 q 1227 1069 1304 993 q 1150 1192 1150 1144 q 1196 1238 1150 1238 z "},"":{"ha":1165,"x_min":-156,"x_max":1500,"o":"m 1394 979 q 1178 717 1264 831 q 972 396 1049 547 q 879 81 879 213 q 888 37 879 54 q 921 19 897 19 q 1189 214 1013 19 q 1313 363 1257 289 l 1329 353 q 1208 203 1267 268 q 1049 53 1122 107 q 879 -15 954 -15 q 790 19 819 -15 q 761 115 761 54 q 786 271 761 189 q 849 415 807 339 l 667 415 q 499 229 561 292 q 293 65 390 121 q 56 -4 172 -4 q -87 32 -31 -4 q -156 156 -156 75 q -131 229 -156 196 q -67 263 -106 263 q -20 245 -40 263 q 0 201 0 228 q -22 149 0 168 q -78 129 -44 129 q -33 46 -78 76 q 69 15 13 15 q 451 231 226 15 q 892 663 675 446 q 1382 989 1164 919 l 1394 979 m 1233 906 q 938 697 1081 824 q 686 435 821 594 l 860 433 q 1028 683 929 560 q 1233 906 1121 800 m 1297 993 q 1286 1007 1286 993 q 1354 1075 1333 1053 q 1406 1163 1393 1115 q 1425 1218 1419 1210 q 1453 1238 1436 1238 q 1500 1192 1500 1238 q 1422 1069 1500 1146 q 1297 993 1344 993 z "},"":{"ha":1165,"x_min":-156,"x_max":1511,"o":"m 1394 979 q 1178 717 1264 831 q 972 396 1049 547 q 879 81 879 213 q 888 37 879 54 q 921 19 897 19 q 1189 214 1013 19 q 1313 363 1257 289 l 1329 353 q 1208 203 1267 268 q 1049 53 1122 107 q 879 -15 954 -15 q 790 19 819 -15 q 761 115 761 54 q 786 271 761 189 q 849 415 807 339 l 667 415 q 499 229 561 292 q 293 65 390 121 q 56 -4 172 -4 q -87 32 -31 -4 q -156 156 -156 75 q -131 229 -156 196 q -67 263 -106 263 q -20 245 -40 263 q 0 201 0 228 q -22 149 0 168 q -78 129 -44 129 q -33 46 -78 76 q 69 15 13 15 q 451 231 226 15 q 892 663 675 446 q 1382 989 1164 919 l 1394 979 m 1233 906 q 938 697 1081 824 q 686 435 821 594 l 860 433 q 1028 683 929 560 q 1233 906 1121 800 m 1400 1238 q 1465 1094 1415 1181 q 1511 1013 1503 1029 l 1507 1004 l 1497 999 q 1454 1033 1488 999 q 1369 1131 1414 1075 q 1271 1057 1321 1090 q 1167 1003 1196 1006 l 1160 1015 q 1181 1038 1168 1026 q 1201 1054 1194 1049 q 1296 1141 1254 1097 q 1372 1238 1338 1185 l 1400 1238 z "},"":{"ha":1165,"x_min":-156,"x_max":1574,"o":"m 1394 979 q 1178 717 1264 831 q 972 396 1049 547 q 879 81 879 213 q 888 37 879 54 q 921 19 897 19 q 1189 214 1013 19 q 1313 363 1257 289 l 1329 353 q 1208 203 1267 268 q 1049 53 1122 107 q 879 -15 954 -15 q 790 19 819 -15 q 761 115 761 54 q 786 271 761 189 q 849 415 807 339 l 667 415 q 499 229 561 292 q 293 65 390 121 q 56 -4 172 -4 q -87 32 -31 -4 q -156 156 -156 75 q -131 229 -156 196 q -67 263 -106 263 q -20 245 -40 263 q 0 201 0 228 q -22 149 0 168 q -78 129 -44 129 q -33 46 -78 76 q 69 15 13 15 q 451 231 226 15 q 892 663 675 446 q 1382 989 1164 919 l 1394 979 m 1233 906 q 938 697 1081 824 q 686 435 821 594 l 860 433 q 1028 683 929 560 q 1233 906 1121 800 m 1163 1050 q 1196 1138 1169 1100 q 1275 1183 1228 1183 q 1351 1168 1308 1183 q 1464 1133 1451 1133 q 1515 1149 1496 1133 q 1547 1197 1535 1165 l 1574 1197 q 1536 1107 1565 1144 q 1451 1063 1501 1063 q 1335 1097 1422 1063 q 1264 1114 1293 1114 q 1217 1094 1238 1114 q 1186 1050 1201 1079 l 1163 1050 z "},"":{"ha":1165,"x_min":-156,"x_max":1544,"o":"m 1394 979 q 1178 717 1264 831 q 972 396 1049 547 q 879 81 879 213 q 888 37 879 54 q 921 19 897 19 q 1189 214 1013 19 q 1313 363 1257 289 l 1329 353 q 1208 203 1267 268 q 1049 53 1122 107 q 879 -15 954 -15 q 790 19 819 -15 q 761 115 761 54 q 786 271 761 189 q 849 415 807 339 l 667 415 q 499 229 561 292 q 293 65 390 121 q 56 -4 172 -4 q -87 32 -31 -4 q -156 156 -156 75 q -131 229 -156 196 q -67 263 -106 263 q -20 245 -40 263 q 0 201 0 228 q -22 149 0 168 q -78 129 -44 129 q -33 46 -78 76 q 69 15 13 15 q 451 231 226 15 q 892 663 675 446 q 1382 989 1164 919 l 1394 979 m 1233 906 q 938 697 1081 824 q 686 435 821 594 l 860 433 q 1028 683 929 560 q 1233 906 1121 800 m 1544 1125 q 1525 1081 1544 1100 q 1479 1061 1506 1061 q 1435 1083 1453 1061 q 1418 1132 1418 1104 q 1438 1176 1418 1157 q 1482 1196 1457 1196 q 1527 1176 1510 1196 q 1544 1125 1544 1156 m 1303 1125 q 1283 1081 1303 1100 q 1238 1061 1264 1061 q 1194 1083 1211 1061 q 1176 1132 1176 1104 q 1196 1176 1176 1157 q 1240 1196 1215 1196 q 1285 1176 1268 1196 q 1303 1125 1303 1156 z "},"":{"ha":1165,"x_min":-156,"x_max":1550,"o":"m 1394 979 q 1178 717 1264 831 q 972 396 1049 547 q 879 81 879 213 q 888 37 879 54 q 921 19 897 19 q 1189 214 1013 19 q 1313 363 1257 289 l 1329 353 q 1208 203 1267 268 q 1049 53 1122 107 q 879 -15 954 -15 q 790 19 819 -15 q 761 115 761 54 q 786 271 761 189 q 849 415 807 339 l 667 415 q 499 229 561 292 q 293 65 390 121 q 56 -4 172 -4 q -87 32 -31 -4 q -156 156 -156 75 q -131 229 -156 196 q -67 263 -106 263 q -20 245 -40 263 q 0 201 0 228 q -22 149 0 168 q -78 129 -44 129 q -33 46 -78 76 q 69 15 13 15 q 451 231 226 15 q 892 663 675 446 q 1382 989 1164 919 l 1394 979 m 1233 906 q 938 697 1081 824 q 686 435 821 594 l 860 433 q 1028 683 929 560 q 1233 906 1121 800 m 1317 1067 q 1325 1030 1317 1043 q 1357 1017 1333 1017 q 1447 1081 1404 1017 q 1486 1190 1486 1139 q 1476 1226 1486 1213 q 1446 1240 1467 1240 q 1358 1179 1399 1240 q 1317 1067 1317 1118 m 1550 1165 q 1494 1047 1550 1096 q 1367 999 1439 999 q 1289 1021 1321 999 q 1251 1092 1251 1047 q 1307 1210 1251 1161 q 1435 1258 1363 1258 q 1515 1233 1479 1258 q 1550 1165 1550 1208 z "},"":{"ha":1339,"x_min":-29,"x_max":1596,"o":"m 1099 208 q 1122 335 1107 279 q 1168 443 1138 390 q 1074 427 1099 431 q 1022 421 1049 424 q 915 236 979 317 q 754 92 846 149 q 869 75 864 75 q 986 67 936 67 q 1274 146 1154 67 q 1488 360 1361 203 l 1501 351 q 1354 179 1379 206 q 1179 32 1263 82 q 964 -32 1072 -32 q 818 -10 897 -32 q 675 36 722 22 q 591 -4 629 8 q 507 -17 553 -17 q 466 -3 489 -17 q 443 26 443 11 q 488 78 443 58 q 644 97 533 97 q 681 97 664 97 q 713 96 699 96 q 793 206 757 140 q 886 418 806 228 q 825 417 856 418 q 764 417 794 417 q 701 418 729 417 q 642 425 672 419 q 503 236 572 331 q 331 61 410 119 q 114 -15 225 -15 q 18 8 57 -15 q -29 89 -29 36 q -8 143 -29 121 q 46 165 13 165 q 92 148 74 165 q 111 103 111 131 l 79 54 q 108 23 88 32 q 156 14 128 14 q 413 186 244 14 q 724 538 444 219 q 1017 821 915 756 q 897 832 961 828 q 771 836 833 836 q 399 763 571 836 q 174 492 174 667 q 208 408 174 439 q 296 376 242 376 q 469 446 404 376 q 535 617 535 515 q 526 690 535 653 l 543 693 q 557 646 553 674 q 561 594 561 618 q 485 401 561 478 q 290 325 408 325 q 192 367 233 325 q 151 468 151 410 q 342 776 151 667 q 754 893 493 863 q 1146 910 900 910 q 1300 978 1232 956 q 1468 1007 1388 1007 q 1550 989 1515 1007 q 1596 922 1596 965 q 1504 811 1596 842 q 1331 790 1443 790 q 1298 790 1314 790 q 1268 792 1282 790 q 1125 644 1210 792 q 1029 442 1065 542 q 1102 449 1069 442 q 1181 475 1135 457 q 1208 522 1194 507 q 1256 547 1229 547 q 1364 538 1314 547 q 1211 394 1271 469 q 1119 206 1143 307 l 1099 208 m 893 440 q 1030 655 942 561 q 1233 794 1118 749 l 1050 819 q 835 653 947 763 q 656 446 742 561 q 716 440 685 443 q 772 438 747 438 l 893 440 m 1574 933 q 1528 974 1574 961 q 1444 988 1482 988 q 1308 963 1381 988 q 1181 907 1274 950 q 1326 885 1267 893 q 1440 878 1385 878 l 1457 878 q 1532 885 1510 878 q 1574 933 1574 897 m 465 29 q 479 12 465 17 q 507 7 493 7 q 586 16 547 7 q 654 44 625 25 q 595 56 625 50 q 536 63 565 63 q 482 54 499 63 q 465 29 465 46 z "},"":{"ha":893,"x_min":96,"x_max":1108,"o":"m 729 778 q 715 714 715 750 q 740 649 715 672 q 807 625 765 625 q 958 699 892 625 q 1024 858 1024 774 q 988 928 1024 906 q 903 950 953 950 q 451 699 672 950 q 238 221 238 456 q 278 68 238 126 q 415 -1 325 -1 q 627 94 535 -1 q 719 308 719 189 q 697 397 719 364 q 617 436 671 436 q 507 382 564 436 q 425 282 471 349 l 407 292 q 515 418 461 375 q 671 474 586 474 q 786 431 740 474 q 832 318 832 388 q 681 61 832 160 q 381 -25 549 -25 q 171 53 246 -25 q 96 265 96 131 q 375 751 96 521 q 904 972 643 972 q 1046 936 993 972 q 1108 810 1108 894 q 1022 651 1108 714 q 844 594 943 594 q 740 622 782 594 q 693 714 693 654 q 699 751 693 735 q 711 783 704 768 l 729 778 m 375 -4 q 350 -43 358 -31 q 325 -86 332 -71 q 349 -83 336 -83 q 369 -83 363 -83 q 440 -104 413 -83 q 467 -167 467 -125 q 413 -249 467 -222 q 308 -268 372 -268 q 215 -251 279 -268 q 151 -214 151 -235 q 168 -199 151 -199 q 228 -215 181 -199 q 301 -231 276 -231 q 365 -219 342 -231 q 399 -168 399 -204 q 383 -133 399 -144 q 342 -121 367 -121 q 313 -124 332 -121 q 283 -126 293 -126 q 272 -114 269 -126 q 308 -43 272 -100 q 335 -4 321 -24 l 375 -4 z "},"":{"ha":917,"x_min":68,"x_max":1013,"o":"m 667 656 l 700 647 l 732 644 q 753 643 746 643 q 869 690 828 643 q 911 818 911 738 q 877 915 911 879 q 783 950 843 950 q 618 810 657 950 q 539 588 564 614 q 324 454 538 586 q 211 222 211 385 q 290 60 211 121 q 467 4 363 4 q 649 65 576 4 q 726 239 726 131 q 697 325 726 293 q 614 357 668 357 q 526 331 571 357 q 454 271 490 308 l 440 281 q 547 358 489 329 q 669 388 606 388 q 794 346 743 388 q 844 231 844 304 q 674 29 844 100 q 389 -25 543 -25 q 172 25 257 -25 q 68 210 68 86 q 186 411 68 336 q 400 536 293 474 q 452 686 426 558 q 531 875 478 814 q 793 972 614 972 q 940 940 883 972 q 1013 817 1013 900 q 931 668 1013 721 q 760 622 860 622 q 665 639 711 622 l 667 656 m 694 1239 q 726 1206 711 1239 q 747 1149 735 1188 q 808 1058 758 1110 q 861 1007 835 1032 q 850 994 861 994 q 724 1070 801 994 q 647 1193 647 1146 q 694 1239 647 1239 z "},"":{"ha":917,"x_min":68,"x_max":1013,"o":"m 667 656 l 700 647 l 732 644 q 753 643 746 643 q 869 690 828 643 q 911 818 911 738 q 877 915 911 879 q 783 950 843 950 q 618 810 657 950 q 539 588 564 614 q 324 454 538 586 q 211 222 211 385 q 290 60 211 121 q 467 4 363 4 q 649 65 576 4 q 726 239 726 131 q 697 325 726 293 q 614 357 668 357 q 526 331 571 357 q 454 271 490 308 l 440 281 q 547 358 489 329 q 669 388 606 388 q 794 346 743 388 q 844 231 844 304 q 674 29 844 100 q 389 -25 543 -25 q 172 25 257 -25 q 68 210 68 86 q 186 411 68 336 q 400 536 293 474 q 452 686 426 558 q 531 875 478 814 q 793 972 614 972 q 940 940 883 972 q 1013 817 1013 900 q 931 668 1013 721 q 760 622 860 622 q 665 639 711 622 l 667 656 m 796 994 q 785 1008 785 994 q 835 1060 797 1024 q 901 1157 890 1114 q 922 1219 918 1211 q 951 1239 933 1239 q 997 1193 997 1239 q 919 1071 997 1147 q 796 994 842 994 z "},"":{"ha":917,"x_min":68,"x_max":1013,"o":"m 667 656 l 700 647 l 732 644 q 753 643 746 643 q 869 690 828 643 q 911 818 911 738 q 877 915 911 879 q 783 950 843 950 q 618 810 657 950 q 539 588 564 614 q 324 454 538 586 q 211 222 211 385 q 290 60 211 121 q 467 4 363 4 q 649 65 576 4 q 726 239 726 131 q 697 325 726 293 q 614 357 668 357 q 526 331 571 357 q 454 271 490 308 l 440 281 q 547 358 489 329 q 669 388 606 388 q 794 346 743 388 q 844 231 844 304 q 674 29 844 100 q 389 -25 543 -25 q 172 25 257 -25 q 68 210 68 86 q 186 411 68 336 q 400 536 293 474 q 452 686 426 558 q 531 875 478 814 q 793 972 614 972 q 940 940 883 972 q 1013 817 1013 900 q 931 668 1013 721 q 760 622 860 622 q 665 639 711 622 l 667 656 m 899 1239 q 949 1124 911 1190 q 1010 1014 1003 1029 l 1006 1006 l 994 1000 q 951 1035 985 1000 q 867 1132 911 1076 q 768 1058 818 1092 q 665 1004 693 1007 l 657 1017 q 717 1075 675 1042 q 782 1129 768 1115 q 829 1182 806 1153 q 871 1239 847 1206 l 899 1239 z "},"":{"ha":917,"x_min":68,"x_max":1043,"o":"m 667 656 l 700 647 l 732 644 q 753 643 746 643 q 869 690 828 643 q 911 818 911 738 q 877 915 911 879 q 783 950 843 950 q 618 810 657 950 q 539 588 564 614 q 324 454 538 586 q 211 222 211 385 q 290 60 211 121 q 467 4 363 4 q 649 65 576 4 q 726 239 726 131 q 697 325 726 293 q 614 357 668 357 q 526 331 571 357 q 454 271 490 308 l 440 281 q 547 358 489 329 q 669 388 606 388 q 794 346 743 388 q 844 231 844 304 q 674 29 844 100 q 389 -25 543 -25 q 172 25 257 -25 q 68 210 68 86 q 186 411 68 336 q 400 536 293 474 q 452 686 426 558 q 531 875 478 814 q 793 972 614 972 q 940 940 883 972 q 1013 817 1013 900 q 931 668 1013 721 q 760 622 860 622 q 665 639 711 622 l 667 656 m 1043 1126 q 1024 1082 1043 1101 q 978 1063 1004 1063 q 934 1084 951 1063 q 917 1133 917 1106 q 936 1178 917 1158 q 981 1197 956 1197 q 1026 1177 1008 1197 q 1043 1126 1043 1157 m 801 1126 q 782 1082 801 1101 q 736 1063 763 1063 q 692 1084 710 1063 q 675 1133 675 1106 q 694 1178 675 1158 q 739 1197 714 1197 q 784 1177 767 1197 q 801 1126 801 1157 z "},"":{"ha":817,"x_min":-75,"x_max":1374,"o":"m 586 703 q 608 619 608 663 q 528 453 608 517 q 349 394 454 394 q 215 444 268 394 q 161 572 161 493 q 401 858 161 758 q 903 960 586 935 q 1329 972 1064 972 l 1374 949 q 1340 931 1358 936 q 1303 925 1321 925 q 1255 928 1286 925 q 1215 932 1224 932 q 982 750 1122 932 q 735 382 933 688 q 515 99 588 156 q 362 13 443 43 q 194 -17 281 -17 q 19 18 90 -17 q -75 157 -75 64 q -51 226 -75 196 q 11 257 -28 257 q 62 238 42 257 q 82 189 82 219 q 26 124 82 132 q 68 32 26 63 q 168 6 104 6 q 482 199 342 6 q 740 597 611 397 q 1175 933 925 844 l 1161 933 q 824 917 963 933 q 453 817 586 888 q 279 561 279 724 q 313 467 279 503 q 404 432 347 432 q 533 489 478 432 q 589 619 589 546 q 583 660 589 640 q 568 699 578 679 l 586 703 m 1022 1239 q 1056 1206 1042 1239 q 1073 1151 1063 1190 q 1136 1058 1083 1111 q 1189 1007 1163 1032 q 1178 993 1189 996 q 1054 1069 1132 993 q 976 1193 976 1146 q 1022 1239 976 1239 z "},"":{"ha":817,"x_min":-75,"x_max":1374,"o":"m 586 703 q 608 619 608 663 q 528 453 608 517 q 349 394 454 394 q 215 444 268 394 q 161 572 161 493 q 401 858 161 758 q 903 960 586 935 q 1329 972 1064 972 l 1374 949 q 1340 931 1358 936 q 1303 925 1321 925 q 1255 928 1286 925 q 1215 932 1224 932 q 982 750 1122 932 q 735 382 933 688 q 515 99 588 156 q 362 13 443 43 q 194 -17 281 -17 q 19 18 90 -17 q -75 157 -75 64 q -51 226 -75 196 q 11 257 -28 257 q 62 238 42 257 q 82 189 82 219 q 26 124 82 132 q 68 32 26 63 q 168 6 104 6 q 482 199 342 6 q 740 597 611 397 q 1175 933 925 844 l 1161 933 q 824 917 963 933 q 453 817 586 888 q 279 561 279 724 q 313 467 279 503 q 404 432 347 432 q 533 489 478 432 q 589 619 589 546 q 583 660 589 640 q 568 699 578 679 l 586 703 m 1125 994 q 1114 1007 1114 994 q 1185 1088 1153 1050 q 1231 1157 1224 1132 q 1244 1207 1238 1182 q 1281 1239 1258 1239 q 1313 1226 1300 1239 q 1325 1193 1325 1214 q 1248 1070 1325 1146 q 1125 994 1171 994 z "},"":{"ha":817,"x_min":-75,"x_max":1374,"o":"m 586 703 q 608 619 608 663 q 528 453 608 517 q 349 394 454 394 q 215 444 268 394 q 161 572 161 493 q 401 858 161 758 q 903 960 586 935 q 1329 972 1064 972 l 1374 949 q 1340 931 1358 936 q 1303 925 1321 925 q 1255 928 1286 925 q 1215 932 1224 932 q 982 750 1122 932 q 735 382 933 688 q 515 99 588 156 q 362 13 443 43 q 194 -17 281 -17 q 19 18 90 -17 q -75 157 -75 64 q -51 226 -75 196 q 11 257 -28 257 q 62 238 42 257 q 82 189 82 219 q 26 124 82 132 q 68 32 26 63 q 168 6 104 6 q 482 199 342 6 q 740 597 611 397 q 1175 933 925 844 l 1161 933 q 824 917 963 933 q 453 817 586 888 q 279 561 279 724 q 313 467 279 503 q 404 432 347 432 q 533 489 478 432 q 589 619 589 546 q 583 660 589 640 q 568 699 578 679 l 586 703 m 1228 1239 q 1306 1072 1238 1200 q 1339 1014 1317 1050 q 1324 1000 1339 1000 q 1258 1058 1313 1000 q 1196 1132 1210 1111 q 1097 1058 1154 1096 q 993 1004 1021 1007 l 986 1017 q 1044 1075 1004 1043 q 1108 1128 1100 1119 q 1146 1168 1124 1142 q 1200 1239 1168 1194 l 1228 1239 z "},"":{"ha":817,"x_min":-75,"x_max":1374,"o":"m 586 703 q 608 619 608 663 q 528 453 608 517 q 349 394 454 394 q 215 444 268 394 q 161 572 161 493 q 401 858 161 758 q 903 960 586 935 q 1329 972 1064 972 l 1374 949 q 1340 931 1358 936 q 1303 925 1321 925 q 1255 928 1286 925 q 1215 932 1224 932 q 982 750 1122 932 q 735 382 933 688 q 515 99 588 156 q 362 13 443 43 q 194 -17 281 -17 q 19 18 90 -17 q -75 157 -75 64 q -51 226 -75 196 q 11 257 -28 257 q 62 238 42 257 q 82 189 82 219 q 26 124 82 132 q 68 32 26 63 q 168 6 104 6 q 482 199 342 6 q 740 597 611 397 q 1175 933 925 844 l 1161 933 q 824 917 963 933 q 453 817 586 888 q 279 561 279 724 q 313 467 279 503 q 404 432 347 432 q 533 489 478 432 q 589 619 589 546 q 583 660 589 640 q 568 699 578 679 l 586 703 m 1372 1126 q 1353 1082 1372 1101 q 1307 1063 1333 1063 q 1263 1085 1281 1063 q 1244 1133 1244 1107 q 1264 1178 1244 1158 q 1310 1197 1283 1197 q 1355 1177 1338 1197 q 1372 1126 1372 1157 m 1131 1126 q 1111 1082 1131 1101 q 1065 1063 1092 1063 q 1021 1085 1039 1063 q 1003 1133 1003 1107 q 1022 1178 1003 1158 q 1068 1197 1042 1197 q 1113 1177 1096 1197 q 1131 1126 1131 1157 z "},"":{"ha":1264,"x_min":31,"x_max":1356,"o":"m 578 478 q 604 488 585 485 q 646 490 624 490 q 676 490 661 490 q 704 489 690 489 q 840 697 778 619 q 1026 861 926 804 q 888 930 968 910 q 717 950 808 950 q 326 821 493 950 q 144 463 144 679 q 179 329 144 381 q 299 268 221 268 q 496 407 425 268 q 553 657 553 518 l 575 657 q 494 367 575 489 q 242 225 401 225 q 88 292 146 225 q 31 457 31 358 q 265 838 31 685 q 715 972 474 972 q 898 951 814 972 q 1060 878 982 929 q 1196 942 1124 918 q 1354 978 1268 965 l 1356 961 q 1219 924 1286 956 q 1099 846 1160 896 q 1197 704 1164 783 q 1231 533 1231 625 q 1019 118 1231 269 q 557 -17 832 -17 q 400 4 521 -17 q 306 14 343 14 q 225 6 278 14 q 146 -3 172 -3 q 85 3 108 -3 q 42 38 42 13 q 60 60 42 53 q 94 67 78 67 q 174 57 128 67 q 307 35 279 35 q 463 118 381 35 q 596 299 524 181 q 692 467 643 382 l 578 478 m 833 467 q 642 190 731 276 q 347 28 529 81 q 442 10 390 15 q 551 6 493 6 q 956 204 786 6 q 1119 635 1119 396 q 1108 738 1119 692 q 1068 819 1097 783 q 947 661 1007 756 q 846 489 914 610 l 896 490 q 954 478 922 490 q 929 468 947 471 q 890 465 911 465 q 860 465 874 465 q 833 467 846 465 z "},"":{"ha":1065,"x_min":-204,"x_max":1582,"o":"m 1411 693 q 1473 727 1449 700 q 1497 793 1497 754 q 1467 854 1497 833 q 1394 875 1438 875 q 1128 690 1269 875 q 904 303 1018 547 q 764 -32 850 186 l 742 -29 q 745 42 742 -3 q 749 97 749 88 q 726 304 749 190 q 679 536 703 418 q 656 740 656 654 q 501 429 578 585 q 283 124 393 231 q -18 -15 140 -15 q -148 33 -92 -15 q -204 156 -204 82 q -181 223 -204 194 q -119 251 -158 251 q -71 235 -92 251 q -50 192 -50 218 q -64 149 -50 167 q -103 126 -78 131 q 7 14 -103 14 q 372 261 197 14 q 618 722 471 400 q 771 972 732 972 l 788 958 q 767 847 767 899 q 789 610 767 746 q 840 213 840 296 q 978 500 922 397 q 1189 807 1082 693 q 1450 950 1322 950 q 1544 919 1506 950 q 1582 835 1582 889 q 1529 726 1582 771 q 1411 681 1476 681 l 1411 693 m 872 1051 q 906 1141 872 1097 q 985 1185 939 1185 q 1061 1169 1018 1185 q 1174 1135 1161 1135 q 1226 1151 1207 1135 q 1256 1199 1244 1167 l 1283 1199 q 1246 1108 1274 1144 q 1163 1064 1211 1064 q 1044 1099 1133 1064 q 972 1115 1001 1115 q 925 1096 946 1115 q 896 1051 910 1081 l 872 1051 z "},"":{"ha":992,"x_min":99,"x_max":1156,"o":"m 1156 351 q 1042 278 1101 304 q 918 251 983 251 q 811 269 861 251 q 606 68 711 142 q 336 -25 472 -25 q 159 40 219 -25 q 99 222 99 104 q 288 669 99 453 q 706 911 478 885 q 853 972 769 972 q 978 901 935 972 q 1014 754 1014 842 q 956 508 1014 643 q 826 286 906 394 q 877 275 849 278 q 933 272 906 272 q 1044 299 985 272 q 1143 365 1104 326 l 1156 351 m 688 886 q 364 622 499 846 q 242 211 242 418 q 265 75 242 125 q 375 6 299 6 q 597 101 482 6 q 756 293 694 182 q 624 425 672 340 q 575 607 575 510 q 604 758 575 685 q 688 886 633 831 m 804 744 q 811 797 811 772 q 785 865 811 843 q 711 888 758 888 q 651 777 669 842 q 633 639 633 713 q 660 457 633 535 q 767 314 693 357 q 862 535 825 413 q 899 767 899 657 q 881 875 899 833 q 796 935 854 935 q 732 910 757 935 q 806 878 779 910 q 832 797 832 846 q 829 766 832 781 q 825 743 826 751 l 804 744 m 731 1239 q 764 1206 750 1239 q 781 1151 771 1190 q 844 1058 792 1111 q 897 1007 871 1032 q 886 994 897 994 q 762 1070 839 994 q 685 1193 685 1146 q 731 1239 685 1239 z "},"":{"ha":992,"x_min":99,"x_max":1156,"o":"m 1156 351 q 1042 278 1101 304 q 918 251 983 251 q 811 269 861 251 q 606 68 711 142 q 336 -25 472 -25 q 159 40 219 -25 q 99 222 99 104 q 288 669 99 453 q 706 911 478 885 q 853 972 769 972 q 978 901 935 972 q 1014 754 1014 842 q 956 508 1014 643 q 826 286 906 394 q 877 275 849 278 q 933 272 906 272 q 1044 299 985 272 q 1143 365 1104 326 l 1156 351 m 688 886 q 364 622 499 846 q 242 211 242 418 q 265 75 242 125 q 375 6 299 6 q 597 101 482 6 q 756 293 694 182 q 624 425 672 340 q 575 607 575 510 q 604 758 575 685 q 688 886 633 831 m 804 744 q 811 797 811 772 q 785 865 811 843 q 711 888 758 888 q 651 777 669 842 q 633 639 633 713 q 660 457 633 535 q 767 314 693 357 q 862 535 825 413 q 899 767 899 657 q 881 875 899 833 q 796 935 854 935 q 732 910 757 935 q 806 878 779 910 q 832 797 832 846 q 829 766 832 781 q 825 743 826 751 l 804 744 m 832 994 q 822 1007 819 994 q 893 1088 861 1050 q 939 1157 932 1132 q 953 1207 946 1182 q 988 1239 965 1239 q 1033 1193 1033 1239 q 956 1071 1033 1147 q 832 994 878 994 z "},"":{"ha":992,"x_min":99,"x_max":1156,"o":"m 1156 351 q 1042 278 1101 304 q 918 251 983 251 q 811 269 861 251 q 606 68 711 142 q 336 -25 472 -25 q 159 40 219 -25 q 99 222 99 104 q 288 669 99 453 q 706 911 478 885 q 853 972 769 972 q 978 901 935 972 q 1014 754 1014 842 q 956 508 1014 643 q 826 286 906 394 q 877 275 849 278 q 933 272 906 272 q 1044 299 985 272 q 1143 365 1104 326 l 1156 351 m 688 886 q 364 622 499 846 q 242 211 242 418 q 265 75 242 125 q 375 6 299 6 q 597 101 482 6 q 756 293 694 182 q 624 425 672 340 q 575 607 575 510 q 604 758 575 685 q 688 886 633 831 m 804 744 q 811 797 811 772 q 785 865 811 843 q 711 888 758 888 q 651 777 669 842 q 633 639 633 713 q 660 457 633 535 q 767 314 693 357 q 862 535 825 413 q 899 767 899 657 q 881 875 899 833 q 796 935 854 935 q 732 910 757 935 q 806 878 779 910 q 832 797 832 846 q 829 766 832 781 q 825 743 826 751 l 804 744 m 935 1239 q 981 1115 947 1186 q 1046 1014 1015 1044 l 1040 1006 l 1032 1000 q 967 1057 1018 1000 q 904 1131 935 1093 q 806 1058 856 1092 q 701 1004 731 1008 l 693 1017 q 751 1075 711 1043 q 815 1128 807 1119 q 853 1168 831 1142 q 907 1239 875 1194 l 935 1239 z "},"":{"ha":992,"x_min":99,"x_max":1156,"o":"m 1156 351 q 1042 278 1101 304 q 918 251 983 251 q 811 269 861 251 q 606 68 711 142 q 336 -25 472 -25 q 159 40 219 -25 q 99 222 99 104 q 288 669 99 453 q 706 911 478 885 q 853 972 769 972 q 978 901 935 972 q 1014 754 1014 842 q 956 508 1014 643 q 826 286 906 394 q 877 275 849 278 q 933 272 906 272 q 1044 299 985 272 q 1143 365 1104 326 l 1156 351 m 688 886 q 364 622 499 846 q 242 211 242 418 q 265 75 242 125 q 375 6 299 6 q 597 101 482 6 q 756 293 694 182 q 624 425 672 340 q 575 607 575 510 q 604 758 575 685 q 688 886 633 831 m 804 744 q 811 797 811 772 q 785 865 811 843 q 711 888 758 888 q 651 777 669 842 q 633 639 633 713 q 660 457 633 535 q 767 314 693 357 q 862 535 825 413 q 899 767 899 657 q 881 875 899 833 q 796 935 854 935 q 732 910 757 935 q 806 878 779 910 q 832 797 832 846 q 829 766 832 781 q 825 743 826 751 l 804 744 m 697 1051 q 733 1142 701 1099 q 810 1185 764 1185 q 885 1169 842 1185 q 999 1135 983 1135 q 1051 1151 1032 1135 q 1081 1199 1069 1167 l 1108 1199 q 1071 1108 1100 1146 q 988 1064 1036 1064 q 869 1099 958 1064 q 796 1115 826 1115 q 751 1099 768 1115 q 721 1051 733 1082 l 697 1051 z "},"":{"ha":992,"x_min":99,"x_max":1156,"o":"m 1156 351 q 1042 278 1101 304 q 918 251 983 251 q 811 269 861 251 q 606 68 711 142 q 336 -25 472 -25 q 159 40 219 -25 q 99 222 99 104 q 288 669 99 453 q 706 911 478 885 q 853 972 769 972 q 978 901 935 972 q 1014 754 1014 842 q 956 508 1014 643 q 826 286 906 394 q 877 275 849 278 q 933 272 906 272 q 1044 299 985 272 q 1143 365 1104 326 l 1156 351 m 688 886 q 364 622 499 846 q 242 211 242 418 q 265 75 242 125 q 375 6 299 6 q 597 101 482 6 q 756 293 694 182 q 624 425 672 340 q 575 607 575 510 q 604 758 575 685 q 688 886 633 831 m 804 744 q 811 797 811 772 q 785 865 811 843 q 711 888 758 888 q 651 777 669 842 q 633 639 633 713 q 660 457 633 535 q 767 314 693 357 q 862 535 825 413 q 899 767 899 657 q 881 875 899 833 q 796 935 854 935 q 732 910 757 935 q 806 878 779 910 q 832 797 832 846 q 829 766 832 781 q 825 743 826 751 l 804 744 m 1079 1126 q 1060 1082 1079 1101 q 1014 1063 1040 1063 q 970 1084 988 1063 q 953 1133 953 1106 q 972 1178 953 1158 q 1017 1197 992 1197 q 1062 1177 1044 1197 q 1079 1126 1079 1157 m 838 1126 q 818 1082 838 1101 q 772 1063 799 1063 q 728 1084 746 1063 q 711 1133 711 1106 q 731 1178 711 1158 q 775 1197 750 1197 q 820 1177 803 1197 q 838 1126 838 1157 z "},"":{"ha":803,"x_min":164,"x_max":644,"o":"m 164 419 l 219 476 l 404 292 l 588 476 l 644 419 l 458 236 l 644 53 l 588 -4 l 404 182 l 219 -4 l 164 53 l 349 236 l 164 419 z "},"":{"ha":967,"x_min":101,"x_max":986,"o":"m 751 846 q 718 863 738 857 q 679 869 699 869 q 363 621 506 869 q 236 213 236 401 q 241 132 236 165 q 264 67 246 99 l 751 846 m 778 721 l 778 746 q 776 787 778 772 q 767 821 775 801 l 283 39 q 365 6 319 6 q 625 132 496 6 q 814 412 738 243 q 890 706 890 581 q 876 821 890 769 q 825 911 863 872 l 779 842 q 795 803 790 824 q 800 757 800 783 l 799 721 l 778 721 m 857 963 q 958 849 925 926 q 986 696 986 783 q 775 226 986 468 q 322 -25 554 -25 q 250 -18 289 -25 l 182 -129 l 157 -115 l 221 -7 q 130 86 158 24 q 101 225 101 149 q 282 658 101 438 q 679 890 471 890 q 763 864 732 890 l 806 931 q 738 962 774 953 q 658 971 703 971 q 494 924 579 971 q 360 815 421 883 l 349 825 q 515 953 431 910 q 718 1001 610 1001 q 747 999 731 1001 q 776 993 764 996 l 833 976 l 901 1081 l 924 1068 l 857 963 z "},"":{"ha":1115,"x_min":119,"x_max":1325,"o":"m 756 260 q 568 79 661 147 q 329 -14 440 -14 q 233 86 233 -14 q 340 338 233 167 q 542 643 440 490 q 650 889 650 815 q 624 936 650 919 q 565 953 597 953 q 308 843 431 953 q 186 600 186 733 q 208 535 186 564 q 265 506 229 506 q 342 526 304 506 q 440 617 389 553 l 456 606 q 364 517 411 549 q 244 476 306 476 q 155 510 190 476 q 119 600 119 544 q 296 876 119 758 q 624 983 456 983 q 727 949 686 983 q 768 851 768 914 q 660 613 768 781 q 460 315 560 464 q 350 78 350 146 q 354 59 350 69 q 363 39 358 49 q 388 31 375 35 q 403 28 400 28 q 706 235 525 28 q 997 644 839 389 q 1169 936 1083 790 l 1325 942 q 1182 731 1253 836 q 938 344 1032 506 q 807 60 807 121 q 815 27 807 40 q 842 14 824 14 q 1068 153 921 14 q 1261 361 1158 238 l 1278 349 q 1072 124 1135 182 q 817 -15 922 -15 q 726 10 758 -15 q 694 92 694 35 q 713 179 694 135 q 756 260 726 215 m 843 1238 q 876 1204 863 1238 q 894 1149 883 1189 q 957 1057 904 1110 q 1010 1006 983 1031 q 999 993 1010 993 q 874 1069 951 993 q 797 1192 797 1144 q 843 1238 797 1238 z "},"":{"ha":1115,"x_min":119,"x_max":1325,"o":"m 756 260 q 568 79 661 147 q 329 -14 440 -14 q 233 86 233 -14 q 340 338 233 167 q 542 643 440 490 q 650 889 650 815 q 624 936 650 919 q 565 953 597 953 q 308 843 431 953 q 186 600 186 733 q 208 535 186 564 q 265 506 229 506 q 342 526 304 506 q 440 617 389 553 l 456 606 q 364 517 411 549 q 244 476 306 476 q 155 510 190 476 q 119 600 119 544 q 296 876 119 758 q 624 983 456 983 q 727 949 686 983 q 768 851 768 914 q 660 613 768 781 q 460 315 560 464 q 350 78 350 146 q 354 59 350 69 q 363 39 358 49 q 388 31 375 35 q 403 28 400 28 q 706 235 525 28 q 997 644 839 389 q 1169 936 1083 790 l 1325 942 q 1182 731 1253 836 q 938 344 1032 506 q 807 60 807 121 q 815 27 807 40 q 842 14 824 14 q 1068 153 921 14 q 1261 361 1158 238 l 1278 349 q 1072 124 1135 182 q 817 -15 922 -15 q 726 10 758 -15 q 694 92 694 35 q 713 179 694 135 q 756 260 726 215 m 944 993 q 935 1006 932 993 q 1006 1086 974 1049 q 1051 1156 1044 1131 q 1065 1206 1058 1181 q 1100 1238 1078 1238 q 1146 1192 1146 1238 q 1068 1069 1146 1146 q 944 993 990 993 z "},"":{"ha":1115,"x_min":119,"x_max":1325,"o":"m 756 260 q 568 79 661 147 q 329 -14 440 -14 q 233 86 233 -14 q 340 338 233 167 q 542 643 440 490 q 650 889 650 815 q 624 936 650 919 q 565 953 597 953 q 308 843 431 953 q 186 600 186 733 q 208 535 186 564 q 265 506 229 506 q 342 526 304 506 q 440 617 389 553 l 456 606 q 364 517 411 549 q 244 476 306 476 q 155 510 190 476 q 119 600 119 544 q 296 876 119 758 q 624 983 456 983 q 727 949 686 983 q 768 851 768 914 q 660 613 768 781 q 460 315 560 464 q 350 78 350 146 q 354 59 350 69 q 363 39 358 49 q 388 31 375 35 q 403 28 400 28 q 706 235 525 28 q 997 644 839 389 q 1169 936 1083 790 l 1325 942 q 1182 731 1253 836 q 938 344 1032 506 q 807 60 807 121 q 815 27 807 40 q 842 14 824 14 q 1068 153 921 14 q 1261 361 1158 238 l 1278 349 q 1072 124 1135 182 q 817 -15 922 -15 q 726 10 758 -15 q 694 92 694 35 q 713 179 694 135 q 756 260 726 215 m 1047 1238 q 1094 1114 1060 1185 q 1158 1013 1128 1043 l 1153 1004 l 1144 999 q 1079 1056 1131 999 q 1017 1129 1047 1092 q 918 1057 968 1090 q 814 1003 843 1007 l 806 1015 q 864 1074 824 1042 q 929 1126 922 1121 q 978 1179 957 1153 q 1019 1238 992 1196 l 1047 1238 z "},"":{"ha":1115,"x_min":119,"x_max":1325,"o":"m 756 260 q 568 79 661 147 q 329 -14 440 -14 q 233 86 233 -14 q 340 338 233 167 q 542 643 440 490 q 650 889 650 815 q 624 936 650 919 q 565 953 597 953 q 308 843 431 953 q 186 600 186 733 q 208 535 186 564 q 265 506 229 506 q 342 526 304 506 q 440 617 389 553 l 456 606 q 364 517 411 549 q 244 476 306 476 q 155 510 190 476 q 119 600 119 544 q 296 876 119 758 q 624 983 456 983 q 727 949 686 983 q 768 851 768 914 q 660 613 768 781 q 460 315 560 464 q 350 78 350 146 q 354 59 350 69 q 363 39 358 49 q 388 31 375 35 q 403 28 400 28 q 706 235 525 28 q 997 644 839 389 q 1169 936 1083 790 l 1325 942 q 1182 731 1253 836 q 938 344 1032 506 q 807 60 807 121 q 815 27 807 40 q 842 14 824 14 q 1068 153 921 14 q 1261 361 1158 238 l 1278 349 q 1072 124 1135 182 q 817 -15 922 -15 q 726 10 758 -15 q 694 92 694 35 q 713 179 694 135 q 756 260 726 215 m 1192 1125 q 1172 1081 1192 1100 q 1126 1061 1153 1061 q 1083 1083 1100 1061 q 1065 1132 1065 1104 q 1085 1176 1065 1157 q 1129 1196 1104 1196 q 1174 1176 1157 1196 q 1192 1125 1192 1156 m 950 1125 q 931 1081 950 1100 q 885 1061 911 1061 q 841 1083 858 1061 q 824 1132 824 1104 q 843 1176 824 1157 q 888 1196 863 1196 q 933 1176 915 1196 q 950 1125 950 1156 z "},"":{"ha":1042,"x_min":-128,"x_max":1336,"o":"m 781 265 q 585 78 690 153 q 335 -17 451 -17 q 267 8 293 -17 q 240 76 240 33 q 349 329 240 158 q 551 631 450 479 q 661 874 661 800 q 645 930 661 910 q 593 950 629 950 q 335 842 457 950 q 214 600 214 735 q 231 532 214 561 q 286 503 249 503 q 394 550 340 503 q 447 601 414 567 l 463 593 q 374 510 421 542 q 260 472 317 472 q 166 502 201 472 q 131 590 131 532 q 303 865 131 747 q 624 972 460 972 q 729 950 690 972 q 779 860 779 921 q 671 600 779 772 q 468 301 569 450 q 358 72 358 136 q 410 21 358 21 q 703 207 535 21 q 985 596 832 350 q 1181 931 986 597 l 1336 938 l 715 -43 q 471 -304 613 -204 q 135 -418 308 -418 q -42 -379 26 -418 q -128 -229 -128 -331 q -82 -121 -128 -168 q 26 -74 -36 -74 q 103 -84 65 -74 q 182 -115 142 -94 l 179 -131 q 138 -117 160 -124 q 99 -111 115 -111 q 19 -152 49 -111 q -11 -246 -11 -193 q 31 -355 -11 -312 q 140 -397 74 -397 q 401 -268 265 -397 q 622 10 503 -172 q 781 265 701 138 m 942 993 q 931 1006 931 993 q 981 1057 946 1022 q 1049 1156 1036 1111 q 1063 1204 1061 1200 q 1097 1238 1076 1238 q 1144 1192 1144 1238 q 1067 1069 1144 1146 q 942 993 989 993 z "},"":{"ha":1092,"x_min":-75,"x_max":1183,"o":"m 829 631 q 919 706 869 675 q 1032 742 979 742 q 1117 713 1083 742 q 1150 633 1150 683 q 1019 385 1150 482 q 743 297 901 297 q 665 307 700 297 l 672 325 q 713 320 704 321 q 744 319 722 319 q 938 397 850 319 q 1026 579 1026 474 q 1013 637 1026 615 q 964 658 999 658 q 744 482 860 658 q 525 153 542 172 q 179 -24 372 -24 q 10 21 81 -24 q -75 165 -75 74 q -49 231 -75 203 q 13 260 -24 260 q 63 241 43 260 q 83 192 83 222 q 69 151 83 169 q 32 131 54 132 q 78 32 38 67 q 185 -3 119 -3 q 423 203 289 -3 q 692 617 557 410 q 1099 936 882 865 l 1035 938 q 805 878 906 938 q 650 704 704 818 l 508 706 q 658 874 557 814 q 871 944 743 924 q 1100 960 967 960 q 1142 958 1121 960 q 1183 954 1163 956 l 1183 935 q 979 824 1089 935 q 829 631 914 758 z "},"":{"ha":793,"x_min":-828,"x_max":950,"o":"m 538 8 q 697 88 622 31 q 826 214 763 138 q 933 358 860 254 l 950 344 q 813 168 876 238 q 643 31 728 76 q 426 -25 540 -25 q 297 8 351 -25 q 232 119 232 49 q 266 213 232 172 q 353 254 300 254 q 450 178 432 254 l 406 181 q 342 149 369 181 q 315 81 315 118 q 338 22 315 44 q 397 -1 361 -1 q 492 31 454 -1 q 529 118 529 63 q 478 275 529 157 q 453 372 453 332 q 550 514 453 450 q 733 625 642 569 q 832 811 832 701 q 811 887 832 858 q 743 915 790 915 q 369 571 578 915 q -22 -71 -4 -47 q -583 -418 -286 -418 q -744 -378 -676 -418 q -828 -243 -828 -329 q -806 -165 -828 -197 q -742 -133 -785 -133 q -692 -152 -712 -133 q -672 -201 -672 -171 q -684 -246 -672 -228 q -722 -268 -696 -264 l -725 -287 q -672 -371 -725 -340 q -572 -397 -628 -397 q -131 -53 -347 -397 q 239 589 54 268 q 738 936 474 936 q 878 899 821 936 q 944 775 944 854 q 847 625 944 676 q 664 553 756 589 q 565 424 565 507 q 617 256 565 382 q 642 151 642 194 q 613 67 642 104 q 538 8 583 29 z "},"":{"ha":694,"x_min":-7,"x_max":854,"o":"m 526 467 l 671 475 q 493 197 553 296 q 429 46 429 92 q 460 14 429 14 q 665 156 526 14 q 840 360 758 250 l 854 351 q 736 200 783 256 q 579 46 650 100 q 411 -25 486 -25 q 342 -2 369 -25 q 315 60 315 21 q 318 81 315 67 q 223 6 276 36 q 115 -24 169 -24 q 24 19 54 -24 q -7 125 -7 61 q 119 375 -7 254 q 375 496 246 496 q 494 417 461 496 l 526 467 m 192 26 q 361 176 267 26 q 451 401 451 319 q 438 456 451 438 q 388 475 424 475 q 213 339 303 475 q 128 119 128 211 q 144 46 128 65 q 192 26 161 26 m 354 794 q 380 775 368 794 q 403 711 392 756 q 468 614 415 667 q 521 563 494 588 q 510 550 521 550 q 386 626 464 550 q 308 749 308 703 q 354 794 308 794 z "},"":{"ha":694,"x_min":-7,"x_max":854,"o":"m 526 467 l 671 475 q 493 197 553 296 q 429 46 429 92 q 460 14 429 14 q 665 156 526 14 q 840 360 758 250 l 854 351 q 736 200 783 256 q 579 46 650 100 q 411 -25 486 -25 q 342 -2 369 -25 q 315 60 315 21 q 318 81 315 67 q 223 6 276 36 q 115 -24 169 -24 q 24 19 54 -24 q -7 125 -7 61 q 119 375 -7 254 q 375 496 246 496 q 494 417 461 496 l 526 467 m 192 26 q 361 176 267 26 q 451 401 451 319 q 438 456 451 438 q 388 475 424 475 q 213 339 303 475 q 128 119 128 211 q 144 46 128 65 q 192 26 161 26 m 457 550 q 447 564 442 550 q 529 649 488 606 q 563 715 554 679 q 576 761 572 750 q 611 794 590 794 q 644 782 631 794 q 658 749 658 769 q 581 626 658 703 q 457 550 503 550 z "},"":{"ha":694,"x_min":-7,"x_max":854,"o":"m 526 467 l 671 475 q 493 197 553 296 q 429 46 429 92 q 460 14 429 14 q 665 156 526 14 q 840 360 758 250 l 854 351 q 736 200 783 256 q 579 46 650 100 q 411 -25 486 -25 q 342 -2 369 -25 q 315 60 315 21 q 318 81 315 67 q 223 6 276 36 q 115 -24 169 -24 q 24 19 54 -24 q -7 125 -7 61 q 119 375 -7 254 q 375 496 246 496 q 494 417 461 496 l 526 467 m 192 26 q 361 176 267 26 q 451 401 451 319 q 438 456 451 438 q 388 475 424 475 q 213 339 303 475 q 128 119 128 211 q 144 46 128 65 q 192 26 161 26 m 560 794 q 596 699 571 747 q 647 608 604 683 l 669 569 q 656 556 669 556 q 590 613 643 556 q 528 686 547 658 q 429 614 482 649 q 325 560 351 563 l 318 571 q 376 629 335 596 q 442 684 428 671 q 478 724 456 697 q 532 794 500 750 l 560 794 z "},"":{"ha":694,"x_min":-7,"x_max":854,"o":"m 526 467 l 671 475 q 493 197 553 296 q 429 46 429 92 q 460 14 429 14 q 665 156 526 14 q 840 360 758 250 l 854 351 q 736 200 783 256 q 579 46 650 100 q 411 -25 486 -25 q 342 -2 369 -25 q 315 60 315 21 q 318 81 315 67 q 223 6 276 36 q 115 -24 169 -24 q 24 19 54 -24 q -7 125 -7 61 q 119 375 -7 254 q 375 496 246 496 q 494 417 461 496 l 526 467 m 192 26 q 361 176 267 26 q 451 401 451 319 q 438 456 451 438 q 388 475 424 475 q 213 339 303 475 q 128 119 128 211 q 144 46 128 65 q 192 26 161 26 m 322 607 q 354 696 328 658 q 433 742 386 742 q 536 716 472 742 q 622 690 600 690 q 674 706 654 690 q 706 754 693 722 l 732 753 q 693 661 722 697 q 606 619 658 619 q 536 635 574 619 q 422 671 446 671 q 375 651 396 671 q 346 607 360 636 l 322 607 z "},"":{"ha":694,"x_min":-7,"x_max":854,"o":"m 526 467 l 671 475 q 493 197 553 296 q 429 46 429 92 q 460 14 429 14 q 665 156 526 14 q 840 360 758 250 l 854 351 q 736 200 783 256 q 579 46 650 100 q 411 -25 486 -25 q 342 -2 369 -25 q 315 60 315 21 q 318 81 315 67 q 223 6 276 36 q 115 -24 169 -24 q 24 19 54 -24 q -7 125 -7 61 q 119 375 -7 254 q 375 496 246 496 q 494 417 461 496 l 526 467 m 192 26 q 361 176 267 26 q 451 401 451 319 q 438 456 451 438 q 388 475 424 475 q 213 339 303 475 q 128 119 128 211 q 144 46 128 65 q 192 26 161 26 m 703 682 q 683 638 703 657 q 638 618 664 618 q 594 640 611 618 q 576 689 576 661 q 596 733 576 714 q 640 753 615 753 q 685 733 668 753 q 703 682 703 713 m 461 682 q 442 638 461 657 q 397 618 422 618 q 353 640 371 618 q 335 689 335 663 q 354 733 335 714 q 399 753 374 753 q 444 733 426 753 q 461 682 461 713 z "},"":{"ha":694,"x_min":-7,"x_max":854,"o":"m 526 467 l 671 475 q 493 197 553 296 q 429 46 429 92 q 460 14 429 14 q 665 156 526 14 q 840 360 758 250 l 854 351 q 736 200 783 256 q 579 46 650 100 q 411 -25 486 -25 q 342 -2 369 -25 q 315 60 315 21 q 318 81 315 67 q 223 6 276 36 q 115 -24 169 -24 q 24 19 54 -24 q -7 125 -7 61 q 119 375 -7 254 q 375 496 246 496 q 494 417 461 496 l 526 467 m 192 26 q 361 176 267 26 q 451 401 451 319 q 438 456 451 438 q 388 475 424 475 q 213 339 303 475 q 128 119 128 211 q 144 46 128 65 q 192 26 161 26 m 475 624 q 481 592 475 608 q 515 575 488 575 q 606 639 563 575 q 644 747 644 697 q 636 784 644 771 q 604 797 628 797 q 515 736 556 797 q 475 624 475 675 m 708 724 q 652 606 708 656 q 526 557 596 557 q 449 579 481 557 q 411 651 411 606 q 466 769 411 721 q 593 817 521 817 q 673 792 638 817 q 708 724 708 767 z "},"":{"ha":917,"x_min":-11,"x_max":1078,"o":"m 382 475 q 204 340 293 475 q 122 119 122 215 q 140 50 122 71 q 182 35 154 35 q 357 179 263 35 q 446 401 446 315 q 430 454 446 433 q 382 475 414 475 m 369 161 q 263 40 317 83 q 113 -15 192 -15 q 23 23 57 -15 q -11 118 -11 61 q 113 377 -11 258 q 379 496 238 496 q 490 424 458 496 l 517 475 l 644 481 l 624 450 q 698 484 663 472 q 775 496 733 496 q 861 477 828 496 q 894 410 894 458 q 801 293 894 343 q 506 201 708 243 q 500 153 503 176 q 532 61 500 96 q 619 26 564 26 q 789 86 697 26 q 944 221 865 136 q 1065 365 994 274 l 1078 351 q 932 178 1000 249 q 753 35 840 83 q 535 -25 646 -25 q 414 18 460 -25 q 368 133 368 61 q 369 161 368 151 m 747 475 q 603 379 681 475 q 511 219 538 299 q 681 297 597 238 q 781 443 781 368 q 747 475 781 475 z "},"":{"ha":543,"x_min":-21,"x_max":707,"o":"m 707 347 q 561 179 619 239 q 382 36 468 85 q 169 -24 276 -24 q 44 22 88 -24 q 0 149 0 67 q 139 392 0 281 q 404 497 271 497 q 492 478 453 497 q 542 408 542 453 q 508 328 542 361 q 426 296 474 296 l 392 299 q 413 365 401 329 q 425 428 425 401 q 415 461 425 447 q 388 475 406 475 q 211 356 294 475 q 133 146 133 244 q 165 60 133 94 q 249 26 196 26 q 418 83 331 26 q 567 215 483 126 q 690 354 628 285 l 707 347 m 203 -4 q 182 -33 190 -21 q 153 -86 164 -58 q 177 -83 164 -83 q 197 -83 190 -83 q 267 -104 240 -83 q 293 -168 293 -125 q 240 -250 293 -225 q 136 -269 200 -269 q 47 -256 100 -269 q -21 -214 -21 -237 q -6 -199 -21 -199 q 55 -215 7 -199 q 128 -231 103 -231 q 192 -219 168 -231 q 225 -168 225 -204 q 169 -121 225 -121 q 140 -124 160 -121 q 111 -126 121 -126 q 99 -114 99 -126 q 117 -76 99 -107 q 163 -4 135 -44 l 203 -4 z "},"":{"ha":543,"x_min":-6,"x_max":707,"o":"m 707 351 q 560 178 628 249 q 381 35 465 82 q 163 -24 275 -24 q 40 21 86 -24 q -6 142 -6 65 q 131 384 -6 271 q 397 497 267 497 q 485 477 447 497 q 522 410 522 457 q 365 264 522 326 q 135 200 275 228 l 128 153 q 160 61 128 96 q 249 26 192 26 q 418 86 328 26 q 574 221 496 138 q 693 365 617 267 l 707 351 m 374 475 q 231 378 310 475 q 139 219 164 296 q 307 297 224 238 q 407 443 407 369 q 374 475 407 475 m 301 794 q 335 761 319 794 q 354 705 342 744 q 417 614 367 665 q 469 563 443 588 q 458 550 469 550 q 333 626 410 550 q 256 749 256 701 q 301 794 256 794 z "},"":{"ha":543,"x_min":-6,"x_max":707,"o":"m 707 351 q 560 178 628 249 q 381 35 465 82 q 163 -24 275 -24 q 40 21 86 -24 q -6 142 -6 65 q 131 384 -6 271 q 397 497 267 497 q 485 477 447 497 q 522 410 522 457 q 365 264 522 326 q 135 200 275 228 l 128 153 q 160 61 128 96 q 249 26 192 26 q 418 86 328 26 q 574 221 496 138 q 693 365 617 267 l 707 351 m 374 475 q 231 378 310 475 q 139 219 164 296 q 307 297 224 238 q 407 443 407 369 q 374 475 407 475 m 404 550 q 393 564 393 550 q 443 615 406 579 q 510 713 499 669 q 531 775 526 767 q 560 794 542 794 q 606 749 606 794 q 528 626 606 703 q 404 550 450 550 z "},"":{"ha":543,"x_min":-6,"x_max":707,"o":"m 707 351 q 560 178 628 249 q 381 35 465 82 q 163 -24 275 -24 q 40 21 86 -24 q -6 142 -6 65 q 131 384 -6 271 q 397 497 267 497 q 485 477 447 497 q 522 410 522 457 q 365 264 522 326 q 135 200 275 228 l 128 153 q 160 61 128 96 q 249 26 192 26 q 418 86 328 26 q 574 221 496 138 q 693 365 617 267 l 707 351 m 374 475 q 231 378 310 475 q 139 219 164 296 q 307 297 224 238 q 407 443 407 369 q 374 475 407 475 m 507 794 q 553 682 521 740 q 618 569 586 624 l 614 560 l 603 556 q 560 590 593 556 q 475 688 519 632 q 376 614 426 647 q 272 560 301 563 l 265 572 q 284 592 272 582 q 307 613 296 603 q 401 698 357 653 q 479 794 444 743 l 507 794 z "},"":{"ha":543,"x_min":-6,"x_max":707,"o":"m 707 351 q 560 178 628 249 q 381 35 465 82 q 163 -24 275 -24 q 40 21 86 -24 q -6 142 -6 65 q 131 384 -6 271 q 397 497 267 497 q 485 477 447 497 q 522 410 522 457 q 365 264 522 326 q 135 200 275 228 l 128 153 q 160 61 128 96 q 249 26 192 26 q 418 86 328 26 q 574 221 496 138 q 693 365 617 267 l 707 351 m 374 475 q 231 378 310 475 q 139 219 164 296 q 307 297 224 238 q 407 443 407 369 q 374 475 407 475 m 651 682 q 632 638 651 657 q 586 618 613 618 q 542 640 560 618 q 524 689 524 663 q 543 733 524 714 q 589 753 563 753 q 634 733 617 753 q 651 682 651 713 m 410 682 q 390 638 410 657 q 344 618 371 618 q 300 640 318 618 q 282 689 282 663 q 301 733 282 714 q 347 753 321 753 q 392 733 375 753 q 410 682 410 713 z "},"":{"ha":344,"x_min":-25,"x_max":510,"o":"m 329 475 q 190 263 194 268 q 88 50 88 96 q 92 23 88 31 q 108 15 97 15 q 313 158 172 15 q 493 361 381 226 l 510 350 q 393 208 463 283 q 228 56 308 115 q 71 -17 132 -17 q 2 8 29 -17 q -25 72 -25 32 q 60 272 -25 129 q 185 468 63 276 l 329 475 m 149 796 q 174 776 163 796 q 198 713 186 757 q 263 615 210 668 q 315 564 289 589 q 304 551 315 551 q 182 628 260 551 q 104 750 104 704 q 149 796 104 796 z "},"":{"ha":344,"x_min":-25,"x_max":510,"o":"m 329 475 q 190 263 194 268 q 88 50 88 96 q 92 23 88 31 q 108 15 97 15 q 313 158 172 15 q 493 361 381 226 l 510 350 q 393 208 463 283 q 228 56 308 115 q 71 -17 132 -17 q 2 8 29 -17 q -25 72 -25 32 q 60 272 -25 129 q 185 468 63 276 l 329 475 m 251 551 q 240 565 240 553 q 311 646 279 608 q 357 715 350 690 q 371 764 364 739 q 407 796 385 796 q 439 783 426 796 q 451 750 451 771 q 374 628 451 704 q 251 551 296 551 z "},"":{"ha":344,"x_min":-25,"x_max":510,"o":"m 329 475 q 190 263 194 268 q 88 50 88 96 q 92 23 88 31 q 108 15 97 15 q 313 158 172 15 q 493 361 381 226 l 510 350 q 393 208 463 283 q 228 56 308 115 q 71 -17 132 -17 q 2 8 29 -17 q -25 72 -25 32 q 60 272 -25 129 q 185 468 63 276 l 329 475 m 354 796 q 403 678 368 742 q 442 610 429 632 l 465 571 q 450 557 465 557 q 385 615 439 557 q 322 689 336 668 q 222 615 276 653 q 119 561 143 561 l 113 572 q 171 631 129 597 q 236 685 222 672 q 272 725 250 699 q 326 796 294 751 l 354 796 z "},"":{"ha":344,"x_min":-25,"x_max":510,"o":"m 329 475 q 190 263 194 268 q 88 50 88 96 q 92 23 88 31 q 108 15 97 15 q 313 158 172 15 q 493 361 381 226 l 510 350 q 393 208 463 283 q 228 56 308 115 q 71 -17 132 -17 q 2 8 29 -17 q -25 72 -25 32 q 60 272 -25 129 q 185 468 63 276 l 329 475 m 497 683 q 478 639 497 658 q 432 619 458 619 q 388 640 404 619 q 372 690 372 661 q 392 736 372 718 q 438 754 411 754 q 481 733 465 754 q 497 683 497 713 m 257 683 q 238 639 257 658 q 192 619 218 619 q 147 642 165 619 q 129 690 129 664 q 149 735 129 715 q 194 754 168 754 q 240 734 222 754 q 257 683 257 714 z "},"":{"ha":643,"x_min":1,"x_max":921,"o":"m 639 683 q 614 507 629 592 q 574 336 599 422 q 658 275 593 275 q 733 303 697 275 q 792 363 758 322 l 803 349 q 739 285 768 307 q 656 254 697 254 q 604 266 628 254 q 563 301 581 278 q 417 72 514 158 q 167 -25 308 -25 q 47 19 92 -25 q 1 136 1 63 q 128 387 1 276 q 397 497 254 497 q 486 476 444 497 q 504 683 494 579 l 418 681 q 353 694 381 681 q 373 704 354 701 q 419 707 392 707 q 472 706 440 707 q 506 704 504 704 q 575 892 525 826 q 753 972 638 972 q 844 956 800 972 q 921 910 889 940 l 907 889 q 838 926 865 917 q 785 935 810 935 q 668 854 704 935 q 642 704 642 796 l 735 707 q 803 694 771 707 q 781 683 801 686 q 728 681 761 681 q 674 682 707 681 q 639 683 642 683 m 450 406 q 438 456 450 439 q 393 474 425 474 q 207 313 301 474 q 121 64 121 165 q 133 15 121 32 q 178 -3 146 -3 q 364 158 269 -3 q 450 406 450 306 z "},"":{"ha":643,"x_min":-119,"x_max":806,"o":"m 151 235 q 299 401 258 364 q 489 496 400 496 q 555 472 528 496 q 582 408 582 447 q 490 219 582 343 q 397 47 397 94 q 429 14 397 14 q 546 86 468 14 q 688 236 607 142 q 788 357 699 250 l 806 349 q 692 207 749 278 q 543 56 608 108 q 388 -15 456 -15 q 313 9 342 -15 q 285 79 285 33 q 343 222 285 140 q 469 428 469 400 q 459 449 469 440 q 435 458 449 458 q 206 269 357 458 q 24 1 83 117 l -119 -3 l 169 475 l 329 481 l 151 232 l 151 235 m 264 606 q 297 694 271 657 q 376 740 329 740 q 479 715 415 740 q 565 689 543 689 q 617 705 599 689 q 647 753 636 721 l 675 751 q 636 660 665 696 q 547 618 601 618 q 435 653 519 618 q 365 669 394 669 q 318 650 339 669 q 288 606 303 635 l 264 606 z "},"":{"ha":643,"x_min":1,"x_max":803,"o":"m 803 347 q 719 272 758 294 q 656 254 688 254 q 561 303 600 254 q 415 70 525 165 q 167 -25 304 -25 q 47 19 92 -25 q 1 136 1 63 q 131 389 1 276 q 399 496 254 496 q 557 385 515 496 q 654 275 599 275 q 717 293 685 275 q 792 363 749 311 l 803 347 m 449 408 q 436 459 449 442 q 392 476 424 476 q 206 315 300 476 q 119 67 119 168 q 132 17 119 35 q 176 0 144 0 q 363 161 268 0 q 449 408 449 308 m 297 796 q 323 776 311 796 q 347 713 335 757 q 411 615 358 668 q 464 564 438 589 q 453 551 464 551 q 329 628 408 551 q 250 750 250 704 q 297 796 250 796 z "},"":{"ha":643,"x_min":1,"x_max":803,"o":"m 803 347 q 719 272 758 294 q 656 254 688 254 q 561 303 600 254 q 415 70 525 165 q 167 -25 304 -25 q 47 19 92 -25 q 1 136 1 63 q 131 389 1 276 q 399 496 254 496 q 557 385 515 496 q 654 275 599 275 q 717 293 685 275 q 792 363 749 311 l 803 347 m 449 408 q 436 459 449 442 q 392 476 424 476 q 206 315 300 476 q 119 67 119 168 q 132 17 119 35 q 176 0 144 0 q 363 161 268 0 q 449 408 449 308 m 399 551 q 389 565 386 551 q 471 650 429 607 q 505 716 496 681 q 518 763 514 751 q 554 796 532 796 q 587 783 574 796 q 600 750 600 769 q 523 627 600 703 q 399 551 446 551 z "},"":{"ha":643,"x_min":1,"x_max":803,"o":"m 803 347 q 719 272 758 294 q 656 254 688 254 q 561 303 600 254 q 415 70 525 165 q 167 -25 304 -25 q 47 19 92 -25 q 1 136 1 63 q 131 389 1 276 q 399 496 254 496 q 557 385 515 496 q 654 275 599 275 q 717 293 685 275 q 792 363 749 311 l 803 347 m 449 408 q 436 459 449 442 q 392 476 424 476 q 206 315 300 476 q 119 67 119 168 q 132 17 119 35 q 176 0 144 0 q 363 161 268 0 q 449 408 449 308 m 501 796 q 539 700 514 750 q 590 610 547 685 l 613 571 q 597 557 613 557 q 532 614 585 557 q 469 688 489 660 q 371 615 425 651 q 268 561 294 564 l 260 574 q 318 632 278 600 q 382 685 374 676 q 419 725 397 699 q 474 796 442 751 l 501 796 z "},"":{"ha":643,"x_min":1,"x_max":803,"o":"m 803 347 q 719 272 758 294 q 656 254 688 254 q 561 303 600 254 q 415 70 525 165 q 167 -25 304 -25 q 47 19 92 -25 q 1 136 1 63 q 131 389 1 276 q 399 496 254 496 q 557 385 515 496 q 654 275 599 275 q 717 293 685 275 q 792 363 749 311 l 803 347 m 449 408 q 436 459 449 442 q 392 476 424 476 q 206 315 300 476 q 119 67 119 168 q 132 17 119 35 q 176 0 144 0 q 363 161 268 0 q 449 408 449 308 m 264 608 q 297 697 271 660 q 376 743 329 743 q 479 717 415 743 q 565 692 543 692 q 617 708 599 692 q 647 756 636 724 l 675 754 q 636 663 665 699 q 547 621 601 621 q 435 656 519 621 q 365 672 394 672 q 318 653 339 672 q 288 608 303 638 l 264 608 z "},"":{"ha":643,"x_min":1,"x_max":803,"o":"m 803 347 q 719 272 758 294 q 656 254 688 254 q 561 303 600 254 q 415 70 525 165 q 167 -25 304 -25 q 47 19 92 -25 q 1 136 1 63 q 131 389 1 276 q 399 496 254 496 q 557 385 515 496 q 654 275 599 275 q 717 293 685 275 q 792 363 749 311 l 803 347 m 449 408 q 436 459 449 442 q 392 476 424 476 q 206 315 300 476 q 119 67 119 168 q 132 17 119 35 q 176 0 144 0 q 363 161 268 0 q 449 408 449 308 m 646 683 q 626 639 646 658 q 581 619 607 619 q 537 641 554 619 q 519 690 519 663 q 539 735 519 715 q 583 754 558 754 q 628 734 611 754 q 646 683 646 714 m 404 683 q 385 639 404 658 q 339 619 365 619 q 295 641 313 619 q 278 690 278 663 q 297 735 278 715 q 342 754 317 754 q 387 734 369 754 q 404 683 404 714 z "},"":{"ha":803,"x_min":165,"x_max":643,"o":"m 165 197 l 165 275 l 643 275 l 643 197 l 165 197 m 476 35 q 456 -17 476 4 q 404 -37 435 -37 q 353 -17 374 -37 q 332 35 332 4 q 353 86 332 65 q 404 107 374 107 q 456 86 435 107 q 476 35 476 65 m 476 438 q 456 386 476 407 q 404 365 435 365 q 353 386 374 365 q 332 438 332 407 q 353 489 332 468 q 404 510 374 510 q 456 489 435 510 q 476 438 476 468 z "},"":{"ha":643,"x_min":0,"x_max":801,"o":"m 157 1 l 176 -3 q 363 158 269 -1 q 447 407 447 304 q 444 435 447 422 q 433 457 442 447 l 157 1 m 406 474 l 392 475 q 206 314 300 475 q 119 65 119 167 q 121 42 119 51 q 131 21 122 32 l 406 474 m 453 489 q 561 372 532 468 q 653 275 590 275 q 715 293 683 275 q 790 363 747 311 l 801 349 q 738 285 767 307 q 654 254 696 254 q 603 266 626 254 q 560 300 579 278 q 406 69 524 160 q 140 -22 289 -22 l 76 -129 l 49 -111 l 107 -14 q 27 41 54 1 q 0 138 0 81 q 136 392 0 282 q 417 496 265 496 l 476 593 l 504 575 l 453 489 z "},"":{"ha":643,"x_min":-49,"x_max":807,"o":"m 299 144 q 185 35 231 68 q 39 -17 114 -17 q -24 9 0 -17 q -49 74 -49 35 q 69 333 -49 136 q 157 475 139 444 l 306 479 q 165 268 186 301 q 65 56 65 107 q 94 22 65 22 q 243 114 157 22 q 388 304 308 183 q 489 469 401 325 l 635 479 q 492 260 546 347 q 389 42 389 94 q 411 14 389 14 q 614 160 472 14 q 793 367 707 256 l 807 354 q 556 74 656 157 q 376 -15 450 -15 q 310 11 335 -15 q 285 78 285 38 q 299 144 285 115 m 263 793 q 296 761 282 793 q 313 708 300 751 q 378 613 325 665 q 431 561 404 586 q 419 549 431 549 q 296 625 374 549 q 218 747 218 701 q 263 793 218 793 z "},"":{"ha":643,"x_min":-49,"x_max":807,"o":"m 299 144 q 185 35 231 68 q 39 -17 114 -17 q -24 9 0 -17 q -49 74 -49 35 q 69 333 -49 136 q 157 475 139 444 l 306 479 q 165 268 186 301 q 65 56 65 107 q 94 22 65 22 q 243 114 157 22 q 388 304 308 183 q 489 469 401 325 l 635 479 q 492 260 546 347 q 389 42 389 94 q 411 14 389 14 q 614 160 472 14 q 793 367 707 256 l 807 354 q 556 74 656 157 q 376 -15 450 -15 q 310 11 335 -15 q 285 78 285 38 q 299 144 285 115 m 365 549 q 356 563 353 550 q 426 643 394 606 q 471 711 464 686 q 485 761 478 736 q 521 793 499 793 q 553 781 540 793 q 565 747 565 768 q 488 625 565 701 q 365 549 410 549 z "},"":{"ha":643,"x_min":-49,"x_max":807,"o":"m 299 144 q 185 35 231 68 q 39 -17 114 -17 q -24 9 0 -17 q -49 74 -49 35 q 69 333 -49 136 q 157 475 139 444 l 306 479 q 165 268 186 301 q 65 56 65 107 q 94 22 65 22 q 243 114 157 22 q 388 304 308 183 q 489 469 401 325 l 635 479 q 492 260 546 347 q 389 42 389 94 q 411 14 389 14 q 614 160 472 14 q 793 367 707 256 l 807 354 q 556 74 656 157 q 376 -15 450 -15 q 310 11 335 -15 q 285 78 285 38 q 299 144 285 115 m 468 793 q 517 675 482 739 q 556 607 543 629 l 579 568 q 564 554 579 554 q 499 611 551 554 q 436 685 456 657 q 338 613 390 647 q 233 558 260 561 l 226 569 q 285 628 243 594 q 350 683 336 669 q 386 722 364 696 q 440 793 408 749 l 468 793 z "},"":{"ha":643,"x_min":-49,"x_max":807,"o":"m 299 144 q 185 35 231 68 q 39 -17 114 -17 q -24 9 0 -17 q -49 74 -49 35 q 69 333 -49 136 q 157 475 139 444 l 306 479 q 165 268 186 301 q 65 56 65 107 q 94 22 65 22 q 243 114 157 22 q 388 304 308 183 q 489 469 401 325 l 635 479 q 492 260 546 347 q 389 42 389 94 q 411 14 389 14 q 614 160 472 14 q 793 367 707 256 l 807 354 q 556 74 656 157 q 376 -15 450 -15 q 310 11 335 -15 q 285 78 285 38 q 299 144 285 115 m 613 681 q 592 635 613 654 q 546 617 572 617 q 502 638 518 617 q 486 688 486 658 q 506 733 486 715 q 553 751 525 751 q 597 731 581 751 q 613 681 613 710 m 371 681 q 351 636 371 656 q 306 617 332 617 q 261 639 279 617 q 243 688 243 661 q 263 732 243 713 q 308 751 282 751 q 353 731 336 751 q 371 681 371 711 z "},"":{"ha":643,"x_min":-506,"x_max":804,"o":"m 319 171 q 199 47 251 89 q 40 -17 117 -17 q -44 72 -44 -17 q 71 333 -44 147 q 161 475 115 404 l 308 481 q 169 268 175 278 q 68 56 68 104 l 100 22 q 246 115 158 22 q 392 308 314 188 q 489 475 456 407 l 628 481 q 535 315 582 397 q 442 150 489 232 q 346 -14 385 51 q 517 74 431 10 q 665 213 585 124 q 789 364 726 279 l 804 351 q 599 117 711 215 q 331 -36 467 1 q 90 -307 233 -207 q -251 -419 -69 -419 q -422 -382 -356 -419 q -506 -239 -506 -335 q -431 -117 -506 -156 q -281 -86 -372 -86 q -260 -87 -269 -86 q -243 -92 -251 -89 l -243 -108 l -278 -107 q -359 -150 -329 -107 q -389 -249 -389 -193 q -346 -354 -389 -311 q -239 -397 -303 -397 q -1 -294 -118 -397 q 183 -65 89 -214 q 319 171 192 -53 m 399 549 q 389 563 386 549 q 471 647 429 604 q 505 713 496 678 q 518 760 514 749 q 554 793 532 793 q 587 780 574 793 q 600 747 600 767 q 523 624 600 700 q 399 549 446 549 z "},"":{"ha":643,"x_min":-365,"x_max":804,"o":"m 108 153 l -217 -432 l -365 -437 l 442 867 l 592 875 l 300 458 q 401 496 346 496 q 557 385 517 496 q 656 275 597 275 q 733 303 696 275 q 792 363 758 322 l 804 349 q 740 285 769 306 q 656 254 699 254 q 604 266 626 254 q 563 301 582 278 q 426 79 531 176 q 192 -24 315 -24 q 121 8 143 -24 q 99 88 99 40 q 101 117 99 101 q 108 153 103 133 m 392 475 q 208 319 303 475 q 119 78 119 174 q 135 22 119 46 q 182 -3 150 -3 q 361 161 267 -3 q 449 407 449 313 q 436 458 449 440 q 392 475 424 475 z "},"":{"ha":643,"x_min":-506,"x_max":804,"o":"m 319 171 q 199 47 251 89 q 40 -17 117 -17 q -44 72 -44 -17 q 71 333 -44 147 q 161 475 115 404 l 308 481 q 169 268 175 278 q 68 56 68 104 l 100 22 q 246 115 158 22 q 392 308 314 188 q 489 475 456 407 l 628 481 q 535 315 582 397 q 442 150 489 232 q 346 -14 385 51 q 517 74 431 10 q 665 213 585 124 q 789 364 726 279 l 804 351 q 599 117 711 215 q 331 -36 467 1 q 90 -307 233 -207 q -251 -419 -69 -419 q -422 -382 -356 -419 q -506 -239 -506 -335 q -431 -117 -506 -156 q -281 -86 -372 -86 q -260 -87 -269 -86 q -243 -92 -251 -89 l -243 -108 l -278 -107 q -359 -150 -329 -107 q -389 -249 -389 -193 q -346 -354 -389 -311 q -239 -397 -303 -397 q -1 -294 -118 -397 q 183 -65 89 -214 q 319 171 192 -53 m 646 681 q 626 636 646 656 q 581 617 607 617 q 537 638 554 617 q 519 688 519 660 q 539 732 519 713 q 583 751 558 751 q 628 731 611 751 q 646 681 646 711 m 404 681 q 385 636 404 656 q 339 617 365 617 q 295 638 313 617 q 278 688 278 660 q 297 732 278 713 q 342 751 317 751 q 387 731 369 751 q 404 681 404 711 z "},"":{"ha":344,"x_min":144,"x_max":524,"o":"m 144 732 q 164 758 144 760 q 197 708 171 758 q 292 657 224 657 q 432 706 347 657 q 510 754 471 729 q 524 740 524 754 q 422 638 524 697 q 278 582 326 582 q 184 628 224 582 q 144 732 144 675 z "},"":{"ha":344,"x_min":249,"x_max":376,"o":"m 376 683 q 357 639 376 658 q 311 619 338 619 q 267 642 285 619 q 249 690 249 664 q 268 735 249 715 q 314 754 288 754 q 359 734 342 754 q 376 683 376 714 z "},"":{"ha":344,"x_min":-25,"x_max":510,"o":"m 329 475 q 190 263 194 268 q 88 50 88 96 q 92 23 88 31 q 108 15 97 15 q 313 158 172 15 q 493 361 381 226 l 510 350 q 393 208 463 283 q 228 56 308 115 q 71 -17 132 -17 q 2 8 29 -17 q -25 72 -25 32 q 60 272 -25 129 q 185 468 63 276 l 329 475 z "},"":{"ha":344,"x_min":206,"x_max":503,"o":"m 268 624 q 277 588 268 601 q 308 574 286 574 q 400 639 358 574 q 438 751 438 699 q 396 797 438 797 q 308 735 349 797 q 268 624 268 674 m 503 724 q 447 606 503 656 q 321 557 390 557 q 241 582 276 557 q 206 650 206 607 q 260 769 206 721 q 386 817 314 817 q 468 792 433 817 q 503 724 503 768 z "},"":{"ha":344,"x_min":-17,"x_max":158,"o":"m 100 -200 q 128 -195 114 -200 q 158 -182 143 -190 q 136 -240 158 -226 q 67 -254 114 -254 q 6 -226 29 -254 q -17 -158 -17 -197 q 18 -69 -17 -119 q 89 6 53 -19 l 101 0 q 58 -69 81 -32 q 36 -139 36 -107 q 54 -183 36 -167 q 100 -200 72 -200 z "},"":{"ha":344,"x_min":153,"x_max":504,"o":"m 264 556 q 218 672 250 614 q 153 781 207 692 q 168 794 153 794 q 232 736 179 794 q 294 663 278 685 q 393 738 356 711 q 497 790 465 786 l 504 776 q 486 757 497 767 q 464 739 482 753 q 292 556 358 654 l 264 556 z "},"":{"ha":768,"x_min":-221,"x_max":1236,"o":"m 393 364 l 514 588 q 342 679 385 631 q 300 794 300 728 q 344 908 300 867 q 461 950 389 950 q 536 933 504 950 l 529 918 q 460 928 490 928 q 360 892 397 928 q 322 793 322 856 q 389 665 322 717 q 526 607 443 622 q 750 863 608 763 q 1071 971 903 971 q 1181 947 1138 971 q 1236 856 1236 917 q 1003 631 1236 711 q 644 569 826 569 l 560 413 l 810 486 l 810 468 l 547 389 q 375 172 464 253 q 136 35 271 78 q 315 15 256 35 q 431 -108 418 -18 q 660 127 538 10 q 910 351 782 244 l 921 339 q 765 200 854 281 q 558 7 628 75 q 430 -137 450 -99 q 389 -217 410 -176 q 308 -258 360 -258 l 276 -242 q 299 -199 281 -228 q 313 -140 313 -176 q 243 -18 313 -57 q 94 14 186 14 q 3 -1 54 14 q -151 -37 -119 -37 q -199 -32 -176 -37 q -221 -8 -221 -26 q -158 29 -221 19 q -7 39 -94 39 q 34 38 15 39 q 67 38 53 38 q 253 149 158 38 q 378 339 304 210 l 154 272 l 154 292 l 393 364 m 1050 950 q 818 819 938 950 q 654 590 757 753 q 958 651 828 590 q 1129 886 1129 732 q 1108 935 1129 919 q 1050 950 1086 950 z "},"":{"ha":344,"x_min":-28,"x_max":615,"o":"m 365 546 l 540 626 l 526 600 l 351 518 q 199 281 278 411 q 85 49 85 93 q 111 14 85 14 q 314 154 179 14 q 488 358 397 242 l 504 353 q 389 203 442 264 q 233 53 307 108 q 65 -15 142 -15 q -3 4 21 -15 q -28 68 -28 24 q 44 251 -28 124 q 156 431 74 303 l -21 347 l -7 374 l 169 456 l 460 932 l 615 940 l 365 546 z "},"":{"ha":221,"x_min":-214,"x_max":461,"o":"m -214 -19 l 393 743 l 461 743 l -142 -19 l -214 -19 z "},"":{"ha":743,"x_min":-835,"x_max":910,"o":"m 189 475 q 318 676 260 597 q 494 858 406 794 q 717 938 604 938 q 817 911 775 938 q 867 824 867 879 q 832 751 867 776 q 747 725 797 725 l 719 728 q 741 783 732 753 q 750 839 750 814 q 736 892 750 868 q 693 915 722 915 q 551 826 632 915 q 417 638 490 758 q 324 475 397 607 q 442 474 389 475 q 542 471 494 472 q 659 474 611 471 q 740 488 707 478 q 647 357 676 399 q 538 186 576 254 q 483 50 483 90 l 510 15 q 717 157 578 15 q 897 361 769 210 l 910 349 q 790 207 857 281 q 629 54 699 107 q 469 -17 535 -17 q 398 12 425 -17 q 371 86 371 40 q 479 319 371 151 q 564 446 521 382 l 307 446 q 97 68 201 257 q -179 -271 -40 -156 q -575 -418 -358 -418 q -746 -381 -676 -418 q -835 -240 -835 -333 q -768 -117 -835 -161 q -626 -78 -710 -78 l -574 -83 l -574 -100 q -676 -142 -635 -100 q -717 -247 -717 -185 q -673 -359 -717 -321 q -554 -397 -629 -397 q -257 -231 -410 -397 q -12 122 -146 -110 q 169 446 78 283 l 42 446 l 57 475 l 189 475 z "},"":{"ha":743,"x_min":-835,"x_max":1015,"o":"m 1015 951 q 836 668 925 810 q 603 286 692 439 q 486 43 486 85 l 513 10 q 662 97 567 10 q 889 354 757 183 l 906 350 q 715 119 785 188 q 467 -19 576 -19 q 399 5 425 -19 q 374 69 374 29 q 450 260 374 135 q 565 446 507 353 l 307 446 q 97 68 201 257 q -179 -271 -40 -156 q -575 -418 -358 -418 q -746 -381 -676 -418 q -835 -240 -835 -333 q -773 -120 -835 -162 q -629 -78 -711 -78 l -574 -83 l -574 -100 q -676 -142 -635 -100 q -717 -247 -717 -185 q -673 -359 -717 -321 q -553 -397 -629 -397 q -257 -231 -410 -397 q -12 122 -146 -108 q 169 446 78 283 l 43 446 l 60 475 l 189 474 q 321 679 261 600 q 500 860 410 797 q 726 936 610 936 q 775 928 743 936 q 822 919 807 919 q 836 921 832 919 l 1015 951 m 583 475 q 690 653 671 619 q 769 826 769 792 q 751 890 769 864 q 696 915 732 915 q 553 826 633 915 q 418 638 494 763 q 324 475 407 618 l 583 475 z "},"":{"ha":942,"x_min":21,"x_max":1181,"o":"m 1004 833 q 897 785 939 799 q 781 765 840 765 q 601 816 715 765 q 428 867 488 867 q 315 817 363 867 q 267 701 267 768 q 305 613 267 647 q 397 579 343 579 q 494 611 449 579 q 567 686 532 638 l 581 678 q 497 590 546 622 q 388 557 449 557 q 284 597 322 557 q 246 703 246 636 q 330 878 246 804 q 517 951 414 951 q 782 882 582 951 q 942 849 878 849 q 1080 910 1021 849 q 1151 972 1139 972 l 1181 944 q 1160 911 1178 926 q 1097 876 1153 906 q 822 664 1013 825 q 467 357 699 560 q 172 101 236 154 q 268 142 242 132 q 369 161 322 161 q 501 132 428 161 q 718 65 669 65 q 883 126 804 65 q 1088 357 913 149 l 1097 349 q 968 190 1029 257 q 800 40 878 92 q 614 -25 701 -25 q 424 37 540 -25 q 257 99 307 99 q 118 38 179 99 q 43 -24 57 -24 l 21 -7 q 268 215 21 4 q 735 610 501 415 q 1004 833 914 760 m 819 1001 q 760 1136 813 1039 q 708 1226 743 1168 q 722 1240 708 1240 q 767 1206 733 1240 q 850 1107 807 1163 q 976 1200 938 1175 q 1053 1236 1028 1233 l 1060 1222 q 1042 1203 1053 1213 q 1019 1185 1038 1199 q 847 1001 914 1100 l 819 1001 z "},"":{"ha":643,"x_min":-33,"x_max":799,"o":"m 493 365 q 446 360 472 360 q 367 372 414 360 q 236 400 263 400 q 185 381 208 400 q 149 338 168 367 l 133 347 q 244 467 196 436 q 342 497 292 497 q 458 469 382 497 q 575 442 535 442 q 628 473 604 442 q 667 504 653 504 l 688 483 q 567 388 686 474 q 333 225 471 318 q 178 121 196 132 l 179 124 l 219 126 q 325 93 257 126 q 431 60 393 60 q 671 222 525 60 q 783 357 679 231 l 799 346 q 672 193 726 253 q 508 43 583 94 q 329 -24 413 -24 q 189 28 294 -24 q 101 53 138 53 q 54 35 78 53 q -17 -17 -8 -15 l -31 -10 l -33 1 q 88 88 -33 4 q 333 257 208 172 q 493 365 471 351 m 443 556 q 410 653 435 603 q 357 744 397 678 l 332 781 q 347 794 332 794 q 390 760 357 794 q 475 663 431 718 q 574 736 568 732 q 678 790 646 786 l 685 778 q 626 719 667 751 q 560 665 567 672 q 513 613 536 642 q 471 556 494 589 l 443 556 z "}}}
